<?xml version="1.0" encoding="UTF-8" standalone="no"?>
<!DOCTYPE svg PUBLIC "-//W3C//DTD SVG 1.1//EN" "http://www.w3.org/Graphics/SVG/1.1/DTD/svg11.dtd">
<svg version="1.1" xmlns="http://www.w3.org/2000/svg" xmlns:xlink="http://www.w3.org/1999/xlink" preserveAspectRatio="xMidYMid meet" viewBox="0 0 640 640" width="640" height="640"><defs><path d="M489.2 14.75L490.74 14.91L492.25 15.14L493.75 15.43L495.22 15.78L496.68 16.19L498.11 16.66L499.51 17.19L500.89 17.77L502.24 18.41L503.57 19.1L504.86 19.84L506.12 20.63L507.35 21.48L508.55 22.37L509.71 23.3L510.84 24.29L511.93 25.31L512.98 26.38L514 27.49L514.97 28.64L515.9 29.83L516.79 31.06L517.63 32.33L518.43 33.62L519.18 34.96L519.88 36.32L520.54 37.72L521.14 39.15L521.69 40.6L522.19 42.09L522.63 43.6L523.02 45.13L523.36 46.69L523.63 48.27L523.85 49.87L524 51.49L524.1 53.13L524.13 54.78L524.13 597.01L524.1 598.67L524 600.31L523.85 601.93L523.63 603.53L523.36 605.11L523.02 606.66L522.63 608.2L522.19 609.71L521.69 611.19L521.14 612.65L520.54 614.07L519.88 615.47L519.18 616.84L518.43 618.17L517.63 619.47L516.79 620.73L515.9 621.96L514.97 623.15L514 624.3L512.98 625.41L511.93 626.48L510.84 627.51L509.71 628.49L508.55 629.43L507.35 630.32L506.12 631.16L504.86 631.95L503.57 632.69L502.24 633.38L500.89 634.02L499.51 634.6L498.11 635.13L496.68 635.6L495.22 636.01L493.75 636.36L492.25 636.65L490.74 636.88L489.2 637.04L487.65 637.14L486.08 637.18L67.56 637.18L66 637.14L64.44 637.04L62.91 636.88L61.39 636.65L59.9 636.36L58.42 636.01L56.97 635.6L55.54 635.13L54.13 634.6L52.76 634.02L51.4 633.38L50.08 632.69L48.79 631.95L47.52 631.16L46.29 630.32L45.1 629.43L43.93 628.49L42.8 627.51L41.71 626.48L40.66 625.41L39.65 624.3L38.68 623.15L37.75 621.96L36.86 620.73L36.02 619.47L35.22 618.17L34.47 616.84L33.76 615.47L33.11 614.07L32.51 612.65L31.96 611.19L31.46 609.71L31.01 608.2L30.62 606.66L30.29 605.11L30.02 603.53L29.8 601.93L29.64 600.31L29.55 598.67L29.52 597.01L29.52 54.78L29.55 53.13L29.64 51.49L29.8 49.87L30.02 48.27L30.29 46.69L30.62 45.13L31.01 43.6L31.46 42.09L31.96 40.6L32.51 39.15L33.11 37.72L33.76 36.32L34.47 34.96L35.22 33.62L36.02 32.33L36.86 31.06L37.75 29.83L38.68 28.64L39.65 27.49L40.66 26.38L41.71 25.31L42.8 24.29L43.93 23.3L45.1 22.37L46.29 21.48L47.52 20.63L48.79 19.84L50.08 19.1L51.4 18.41L52.76 17.77L54.13 17.19L55.54 16.66L56.97 16.19L58.42 15.78L59.9 15.43L61.39 15.14L62.91 14.91L64.44 14.75L66 14.65L67.56 14.62L486.08 14.62L487.65 14.65L489.2 14.75Z" id="d3r3k5xeJg"></path><path d="M192.85 597.01L67.56 464.75L67.56 54.78L486.08 54.78L486.08 597.01L192.85 597.01Z" id="f3MBqjwz4D"></path><path d="M67.56 464.75L192.85 464.75L192.85 597.01L67.56 464.75Z" id="b1YI1vchSi"></path><path d="M371.91 76.52L371.81 78.16L371.66 79.78L371.44 81.38L371.17 82.96L370.84 84.52L370.45 86.05L370 87.56L369.5 89.04L368.95 90.5L368.35 91.92L367.69 93.32L366.99 94.69L366.24 96.02L365.44 97.32L364.6 98.58L363.71 99.81L362.78 101L361.81 102.15L360.8 103.26L359.74 104.33L358.65 105.36L357.53 106.34L356.36 107.28L355.17 108.17L353.93 109.01L352.67 109.8L351.38 110.55L350.05 111.24L348.7 111.87L347.32 112.46L345.92 112.98L344.49 113.45L343.04 113.86L341.56 114.21L340.06 114.5L338.55 114.73L337.01 114.9L335.46 115L333.89 115.03L219.75 115.03L218.18 115L216.63 114.9L215.1 114.73L213.58 114.5L212.09 114.21L210.61 113.86L209.16 113.45L207.73 112.98L206.32 112.46L204.94 111.87L203.59 111.24L202.27 110.55L200.97 109.8L199.71 109.01L198.48 108.17L197.28 107.28L196.12 106.34L194.99 105.36L193.9 104.33L192.85 103.26L191.84 102.15L190.86 101L189.93 99.81L189.05 98.58L188.2 97.32L187.41 96.02L186.66 94.69L185.95 93.32L185.3 91.92L184.7 90.5L184.14 89.04L183.65 87.56L183.2 86.05L182.81 84.52L182.48 82.96L182.2 81.38L181.99 79.78L181.83 78.16L181.74 76.52L181.71 74.86L181.71 -5.47L371.94 -5.47L371.94 74.86L371.91 76.52Z" id="b2a7HZ3PCf"></path><path d="M392.52 155.26L393.29 155.34L394.05 155.46L394.8 155.6L395.54 155.78L396.26 155.98L396.98 156.22L397.68 156.48L398.37 156.77L399.04 157.09L399.71 157.44L400.35 157.81L400.98 158.2L401.6 158.62L402.2 159.07L402.78 159.54L403.34 160.03L403.89 160.54L404.42 161.08L404.92 161.63L405.41 162.21L405.87 162.8L406.32 163.42L406.74 164.05L407.14 164.7L407.51 165.37L407.86 166.05L408.19 166.75L408.49 167.46L408.77 168.19L409.02 168.93L409.24 169.68L409.44 170.45L409.6 171.23L409.74 172.02L409.85 172.82L409.92 173.63L409.97 174.45L409.99 175.28L409.97 176.1L409.92 176.92L409.85 177.73L409.74 178.53L409.6 179.32L409.44 180.1L409.24 180.87L409.02 181.62L408.77 182.37L408.49 183.09L408.19 183.81L407.86 184.51L407.51 185.19L407.14 185.86L406.74 186.51L406.32 187.14L405.87 187.75L405.41 188.35L404.92 188.92L404.42 189.48L403.89 190.01L403.34 190.53L402.78 191.02L402.2 191.48L401.6 191.93L400.98 192.35L400.35 192.75L399.71 193.12L399.04 193.46L398.37 193.78L397.68 194.07L396.98 194.34L396.26 194.57L395.54 194.78L394.8 194.95L394.05 195.1L393.29 195.21L392.52 195.29L391.75 195.34L390.96 195.36L238.78 195.36L237.99 195.34L237.22 195.29L236.45 195.21L235.69 195.1L234.94 194.95L234.2 194.78L233.48 194.57L232.76 194.34L232.06 194.07L231.37 193.78L230.7 193.46L230.03 193.12L229.39 192.75L228.76 192.35L228.14 191.93L227.54 191.48L226.96 191.02L226.4 190.53L225.85 190.01L225.32 189.48L224.82 188.92L224.33 188.35L223.87 187.75L223.42 187.14L223 186.51L222.6 185.86L222.23 185.19L221.88 184.51L221.55 183.81L221.25 183.09L220.97 182.37L220.72 181.62L220.5 180.87L220.31 180.1L220.14 179.32L220 178.53L219.89 177.73L219.82 176.92L219.77 176.1L219.75 175.28L219.77 174.45L219.82 173.63L219.89 172.82L220 172.02L220.14 171.23L220.31 170.45L220.5 169.68L220.72 168.93L220.97 168.19L221.25 167.46L221.55 166.75L221.88 166.05L222.23 165.37L222.6 164.7L223 164.05L223.42 163.42L223.87 162.8L224.33 162.21L224.82 161.63L225.32 161.08L225.85 160.54L226.4 160.03L226.96 159.54L227.54 159.07L228.14 158.62L228.76 158.2L229.39 157.81L230.03 157.44L230.7 157.09L231.37 156.77L232.06 156.48L232.76 156.22L233.48 155.98L234.2 155.78L234.94 155.6L235.69 155.46L236.45 155.34L237.22 155.26L237.99 155.21L238.78 155.19L390.96 155.19L391.75 155.21L392.52 155.26Z" id="b12S4s9jtA"></path><path d="M143.66 195.36L143.66 155.19L181.71 155.19L181.71 195.36L143.66 195.36Z" id="c1zJubZAHF"></path><path d="M143.66 275.69L143.66 235.52L181.71 235.52L181.71 275.69L143.66 275.69Z" id="b1j86xuGk"></path><path d="M143.66 356.02L143.66 315.86L181.71 315.86L181.71 356.02L143.66 356.02Z" id="bGHAjlxHd"></path><path d="M143.66 436.35L143.66 396.19L181.71 396.19L181.71 436.35L143.66 436.35Z" id="a4mIQqtzp"></path><path d="M354.48 235.59L355.24 235.67L356 235.79L356.75 235.93L357.49 236.11L358.22 236.31L358.93 236.55L359.63 236.81L360.32 237.1L361 237.42L361.66 237.77L362.31 238.14L362.94 238.53L363.55 238.95L364.15 239.4L364.73 239.87L365.3 240.36L365.84 240.87L366.37 241.41L366.88 241.96L367.36 242.54L367.83 243.13L368.27 243.75L368.69 244.38L369.09 245.03L369.47 245.7L369.82 246.38L370.14 247.08L370.45 247.79L370.72 248.52L370.97 249.26L371.19 250.01L371.39 250.78L371.55 251.56L371.69 252.35L371.8 253.15L371.88 253.96L371.93 254.78L371.94 255.61L371.93 256.44L371.88 257.25L371.8 258.06L371.69 258.86L371.55 259.65L371.39 260.43L371.19 261.2L370.97 261.95L370.72 262.7L370.45 263.42L370.14 264.14L369.82 264.84L369.47 265.52L369.09 266.19L368.69 266.84L368.27 267.47L367.83 268.08L367.36 268.68L366.88 269.25L366.37 269.81L365.84 270.34L365.3 270.86L364.73 271.35L364.15 271.82L363.55 272.26L362.94 272.68L362.31 273.08L361.66 273.45L361 273.79L360.32 274.11L359.63 274.4L358.93 274.67L358.22 274.9L357.49 275.11L356.75 275.28L356 275.43L355.24 275.54L354.48 275.62L353.7 275.67L352.92 275.69L238.78 275.69L237.99 275.67L237.22 275.62L236.45 275.54L235.69 275.43L234.94 275.28L234.2 275.11L233.48 274.9L232.76 274.67L232.06 274.4L231.37 274.11L230.7 273.79L230.03 273.45L229.39 273.08L228.76 272.68L228.14 272.26L227.54 271.82L226.96 271.35L226.4 270.86L225.85 270.34L225.32 269.81L224.82 269.25L224.33 268.68L223.87 268.08L223.42 267.47L223 266.84L222.6 266.19L222.23 265.52L221.88 264.84L221.55 264.14L221.25 263.42L220.97 262.7L220.72 261.95L220.5 261.2L220.31 260.43L220.14 259.65L220 258.86L219.89 258.06L219.82 257.25L219.77 256.44L219.75 255.61L219.77 254.78L219.82 253.96L219.89 253.15L220 252.35L220.14 251.56L220.31 250.78L220.5 250.01L220.72 249.26L220.97 248.52L221.25 247.79L221.55 247.08L221.88 246.38L222.23 245.7L222.6 245.03L223 244.38L223.42 243.75L223.87 243.13L224.33 242.54L224.82 241.96L225.32 241.41L225.85 240.87L226.4 240.36L226.96 239.87L227.54 239.4L228.14 238.95L228.76 238.53L229.39 238.14L230.03 237.77L230.7 237.42L231.37 237.1L232.06 236.81L232.76 236.55L233.48 236.31L234.2 236.11L234.94 235.93L235.69 235.79L236.45 235.67L237.22 235.59L237.99 235.54L238.78 235.52L352.92 235.52L353.7 235.54L354.48 235.59Z" id="a3cSkEp1Ou"></path><path d="M278.42 315.93L279.21 316.01L279.99 316.13L280.75 316.28L281.51 316.47L282.25 316.68L282.98 316.93L283.7 317.21L284.4 317.51L285.09 317.85L285.77 318.21L286.42 318.6L287.07 319.01L287.69 319.45L288.3 319.92L288.89 320.41L289.46 320.92L290.01 321.46L290.54 322.02L291.05 322.6L291.53 323.2L292 323.82L292.44 324.46L292.86 325.12L293.25 325.8L293.62 326.5L293.96 327.21L294.28 327.94L294.57 328.68L294.83 329.44L295.06 330.21L295.27 330.99L295.44 331.79L295.59 332.6L295.7 333.42L295.78 334.25L295.83 335.09L295.85 335.94L295.83 336.79L295.78 337.63L295.7 338.46L295.59 339.28L295.44 340.09L295.27 340.88L295.06 341.67L294.83 342.44L294.57 343.2L294.28 343.94L293.96 344.67L293.62 345.38L293.25 346.07L292.86 346.75L292.44 347.41L292 348.05L291.53 348.67L291.05 349.28L290.54 349.86L290.01 350.41L289.46 350.95L288.89 351.47L288.3 351.96L287.69 352.42L287.07 352.86L286.42 353.28L285.77 353.67L285.09 354.03L284.4 354.36L283.7 354.67L282.98 354.94L282.25 355.19L281.51 355.41L280.75 355.59L279.99 355.74L279.21 355.86L278.42 355.95L277.63 356L276.82 356.02L238.78 356.02L237.97 356L237.18 355.95L236.39 355.86L235.61 355.74L234.85 355.59L234.09 355.41L233.35 355.19L232.62 354.94L231.9 354.67L231.2 354.36L230.51 354.03L229.83 353.67L229.18 353.28L228.53 352.86L227.91 352.42L227.3 351.96L226.71 351.47L226.14 350.95L225.59 350.41L225.06 349.86L224.55 349.28L224.07 348.67L223.6 348.05L223.16 347.41L222.74 346.75L222.35 346.07L221.98 345.38L221.64 344.67L221.32 343.94L221.03 343.2L220.77 342.44L220.54 341.67L220.33 340.88L220.16 340.09L220.01 339.28L219.9 338.46L219.82 337.63L219.77 336.79L219.75 335.94L219.77 335.09L219.82 334.25L219.9 333.42L220.01 332.6L220.16 331.79L220.33 330.99L220.54 330.21L220.77 329.44L221.03 328.68L221.32 327.94L221.64 327.21L221.98 326.5L222.35 325.8L222.74 325.12L223.16 324.46L223.6 323.82L224.07 323.2L224.55 322.6L225.06 322.02L225.59 321.46L226.14 320.92L226.71 320.41L227.3 319.92L227.91 319.45L228.53 319.01L229.18 318.6L229.83 318.21L230.51 317.85L231.2 317.51L231.9 317.21L232.62 316.93L233.35 316.68L234.09 316.47L234.85 316.28L235.61 316.13L236.39 316.01L237.18 315.93L237.97 315.87L238.78 315.86L276.82 315.86L277.63 315.87L278.42 315.93Z" id="b39MF26Kdi"></path><path d="M466.5 285.34C374.29 285.34 299.55 365.22 299.55 463.76C299.55 562.3 374.29 642.19 466.5 642.19C558.7 642.19 633.44 562.3 633.44 463.76C633.44 365.22 558.7 285.34 466.5 285.34Z" id="a284zYimfB"></path><path d="M466.5 642.19C413.28 642.19 366.33 616.54 336.07 575.28C364.24 599.81 400.76 614.31 440.41 614.31C532.23 614.31 607.36 534.02 607.36 435.88C607.36 393.51 593.79 354.48 570.84 324.37C609.44 356.71 633.44 406.89 633.44 463.76C633.44 561.9 558.32 642.19 466.5 642.19Z" id="a6dLm5MUG"></path><path d="M519.71 545.17C516.16 541.38 498.42 522.42 466.5 488.3C434.57 522.42 416.83 541.38 413.28 545.17C407.02 551.86 396.59 551.86 390.33 545.17C384.07 538.48 384.07 527.33 390.33 520.64C393.87 516.84 411.61 497.89 443.54 463.76C411.61 429.64 393.87 410.68 390.33 406.89C384.07 400.2 384.07 389.05 390.33 382.36C396.59 375.67 407.02 375.67 413.28 382.36C416.83 386.15 434.57 405.11 466.5 439.23C498.42 405.11 516.16 386.15 519.71 382.36C525.97 375.67 536.4 375.67 542.66 382.36C548.92 389.05 548.92 400.2 542.66 406.89C539.12 410.68 521.38 429.64 489.45 463.76C521.38 497.89 539.12 516.84 542.66 520.64C548.92 527.33 548.92 538.48 542.66 545.17C536.4 551.86 525.97 551.86 519.71 545.17Z" id="g39GCOFJJu"></path></defs><g><g><g><use xlink:href="#d3r3k5xeJg" opacity="1" fill="#ecce93" fill-opacity="1"></use><g><use xlink:href="#d3r3k5xeJg" opacity="1" fill-opacity="0" stroke="#000000" stroke-width="1" stroke-opacity="0"></use></g></g><g><use xlink:href="#f3MBqjwz4D" opacity="1" fill="#efefef" fill-opacity="1"></use><g><use xlink:href="#f3MBqjwz4D" opacity="1" fill-opacity="0" stroke="#000000" stroke-width="1" stroke-opacity="0"></use></g></g><g><use xlink:href="#b1YI1vchSi" opacity="1" fill="#e76e54" fill-opacity="1"></use><g><use xlink:href="#b1YI1vchSi" opacity="1" fill-opacity="0" stroke="#000000" stroke-width="1" stroke-opacity="0"></use></g></g><g><use xlink:href="#b2a7HZ3PCf" opacity="1" fill="#e76e54" fill-opacity="1"></use><g><use xlink:href="#b2a7HZ3PCf" opacity="1" fill-opacity="0" stroke="#000000" stroke-width="1" stroke-opacity="0"></use></g></g><g><use xlink:href="#b12S4s9jtA" opacity="1" fill="#77959e" fill-opacity="1"></use><g><use xlink:href="#b12S4s9jtA" opacity="1" fill-opacity="0" stroke="#000000" stroke-width="1" stroke-opacity="0"></use></g></g><g><use xlink:href="#c1zJubZAHF" opacity="1" fill="#77959e" fill-opacity="1"></use><g><use xlink:href="#c1zJubZAHF" opacity="1" fill-opacity="0" stroke="#000000" stroke-width="1" stroke-opacity="0"></use></g></g><g><use xlink:href="#b1j86xuGk" opacity="1" fill="#77959e" fill-opacity="1"></use><g><use xlink:href="#b1j86xuGk" opacity="1" fill-opacity="0" stroke="#000000" stroke-width="1" stroke-opacity="0"></use></g></g><g><use xlink:href="#bGHAjlxHd" opacity="1" fill="#77959e" fill-opacity="1"></use><g><use xlink:href="#bGHAjlxHd" opacity="1" fill-opacity="0" stroke="#000000" stroke-width="1" stroke-opacity="0"></use></g></g><g><use xlink:href="#a4mIQqtzp" opacity="1" fill="#77959e" fill-opacity="1"></use><g><use xlink:href="#a4mIQqtzp" opacity="1" fill-opacity="0" stroke="#000000" stroke-width="1" stroke-opacity="0"></use></g></g><g><use xlink:href="#a3cSkEp1Ou" opacity="1" fill="#77959e" fill-opacity="1"></use><g><use xlink:href="#a3cSkEp1Ou" opacity="1" fill-opacity="0" stroke="#000000" stroke-width="1" stroke-opacity="0"></use></g></g><g><use xlink:href="#b39MF26Kdi" opacity="1" fill="#77959e" fill-opacity="1"></use><g><use xlink:href="#b39MF26Kdi" opacity="1" fill-opacity="0" stroke="#000000" stroke-width="1" stroke-opacity="0"></use></g></g><g><use xlink:href="#a284zYimfB" opacity="1" fill="#e24c4b" fill-opacity="1"></use><g><use xlink:href="#a284zYimfB" opacity="1" fill-opacity="0" stroke="#000000" stroke-width="1" stroke-opacity="0"></use></g></g><g><use xlink:href="#a6dLm5MUG" opacity="1" fill="#d1403f" fill-opacity="1"></use><g><use xlink:href="#a6dLm5MUG" opacity="1" fill-opacity="0" stroke="#000000" stroke-width="1" stroke-opacity="0"></use></g></g><g><use xlink:href="#g39GCOFJJu" opacity="1" fill="#ffffff" fill-opacity="1"></use><g><use xlink:href="#g39GCOFJJu" opacity="1" fill-opacity="0" stroke="#000000" stroke-width="1" stroke-opacity="0"></use></g></g></g></g></svg>