<?xml version="1.0" encoding="UTF-8" standalone="no"?>
<!DOCTYPE svg PUBLIC "-//W3C//DTD SVG 1.1//EN" "http://www.w3.org/Graphics/SVG/1.1/DTD/svg11.dtd">
<svg version="1.1" xmlns="http://www.w3.org/2000/svg" xmlns:xlink="http://www.w3.org/1999/xlink" preserveAspectRatio="xMidYMid meet" viewBox="0 0 640 640" width="640" height="640"><defs><path d="M546.59 246.43L414.44 246.43L414.44 485.95L630.96 485.95C630.96 421.26 630.96 385.33 630.96 378.14C615.81 325.78 607.39 296.69 605.71 290.87C598.09 264.55 573.99 246.43 546.59 246.43" id="b4RjcIxJP0"></path><path d="M546.59 246.43L414.44 246.43L414.44 485.95L630.96 485.95C630.96 421.26 630.96 385.33 630.96 378.14C615.81 325.78 607.39 296.69 605.71 290.87C598.09 264.55 573.99 246.43 546.59 246.43" id="cg0a6kgIq"></path><path d="M546.59 276.51C539.79 276.51 505.76 276.51 444.52 276.51C444.52 283.21 444.52 316.72 444.52 377.04C537.42 377.04 589.03 377.04 599.35 377.04C585.84 330.36 578.34 304.43 576.84 299.24C572.96 285.87 560.52 276.51 546.59 276.51Z" id="ewf7rUuNa"></path><path d="M546.59 276.51C539.79 276.51 505.76 276.51 444.52 276.51C444.52 283.21 444.52 316.72 444.52 377.04C537.42 377.04 589.03 377.04 599.35 377.04C585.84 330.36 578.34 304.43 576.84 299.24C572.96 285.87 560.52 276.51 546.59 276.51Z" id="a1WZmnTSZo"></path><path d="M444.47 276.47L599.37 377L444.47 377L444.47 276.47Z" id="coIkkfOvv"></path><path d="M444.47 276.47L599.37 377L444.47 377L444.47 276.47Z" id="b4L4lwcRJ"></path><path d="M546.59 276.51C539.79 276.51 505.76 276.51 444.52 276.51C460.01 286.56 583.87 366.99 599.35 377.04C585.84 330.36 578.34 304.43 576.84 299.24C572.96 285.87 560.52 276.51 546.59 276.51Z" id="l5C0YW06l"></path><path d="M546.59 276.51C539.79 276.51 505.76 276.51 444.52 276.51C460.01 286.56 583.87 366.99 599.35 377.04C585.84 330.36 578.34 304.43 576.84 299.24C572.96 285.87 560.52 276.51 546.59 276.51Z" id="a4b1hdH2vy"></path><path d="M41.09 126.19C241.1 126.19 352.22 126.19 374.44 126.19C396.52 126.19 414.44 144.09 414.44 166.19C414.44 187.5 414.44 294.08 414.44 485.93C373.11 485.93 42.43 485.93 1.09 485.93C1.09 294.08 1.09 187.5 1.09 166.19C1.09 144.1 18.99 126.19 41.09 126.19" id="a2olB8sWQ"></path><path d="M41.09 126.19C241.1 126.19 352.22 126.19 374.44 126.19C396.52 126.19 414.44 144.09 414.44 166.19C414.44 187.5 414.44 294.08 414.44 485.93C373.11 485.93 42.43 485.93 1.09 485.93C1.09 294.08 1.09 187.5 1.09 166.19C1.09 144.1 18.99 126.19 41.09 126.19" id="c1nGOqf21M"></path><path d="M1.14 531.12C1.14 504 1.14 488.93 1.14 485.92C41.22 485.92 63.49 485.92 67.94 485.92C83.54 457.92 113.53 438.99 147.93 438.99C182.19 438.99 212.19 457.92 227.92 485.92C249.42 485.92 421.35 485.92 442.84 485.92C458.44 457.92 488.29 438.99 522.69 438.99C557.08 438.99 586.95 457.92 602.68 485.92C605.24 485.92 618.04 485.92 641.09 485.92C641.09 488.93 641.09 504 641.09 531.12L1.14 531.12Z" id="ac88Q6jn"></path><path d="M1.14 531.12C1.14 504 1.14 488.93 1.14 485.92C41.22 485.92 63.49 485.92 67.94 485.92C83.54 457.92 113.53 438.99 147.93 438.99C182.19 438.99 212.19 457.92 227.92 485.92C249.42 485.92 421.35 485.92 442.84 485.92C458.44 457.92 488.29 438.99 522.69 438.99C557.08 438.99 586.95 457.92 602.68 485.92C605.24 485.92 618.04 485.92 641.09 485.92C641.09 488.93 641.09 504 641.09 531.12L1.14 531.12Z" id="a1LBbJBeU"></path><path d="M586.56 530.84C586.56 566.11 557.96 594.71 522.69 594.71C487.41 594.71 458.84 566.11 458.84 530.84C458.84 495.56 487.42 466.96 522.69 466.96C557.98 466.96 586.56 495.56 586.56 530.84" id="c6v2e7CXhX"></path><path d="M586.56 530.84C586.56 566.11 557.96 594.71 522.69 594.71C487.41 594.71 458.84 566.11 458.84 530.84C458.84 495.56 487.42 466.96 522.69 466.96C557.98 466.96 586.56 495.56 586.56 530.84" id="f1uSvHx8y8"></path><path d="M548.36 530.84C548.36 545.01 536.87 556.49 522.71 556.49C508.54 556.49 497.03 545.01 497.03 530.84C497.03 516.66 508.53 505.18 522.71 505.18C536.87 505.17 548.36 516.66 548.36 530.84" id="f88lkiGhM"></path><path d="M548.36 530.84C548.36 545.01 536.87 556.49 522.71 556.49C508.54 556.49 497.03 545.01 497.03 530.84C497.03 516.66 508.53 505.18 522.71 505.18C536.87 505.17 548.36 516.66 548.36 530.84" id="d8TNY0yrN8"></path><path d="M211.75 530.84C211.75 566.11 183.14 594.71 147.88 594.71C112.6 594.71 84 566.11 84 530.84C84 495.56 112.6 466.96 147.88 466.96C183.14 466.96 211.75 495.56 211.75 530.84" id="dq9M2TjyI"></path><path d="M211.75 530.84C211.75 566.11 183.14 594.71 147.88 594.71C112.6 594.71 84 566.11 84 530.84C84 495.56 112.6 466.96 147.88 466.96C183.14 466.96 211.75 495.56 211.75 530.84" id="eAY4rWcU5"></path><path d="M174.62 530.84C174.62 545.01 163.14 556.49 148.97 556.49C134.8 556.49 123.31 545.01 123.31 530.84C123.31 516.66 134.8 505.18 148.97 505.18C163.14 505.18 174.62 516.66 174.62 530.84" id="b1WaJEG61"></path><path d="M174.62 530.84C174.62 545.01 163.14 556.49 148.97 556.49C134.8 556.49 123.31 545.01 123.31 530.84C123.31 516.66 134.8 505.18 148.97 505.18C163.14 505.18 174.62 516.66 174.62 530.84" id="a5LW2IQgey"></path><path d="M269.7 37.79L270.54 37.88L271.38 38.01L272.2 38.18L273.02 38.38L273.82 38.61L274.61 38.88L275.38 39.18L276.14 39.51L276.88 39.88L277.61 40.27L278.33 40.7L279.02 41.15L279.7 41.63L280.36 42.14L281 42.67L281.62 43.24L282.22 43.82L282.8 44.43L283.36 45.07L283.9 45.72L284.41 46.4L284.9 47.11L285.36 47.83L285.8 48.57L286.22 49.33L286.6 50.11L286.96 50.91L287.3 51.73L287.6 52.56L287.88 53.41L288.12 54.27L288.33 55.14L288.52 56.03L288.67 56.94L288.79 57.85L288.87 58.78L288.93 59.71L288.94 60.66L288.94 370.44L288.93 371.38L288.87 372.32L288.79 373.24L288.67 374.16L288.52 375.06L288.33 375.95L288.12 376.83L287.88 377.69L287.6 378.54L287.3 379.37L286.96 380.18L286.6 380.98L286.22 381.76L285.8 382.52L285.36 383.27L284.9 383.99L284.41 384.69L283.9 385.37L283.36 386.03L282.8 386.66L282.22 387.27L281.62 387.86L281 388.42L280.36 388.96L279.7 389.46L279.02 389.94L278.33 390.4L277.61 390.82L276.88 391.22L276.14 391.58L275.38 391.91L274.61 392.21L273.82 392.48L273.02 392.72L272.2 392.92L271.38 393.08L270.54 393.21L269.7 393.31L268.84 393.36L267.98 393.38L37.36 393.38L36.5 393.36L35.64 393.31L34.8 393.21L33.96 393.08L33.14 392.92L32.33 392.72L31.53 392.48L30.74 392.21L29.96 391.91L29.2 391.58L28.46 391.22L27.73 390.82L27.02 390.4L26.32 389.94L25.64 389.46L24.98 388.96L24.34 388.42L23.72 387.86L23.12 387.27L22.54 386.66L21.98 386.03L21.45 385.37L20.93 384.69L20.44 383.99L19.98 383.27L19.54 382.52L19.13 381.76L18.74 380.98L18.38 380.18L18.05 379.37L17.74 378.54L17.47 377.69L17.22 376.83L17.01 375.95L16.82 375.06L16.67 374.16L16.55 373.24L16.47 372.32L16.42 371.38L16.4 370.44L16.4 60.66L16.42 59.71L16.47 58.78L16.55 57.85L16.67 56.94L16.82 56.03L17.01 55.14L17.22 54.27L17.47 53.41L17.74 52.56L18.05 51.73L18.38 50.91L18.74 50.11L19.13 49.33L19.54 48.57L19.98 47.83L20.44 47.11L20.93 46.4L21.45 45.72L21.98 45.07L22.54 44.43L23.12 43.82L23.72 43.24L24.34 42.67L24.98 42.14L25.64 41.63L26.32 41.15L27.02 40.7L27.73 40.27L28.46 39.88L29.2 39.51L29.96 39.18L30.74 38.88L31.53 38.61L32.33 38.38L33.14 38.18L33.96 38.01L34.8 37.88L35.64 37.79L36.5 37.73L37.36 37.71L267.98 37.71L268.84 37.73L269.7 37.79Z" id="a16TaLBdMY"></path><path d="M106.4 370.44L37.36 294.87L37.36 60.66L267.98 60.66L267.98 370.44L106.4 370.44Z" id="b3EzXEwoo8"></path><path d="M37.36 294.87L106.4 294.87L106.4 370.44L37.36 294.87Z" id="eas5cF5NS"></path><path d="M205.07 73.08L205.01 74.01L204.93 74.94L204.81 75.85L204.66 76.76L204.47 77.65L204.26 78.52L204.02 79.38L203.74 80.23L203.44 81.06L203.1 81.88L202.74 82.68L202.36 83.46L201.94 84.22L201.5 84.96L201.04 85.68L200.55 86.38L200.04 87.06L199.5 87.72L198.94 88.36L198.36 88.97L197.76 89.55L197.14 90.11L196.5 90.65L195.84 91.16L195.16 91.64L194.47 92.09L193.75 92.52L193.02 92.91L192.28 93.27L191.52 93.61L190.75 93.91L189.96 94.18L189.16 94.41L188.34 94.61L187.52 94.78L186.68 94.91L185.84 95L184.98 95.06L184.12 95.08L121.22 95.08L120.36 95.06L119.5 95L118.66 94.91L117.82 94.78L117 94.61L116.19 94.41L115.39 94.18L114.6 93.91L113.82 93.61L113.06 93.27L112.32 92.91L111.59 92.52L110.88 92.09L110.18 91.64L109.5 91.16L108.84 90.65L108.2 90.11L107.58 89.55L106.98 88.97L106.4 88.36L105.84 87.72L105.31 87.06L104.79 86.38L104.3 85.68L103.84 84.96L103.4 84.22L102.99 83.46L102.6 82.68L102.24 81.88L101.91 81.06L101.6 80.23L101.33 79.38L101.08 78.52L100.87 77.65L100.68 76.76L100.53 75.85L100.41 74.94L100.33 74.01L100.28 73.08L100.26 72.13L100.26 26.24L205.08 26.24L205.08 72.13L205.07 73.08Z" id="i6bOTu5w7H"></path><path d="M216.43 118.06L216.85 118.11L217.27 118.17L217.68 118.26L218.09 118.36L218.49 118.47L218.88 118.61L219.27 118.76L219.65 118.93L220.02 119.11L220.38 119.3L220.74 119.52L221.09 119.74L221.43 119.98L221.76 120.24L222.08 120.51L222.39 120.79L222.69 121.08L222.98 121.38L223.26 121.7L223.53 122.03L223.78 122.37L224.03 122.72L224.26 123.08L224.48 123.45L224.69 123.83L224.88 124.22L225.06 124.62L225.23 125.03L225.38 125.45L225.51 125.87L225.64 126.3L225.74 126.74L225.84 127.19L225.91 127.64L225.97 128.09L226.01 128.56L226.04 129.02L226.05 129.5L226.04 129.97L226.01 130.44L225.97 130.9L225.91 131.36L225.84 131.81L225.74 132.25L225.64 132.69L225.51 133.12L225.38 133.55L225.23 133.96L225.06 134.37L224.88 134.77L224.69 135.16L224.48 135.54L224.26 135.91L224.03 136.27L223.78 136.62L223.53 136.96L223.26 137.29L222.98 137.61L222.69 137.92L222.39 138.21L222.08 138.49L221.76 138.76L221.43 139.01L221.09 139.25L220.74 139.48L220.38 139.69L220.02 139.89L219.65 140.07L219.27 140.24L218.88 140.39L218.49 140.52L218.09 140.64L217.68 140.74L217.27 140.82L216.85 140.89L216.43 140.93L216 140.96L215.57 140.97L131.71 140.97L131.27 140.96L130.85 140.93L130.42 140.89L130.01 140.82L129.59 140.74L129.19 140.64L128.79 140.52L128.39 140.39L128.01 140.24L127.63 140.07L127.25 139.89L126.89 139.69L126.53 139.48L126.18 139.25L125.85 139.01L125.52 138.76L125.2 138.49L124.88 138.21L124.58 137.92L124.29 137.61L124.02 137.29L123.75 136.96L123.49 136.62L123.25 136.27L123.01 135.91L122.79 135.54L122.59 135.16L122.39 134.77L122.21 134.37L122.05 133.96L121.9 133.55L121.76 133.12L121.64 132.69L121.53 132.25L121.44 131.81L121.36 131.36L121.3 130.9L121.26 130.44L121.23 129.97L121.22 129.5L121.23 129.02L121.26 128.56L121.3 128.09L121.36 127.64L121.44 127.19L121.53 126.74L121.64 126.3L121.76 125.87L121.9 125.45L122.05 125.03L122.21 124.62L122.39 124.22L122.59 123.83L122.79 123.45L123.01 123.08L123.25 122.72L123.49 122.37L123.75 122.03L124.02 121.7L124.29 121.38L124.58 121.08L124.88 120.79L125.2 120.51L125.52 120.24L125.85 119.98L126.18 119.74L126.53 119.52L126.89 119.3L127.25 119.11L127.63 118.93L128.01 118.76L128.39 118.61L128.79 118.47L129.19 118.36L129.59 118.26L130.01 118.17L130.42 118.11L130.85 118.06L131.27 118.03L131.71 118.02L215.57 118.02L216 118.03L216.43 118.06Z" id="c2mMeSbgUc"></path><path d="M79.29 140.97L79.29 118.02L100.26 118.02L100.26 140.97L79.29 140.97Z" id="blzyLVSHa"></path><path d="M79.29 186.86L79.29 163.92L100.26 163.92L100.26 186.86L79.29 186.86Z" id="cymWpYYTw"></path><path d="M79.29 232.76L79.29 209.81L100.26 209.81L100.26 232.76L79.29 232.76Z" id="c6aAmdmnl"></path><path d="M79.29 278.65L79.29 255.7L100.26 255.7L100.26 278.65L79.29 278.65Z" id="caFEul93ry"></path><path d="M195.51 163.96L195.95 164.01L196.39 164.08L196.82 164.18L197.25 164.29L197.67 164.42L198.08 164.56L198.48 164.73L198.88 164.91L199.27 165.11L199.64 165.33L200.01 165.56L200.37 165.81L200.72 166.08L201.06 166.36L201.39 166.65L201.71 166.96L202.01 167.28L202.31 167.61L202.59 167.96L202.86 168.32L203.11 168.69L203.35 169.07L203.58 169.47L203.79 169.87L203.99 170.29L204.17 170.71L204.34 171.14L204.49 171.58L204.63 172.04L204.75 172.49L204.85 172.96L204.93 173.43L205 173.91L205.05 174.4L205.07 174.89L205.08 175.39L205.07 175.89L205.05 176.38L205 176.87L204.93 177.35L204.85 177.82L204.75 178.29L204.63 178.75L204.49 179.2L204.34 179.64L204.17 180.07L203.99 180.5L203.79 180.91L203.58 181.31L203.35 181.71L203.11 182.09L202.86 182.46L202.59 182.82L202.31 183.17L202.01 183.5L201.71 183.82L201.39 184.13L201.06 184.43L200.72 184.7L200.37 184.97L200.01 185.22L199.64 185.45L199.27 185.67L198.88 185.87L198.48 186.05L198.08 186.22L197.67 186.37L197.25 186.5L196.82 186.61L196.39 186.7L195.95 186.77L195.51 186.82L195.06 186.85L194.6 186.86L131.71 186.86L131.25 186.85L130.8 186.82L130.36 186.77L129.92 186.7L129.49 186.61L129.06 186.5L128.64 186.37L128.23 186.22L127.83 186.05L127.43 185.87L127.04 185.67L126.66 185.45L126.29 185.22L125.93 184.97L125.58 184.7L125.25 184.43L124.92 184.13L124.6 183.82L124.29 183.5L124 183.17L123.72 182.82L123.45 182.46L123.2 182.09L122.96 181.71L122.73 181.31L122.51 180.91L122.32 180.5L122.13 180.07L121.97 179.64L121.81 179.2L121.68 178.75L121.56 178.29L121.46 177.82L121.38 177.35L121.31 176.87L121.26 176.38L121.23 175.89L121.22 175.39L121.23 174.89L121.26 174.4L121.31 173.91L121.38 173.43L121.46 172.96L121.56 172.49L121.68 172.04L121.81 171.58L121.97 171.14L122.13 170.71L122.32 170.29L122.51 169.87L122.73 169.47L122.96 169.07L123.2 168.69L123.45 168.32L123.72 167.96L124 167.61L124.29 167.28L124.6 166.96L124.92 166.65L125.25 166.36L125.58 166.08L125.93 165.81L126.29 165.56L126.66 165.33L127.04 165.11L127.43 164.91L127.83 164.73L128.23 164.56L128.64 164.42L129.06 164.29L129.49 164.18L129.92 164.08L130.36 164.01L130.8 163.96L131.25 163.93L131.71 163.92L194.6 163.92L195.06 163.93L195.51 163.96Z" id="b1woi2l97Z"></path><path d="M154.22 209.93L154.97 210.09L155.7 210.3L156.41 210.56L157.09 210.88L157.75 211.24L158.38 211.66L158.98 212.12L159.55 212.62L160.08 213.17L160.58 213.76L161.04 214.38L161.47 215.04L161.84 215.73L162.18 216.45L162.47 217.2L162.71 217.97L162.9 218.77L163.04 219.59L163.13 220.43L163.15 221.28L163.13 222.14L163.04 222.98L162.9 223.8L162.71 224.6L162.47 225.37L162.18 226.12L161.84 226.84L161.47 227.53L161.04 228.19L160.58 228.81L160.08 229.4L159.55 229.94L158.98 230.45L158.38 230.91L157.75 231.32L157.09 231.69L156.41 232.01L155.7 232.27L154.97 232.48L154.22 232.63L153.45 232.73L152.67 232.76L131.71 232.76L130.92 232.73L130.16 232.63L129.41 232.48L128.68 232.27L127.97 232.01L127.29 231.69L126.63 231.32L126 230.91L125.4 230.45L124.83 229.94L124.29 229.4L123.8 228.81L123.33 228.19L122.91 227.53L122.53 226.84L122.2 226.12L121.91 225.37L121.67 224.6L121.48 223.8L121.34 222.98L121.25 222.14L121.22 221.28L121.25 220.43L121.34 219.59L121.48 218.77L121.67 217.97L121.91 217.2L122.2 216.45L122.53 215.73L122.91 215.04L123.33 214.38L123.8 213.76L124.29 213.17L124.83 212.62L125.4 212.12L126 211.66L126.63 211.24L127.29 210.88L127.97 210.56L128.68 210.3L129.41 210.09L130.16 209.93L130.92 209.84L131.71 209.81L152.67 209.81L153.45 209.84L154.22 209.93Z" id="n17nY810Lq"></path><path d="M273.89 188.04C211.98 188.04 161.8 240.19 161.8 304.52C161.8 368.85 211.98 421 273.89 421C335.79 421 385.97 368.85 385.97 304.52C385.97 240.19 335.79 188.04 273.89 188.04Z" id="aHshU5tRT"></path><path d="M309.53 362.04C307.16 359.56 295.35 347.18 274.08 324.91C252.82 347.18 241.01 359.56 238.64 362.04C234.47 366.4 227.52 366.4 223.35 362.04C219.18 357.67 219.18 350.39 223.35 346.02C225.72 343.54 237.53 331.17 258.8 308.89C237.53 286.62 225.72 274.24 223.35 271.76C219.18 267.4 219.18 260.12 223.35 255.75C227.52 251.38 234.47 251.38 238.64 255.75C241.01 258.22 252.82 270.6 274.08 292.88C295.35 270.6 307.16 258.22 309.53 255.75C313.7 251.38 320.65 251.38 324.81 255.75C328.98 260.12 328.98 267.4 324.81 271.76C322.45 274.24 310.64 286.62 289.37 308.89C310.64 331.17 322.45 343.54 324.81 346.02C328.98 350.39 328.98 357.67 324.81 362.04C320.65 366.4 313.7 366.4 309.53 362.04Z" id="cXUxBEVcY"></path></defs><g><g><g><use xlink:href="#b4RjcIxJP0" opacity="1" fill="#3894bd" fill-opacity="1"></use><g><use xlink:href="#b4RjcIxJP0" opacity="1" fill-opacity="0" stroke="#000000" stroke-width="1" stroke-opacity="0"></use></g></g><g><use xlink:href="#cg0a6kgIq" opacity="1" fill="#000000" fill-opacity="0"></use><g><use xlink:href="#cg0a6kgIq" opacity="1" fill-opacity="0" stroke="#000000" stroke-width="1" stroke-opacity="0"></use></g></g><g><use xlink:href="#ewf7rUuNa" opacity="1" fill="#84dbff" fill-opacity="1"></use><g><use xlink:href="#ewf7rUuNa" opacity="1" fill-opacity="0" stroke="#000000" stroke-width="1" stroke-opacity="0"></use></g></g><g><use xlink:href="#a1WZmnTSZo" opacity="1" fill="#000000" fill-opacity="0"></use><g><use xlink:href="#a1WZmnTSZo" opacity="1" fill-opacity="0" stroke="#000000" stroke-width="1" stroke-opacity="0"></use></g></g><g><use xlink:href="#coIkkfOvv" opacity="1" fill="#cdd6e0" fill-opacity="1"></use><g><use xlink:href="#coIkkfOvv" opacity="1" fill-opacity="0" stroke="#000000" stroke-width="1" stroke-opacity="0"></use></g></g><g><use xlink:href="#b4L4lwcRJ" opacity="1" fill="#000000" fill-opacity="0"></use><g><use xlink:href="#b4L4lwcRJ" opacity="1" fill-opacity="0" stroke="#000000" stroke-width="1" stroke-opacity="0"></use></g></g><g><use xlink:href="#l5C0YW06l" opacity="1" fill="#f2f2f2" fill-opacity="1"></use><g><use xlink:href="#l5C0YW06l" opacity="1" fill-opacity="0" stroke="#000000" stroke-width="1" stroke-opacity="0"></use></g></g><g><use xlink:href="#a4b1hdH2vy" opacity="1" fill="#000000" fill-opacity="0"></use><g><use xlink:href="#a4b1hdH2vy" opacity="1" fill-opacity="0" stroke="#000000" stroke-width="1" stroke-opacity="0"></use></g></g><g><use xlink:href="#a2olB8sWQ" opacity="1" fill="#186f8a" fill-opacity="1"></use><g><use xlink:href="#a2olB8sWQ" opacity="1" fill-opacity="0" stroke="#000000" stroke-width="1" stroke-opacity="0"></use></g></g><g><use xlink:href="#c1nGOqf21M" opacity="1" fill="#000000" fill-opacity="0"></use><g><use xlink:href="#c1nGOqf21M" opacity="1" fill-opacity="0" stroke="#000000" stroke-width="1" stroke-opacity="0"></use></g></g><g><use xlink:href="#ac88Q6jn" opacity="1" fill="#334a5e" fill-opacity="1"></use><g><use xlink:href="#ac88Q6jn" opacity="1" fill-opacity="0" stroke="#000000" stroke-width="1" stroke-opacity="0"></use></g></g><g><use xlink:href="#a1LBbJBeU" opacity="1" fill="#000000" fill-opacity="0"></use><g><use xlink:href="#a1LBbJBeU" opacity="1" fill-opacity="0" stroke="#000000" stroke-width="1" stroke-opacity="0"></use></g></g><g><use xlink:href="#c6v2e7CXhX" opacity="1" fill="#40596b" fill-opacity="1"></use><g><use xlink:href="#c6v2e7CXhX" opacity="1" fill-opacity="0" stroke="#000000" stroke-width="1" stroke-opacity="0"></use></g></g><g><use xlink:href="#f1uSvHx8y8" opacity="1" fill="#000000" fill-opacity="0"></use><g><use xlink:href="#f1uSvHx8y8" opacity="1" fill-opacity="0" stroke="#000000" stroke-width="1" stroke-opacity="0"></use></g></g><g><use xlink:href="#f88lkiGhM" opacity="1" fill="#acb3ba" fill-opacity="1"></use><g><use xlink:href="#f88lkiGhM" opacity="1" fill-opacity="0" stroke="#000000" stroke-width="1" stroke-opacity="0"></use></g></g><g><use xlink:href="#d8TNY0yrN8" opacity="1" fill="#000000" fill-opacity="0"></use><g><use xlink:href="#d8TNY0yrN8" opacity="1" fill-opacity="0" stroke="#000000" stroke-width="1" stroke-opacity="0"></use></g></g><g><use xlink:href="#dq9M2TjyI" opacity="1" fill="#40596b" fill-opacity="1"></use><g><use xlink:href="#dq9M2TjyI" opacity="1" fill-opacity="0" stroke="#000000" stroke-width="1" stroke-opacity="0"></use></g></g><g><use xlink:href="#eAY4rWcU5" opacity="1" fill="#000000" fill-opacity="0"></use><g><use xlink:href="#eAY4rWcU5" opacity="1" fill-opacity="0" stroke="#000000" stroke-width="1" stroke-opacity="0"></use></g></g><g><use xlink:href="#b1WaJEG61" opacity="1" fill="#acb3ba" fill-opacity="1"></use><g><use xlink:href="#b1WaJEG61" opacity="1" fill-opacity="0" stroke="#000000" stroke-width="1" stroke-opacity="0"></use></g></g><g><use xlink:href="#a5LW2IQgey" opacity="1" fill="#000000" fill-opacity="0"></use><g><use xlink:href="#a5LW2IQgey" opacity="1" fill-opacity="0" stroke="#000000" stroke-width="1" stroke-opacity="0"></use></g></g><g><use xlink:href="#a16TaLBdMY" opacity="1" fill="#ecce93" fill-opacity="1"></use><g><use xlink:href="#a16TaLBdMY" opacity="1" fill-opacity="0" stroke="#000000" stroke-width="1" stroke-opacity="0"></use></g></g><g><use xlink:href="#b3EzXEwoo8" opacity="1" fill="#efefef" fill-opacity="1"></use><g><use xlink:href="#b3EzXEwoo8" opacity="1" fill-opacity="0" stroke="#000000" stroke-width="1" stroke-opacity="0"></use></g></g><g><use xlink:href="#eas5cF5NS" opacity="1" fill="#e76e54" fill-opacity="1"></use><g><use xlink:href="#eas5cF5NS" opacity="1" fill-opacity="0" stroke="#000000" stroke-width="1" stroke-opacity="0"></use></g></g><g><use xlink:href="#i6bOTu5w7H" opacity="1" fill="#e76e54" fill-opacity="1"></use><g><use xlink:href="#i6bOTu5w7H" opacity="1" fill-opacity="0" stroke="#000000" stroke-width="1" stroke-opacity="0"></use></g></g><g><use xlink:href="#c2mMeSbgUc" opacity="1" fill="#77959e" fill-opacity="1"></use><g><use xlink:href="#c2mMeSbgUc" opacity="1" fill-opacity="0" stroke="#000000" stroke-width="1" stroke-opacity="0"></use></g></g><g><use xlink:href="#blzyLVSHa" opacity="1" fill="#77959e" fill-opacity="1"></use><g><use xlink:href="#blzyLVSHa" opacity="1" fill-opacity="0" stroke="#000000" stroke-width="1" stroke-opacity="0"></use></g></g><g><use xlink:href="#cymWpYYTw" opacity="1" fill="#77959e" fill-opacity="1"></use><g><use xlink:href="#cymWpYYTw" opacity="1" fill-opacity="0" stroke="#000000" stroke-width="1" stroke-opacity="0"></use></g></g><g><use xlink:href="#c6aAmdmnl" opacity="1" fill="#77959e" fill-opacity="1"></use><g><use xlink:href="#c6aAmdmnl" opacity="1" fill-opacity="0" stroke="#000000" stroke-width="1" stroke-opacity="0"></use></g></g><g><use xlink:href="#caFEul93ry" opacity="1" fill="#77959e" fill-opacity="1"></use><g><use xlink:href="#caFEul93ry" opacity="1" fill-opacity="0" stroke="#000000" stroke-width="1" stroke-opacity="0"></use></g></g><g><use xlink:href="#b1woi2l97Z" opacity="1" fill="#77959e" fill-opacity="1"></use><g><use xlink:href="#b1woi2l97Z" opacity="1" fill-opacity="0" stroke="#000000" stroke-width="1" stroke-opacity="0"></use></g></g><g><use xlink:href="#n17nY810Lq" opacity="1" fill="#77959e" fill-opacity="1"></use><g><use xlink:href="#n17nY810Lq" opacity="1" fill-opacity="0" stroke="#000000" stroke-width="1" stroke-opacity="0"></use></g></g><g><use xlink:href="#aHshU5tRT" opacity="1" fill="#e24c4b" fill-opacity="1"></use><g><use xlink:href="#aHshU5tRT" opacity="1" fill-opacity="0" stroke="#000000" stroke-width="1" stroke-opacity="0"></use></g></g><g><use xlink:href="#cXUxBEVcY" opacity="1" fill="#ffffff" fill-opacity="1"></use><g><use xlink:href="#cXUxBEVcY" opacity="1" fill-opacity="0" stroke="#000000" stroke-width="1" stroke-opacity="0"></use></g></g></g></g></svg>