<?xml version="1.0" encoding="UTF-8" standalone="no"?>
<!DOCTYPE svg PUBLIC "-//W3C//DTD SVG 1.1//EN" "http://www.w3.org/Graphics/SVG/1.1/DTD/svg11.dtd">
<svg version="1.1" xmlns="http://www.w3.org/2000/svg" xmlns:xlink="http://www.w3.org/1999/xlink" preserveAspectRatio="xMidYMid meet" viewBox="0 0 640 640" width="640" height="640"><defs><path d="M523.54 14.91L525.05 15.14L526.55 15.43L528.02 15.78L529.48 16.19L530.91 16.66L532.31 17.19L533.69 17.77L535.04 18.41L536.37 19.1L537.66 19.84L538.92 20.63L540.15 21.48L541.35 22.37L542.51 23.3L543.64 24.29L544.73 25.31L545.78 26.38L546.8 27.49L547.77 28.64L548.7 29.83L549.59 31.06L550.43 32.33L551.23 33.62L551.98 34.96L552.68 36.32L553.34 37.72L553.94 39.15L554.49 40.6L554.99 42.09L555.43 43.6L555.82 45.13L556.16 46.69L556.43 48.27L556.65 49.87L556.8 51.49L556.9 53.13L556.93 54.78L556.93 597.01L556.9 598.67L556.8 600.31L556.65 601.93L556.43 603.53L556.16 605.11L555.82 606.66L555.43 608.2L554.99 609.71L554.49 611.19L553.94 612.65L553.34 614.07L552.68 615.47L551.98 616.84L551.23 618.17L550.43 619.47L549.59 620.73L548.7 621.96L547.77 623.15L546.8 624.3L545.78 625.41L544.73 626.48L543.64 627.51L542.51 628.49L541.35 629.43L540.15 630.32L538.92 631.16L537.66 631.95L536.37 632.69L535.04 633.38L533.69 634.02L532.31 634.6L530.91 635.13L529.48 635.6L528.02 636.01L526.55 636.36L525.05 636.65L523.54 636.88L522 637.04L520.45 637.14L518.88 637.18L100.36 637.18L98.8 637.14L97.24 637.04L95.71 636.88L94.19 636.65L92.7 636.36L91.22 636.01L89.77 635.6L88.34 635.13L86.93 634.6L85.56 634.02L84.2 633.38L82.88 632.69L81.59 631.95L80.32 631.16L79.09 630.32L77.9 629.43L76.73 628.49L75.6 627.51L74.51 626.48L73.46 625.41L72.45 624.3L71.48 623.15L70.55 621.96L69.66 620.73L68.82 619.47L68.02 618.17L67.27 616.84L66.56 615.47L65.91 614.07L65.31 612.65L64.76 611.19L64.26 609.71L63.81 608.2L63.42 606.66L63.09 605.11L62.82 603.53L62.6 601.93L62.44 600.31L62.35 598.67L62.32 597.01L62.32 54.78L62.35 53.13L62.44 51.49L62.6 49.87L62.82 48.27L63.09 46.69L63.42 45.13L63.81 43.6L64.26 42.09L64.76 40.6L65.31 39.15L65.91 37.72L66.56 36.32L67.27 34.96L68.02 33.62L68.82 32.33L69.66 31.06L70.55 29.83L71.48 28.64L72.45 27.49L73.46 26.38L74.51 25.31L75.6 24.29L76.73 23.3L77.9 22.37L79.09 21.48L80.32 20.63L81.59 19.84L82.88 19.1L84.2 18.41L85.56 17.77L86.93 17.19L88.34 16.66L89.77 16.19L91.22 15.78L92.7 15.43L94.19 15.14L95.71 14.91L97.24 14.75L98.8 14.65L100.36 14.62L518.88 14.62L520.45 14.65L522 14.75L523.54 14.91Z" id="c5zCQqn1XD"></path><path d="M523.54 14.91L525.05 15.14L526.55 15.43L528.02 15.78L529.48 16.19L530.91 16.66L532.31 17.19L533.69 17.77L535.04 18.41L536.37 19.1L537.66 19.84L538.92 20.63L540.15 21.48L541.35 22.37L542.51 23.3L543.64 24.29L544.73 25.31L545.78 26.38L546.8 27.49L547.77 28.64L548.7 29.83L549.59 31.06L550.43 32.33L551.23 33.62L551.98 34.96L552.68 36.32L553.34 37.72L553.94 39.15L554.49 40.6L554.99 42.09L555.43 43.6L555.82 45.13L556.16 46.69L556.43 48.27L556.65 49.87L556.8 51.49L556.9 53.13L556.93 54.78L556.93 597.01L556.9 598.67L556.8 600.31L556.65 601.93L556.43 603.53L556.16 605.11L555.82 606.66L555.43 608.2L554.99 609.71L554.49 611.19L553.94 612.65L553.34 614.07L552.68 615.47L551.98 616.84L551.23 618.17L550.43 619.47L549.59 620.73L548.7 621.96L547.77 623.15L546.8 624.3L545.78 625.41L544.73 626.48L543.64 627.51L542.51 628.49L541.35 629.43L540.15 630.32L538.92 631.16L537.66 631.95L536.37 632.69L535.04 633.38L533.69 634.02L532.31 634.6L530.91 635.13L529.48 635.6L528.02 636.01L526.55 636.36L525.05 636.65L523.54 636.88L522 637.04L520.45 637.14L518.88 637.18L100.36 637.18L98.8 637.14L97.24 637.04L95.71 636.88L94.19 636.65L92.7 636.36L91.22 636.01L89.77 635.6L88.34 635.13L86.93 634.6L85.56 634.02L84.2 633.38L82.88 632.69L81.59 631.95L80.32 631.16L79.09 630.32L77.9 629.43L76.73 628.49L75.6 627.51L74.51 626.48L73.46 625.41L72.45 624.3L71.48 623.15L70.55 621.96L69.66 620.73L68.82 619.47L68.02 618.17L67.27 616.84L66.56 615.47L65.91 614.07L65.31 612.65L64.76 611.19L64.26 609.71L63.81 608.2L63.42 606.66L63.09 605.11L62.82 603.53L62.6 601.93L62.44 600.31L62.35 598.67L62.32 597.01L62.32 54.78L62.35 53.13L62.44 51.49L62.6 49.87L62.82 48.27L63.09 46.69L63.42 45.13L63.81 43.6L64.26 42.09L64.76 40.6L65.31 39.15L65.91 37.72L66.56 36.32L67.27 34.96L68.02 33.62L68.82 32.33L69.66 31.06L70.55 29.83L71.48 28.64L72.45 27.49L73.46 26.38L74.51 25.31L75.6 24.29L76.73 23.3L77.9 22.37L79.09 21.48L80.32 20.63L81.59 19.84L82.88 19.1L84.2 18.41L85.56 17.77L86.93 17.19L88.34 16.66L89.77 16.19L91.22 15.78L92.7 15.43L94.19 15.14L95.71 14.91L97.24 14.75L98.8 14.65L100.36 14.62L518.88 14.62L520.45 14.65L522 14.75L523.54 14.91Z" id="aeO3JRlE0"></path><path d="M100.36 464.75L100.36 54.78L518.88 54.78L518.88 597.01L225.65 597.01L100.36 464.75Z" id="a3SRhQABg5"></path><path d="M100.36 464.75L100.36 54.78L518.88 54.78L518.88 597.01L225.65 597.01L100.36 464.75Z" id="aBLWR21vY"></path><path d="M225.65 464.75L225.65 597.01L100.36 464.75L225.65 464.75Z" id="d1mEQ8mMxI"></path><path d="M225.65 464.75L225.65 597.01L100.36 464.75L225.65 464.75Z" id="c4QEsDfhF"></path><path d="M404.61 78.16L404.46 79.78L404.24 81.38L403.97 82.96L403.64 84.52L403.25 86.05L402.8 87.56L402.3 89.04L401.75 90.5L401.15 91.92L400.49 93.32L399.79 94.69L399.04 96.02L398.24 97.32L397.4 98.58L396.51 99.81L395.58 101L394.61 102.15L393.6 103.26L392.54 104.33L391.45 105.36L390.33 106.34L389.16 107.28L387.97 108.17L386.73 109.01L385.47 109.8L384.18 110.55L382.85 111.24L381.5 111.87L380.12 112.46L378.72 112.98L377.29 113.45L375.84 113.86L374.36 114.21L372.86 114.5L371.35 114.73L369.81 114.9L368.26 115L366.69 115.03L252.55 115.03L250.98 115L249.43 114.9L247.9 114.73L246.38 114.5L244.89 114.21L243.41 113.86L241.96 113.45L240.53 112.98L239.12 112.46L237.74 111.87L236.39 111.24L235.07 110.55L233.77 109.8L232.51 109.01L231.28 108.17L230.08 107.28L228.92 106.34L227.79 105.36L226.7 104.33L225.65 103.26L224.64 102.15L223.66 101L222.73 99.81L221.85 98.58L221 97.32L220.21 96.02L219.46 94.69L218.75 93.32L218.1 91.92L217.5 90.5L216.94 89.04L216.45 87.56L216 86.05L215.61 84.52L215.28 82.96L215 81.38L214.79 79.78L214.63 78.16L214.54 76.52L214.51 74.86L214.51 -5.47L404.74 -5.47L404.74 74.86L404.71 76.52L404.61 78.16Z" id="e28fjuB6M5"></path><path d="M404.61 78.16L404.46 79.78L404.24 81.38L403.97 82.96L403.64 84.52L403.25 86.05L402.8 87.56L402.3 89.04L401.75 90.5L401.15 91.92L400.49 93.32L399.79 94.69L399.04 96.02L398.24 97.32L397.4 98.58L396.51 99.81L395.58 101L394.61 102.15L393.6 103.26L392.54 104.33L391.45 105.36L390.33 106.34L389.16 107.28L387.97 108.17L386.73 109.01L385.47 109.8L384.18 110.55L382.85 111.24L381.5 111.87L380.12 112.46L378.72 112.98L377.29 113.45L375.84 113.86L374.36 114.21L372.86 114.5L371.35 114.73L369.81 114.9L368.26 115L366.69 115.03L252.55 115.03L250.98 115L249.43 114.9L247.9 114.73L246.38 114.5L244.89 114.21L243.41 113.86L241.96 113.45L240.53 112.98L239.12 112.46L237.74 111.87L236.39 111.24L235.07 110.55L233.77 109.8L232.51 109.01L231.28 108.17L230.08 107.28L228.92 106.34L227.79 105.36L226.7 104.33L225.65 103.26L224.64 102.15L223.66 101L222.73 99.81L221.85 98.58L221 97.32L220.21 96.02L219.46 94.69L218.75 93.32L218.1 91.92L217.5 90.5L216.94 89.04L216.45 87.56L216 86.05L215.61 84.52L215.28 82.96L215 81.38L214.79 79.78L214.63 78.16L214.54 76.52L214.51 74.86L214.51 -5.47L404.74 -5.47L404.74 74.86L404.71 76.52L404.61 78.16Z" id="b4Gkc96AP"></path><path d="M426.09 155.34L426.85 155.46L427.6 155.6L428.34 155.78L429.06 155.98L429.78 156.22L430.48 156.48L431.17 156.77L431.84 157.09L432.51 157.44L433.15 157.81L433.78 158.2L434.4 158.62L435 159.07L435.58 159.54L436.14 160.03L436.69 160.54L437.22 161.08L437.72 161.63L438.21 162.21L438.67 162.8L439.12 163.42L439.54 164.05L439.94 164.7L440.31 165.37L440.66 166.05L440.99 166.75L441.29 167.46L441.57 168.19L441.82 168.93L442.04 169.68L442.24 170.45L442.4 171.23L442.54 172.02L442.65 172.82L442.72 173.63L442.77 174.45L442.79 175.28L442.77 176.1L442.72 176.92L442.65 177.73L442.54 178.53L442.4 179.32L442.24 180.1L442.04 180.87L441.82 181.62L441.57 182.37L441.29 183.09L440.99 183.81L440.66 184.51L440.31 185.19L439.94 185.86L439.54 186.51L439.12 187.14L438.67 187.75L438.21 188.35L437.72 188.92L437.22 189.48L436.69 190.01L436.14 190.53L435.58 191.02L435 191.48L434.4 191.93L433.78 192.35L433.15 192.75L432.51 193.12L431.84 193.46L431.17 193.78L430.48 194.07L429.78 194.34L429.06 194.57L428.34 194.78L427.6 194.95L426.85 195.1L426.09 195.21L425.32 195.29L424.55 195.34L423.76 195.36L271.58 195.36L270.79 195.34L270.02 195.29L269.25 195.21L268.49 195.1L267.74 194.95L267 194.78L266.28 194.57L265.56 194.34L264.86 194.07L264.17 193.78L263.5 193.46L262.83 193.12L262.19 192.75L261.56 192.35L260.94 191.93L260.34 191.48L259.76 191.02L259.2 190.53L258.65 190.01L258.12 189.48L257.62 188.92L257.13 188.35L256.67 187.75L256.22 187.14L255.8 186.51L255.4 185.86L255.03 185.19L254.68 184.51L254.35 183.81L254.05 183.09L253.77 182.37L253.52 181.62L253.3 180.87L253.11 180.1L252.94 179.32L252.8 178.53L252.69 177.73L252.62 176.92L252.57 176.1L252.55 175.28L252.57 174.45L252.62 173.63L252.69 172.82L252.8 172.02L252.94 171.23L253.11 170.45L253.3 169.68L253.52 168.93L253.77 168.19L254.05 167.46L254.35 166.75L254.68 166.05L255.03 165.37L255.4 164.7L255.8 164.05L256.22 163.42L256.67 162.8L257.13 162.21L257.62 161.63L258.12 161.08L258.65 160.54L259.2 160.03L259.76 159.54L260.34 159.07L260.94 158.62L261.56 158.2L262.19 157.81L262.83 157.44L263.5 157.09L264.17 156.77L264.86 156.48L265.56 156.22L266.28 155.98L267 155.78L267.74 155.6L268.49 155.46L269.25 155.34L270.02 155.26L270.79 155.21L271.58 155.19L423.76 155.19L424.55 155.21L425.32 155.26L426.09 155.34Z" id="a2AHliJUC"></path><path d="M426.09 155.34L426.85 155.46L427.6 155.6L428.34 155.78L429.06 155.98L429.78 156.22L430.48 156.48L431.17 156.77L431.84 157.09L432.51 157.44L433.15 157.81L433.78 158.2L434.4 158.62L435 159.07L435.58 159.54L436.14 160.03L436.69 160.54L437.22 161.08L437.72 161.63L438.21 162.21L438.67 162.8L439.12 163.42L439.54 164.05L439.94 164.7L440.31 165.37L440.66 166.05L440.99 166.75L441.29 167.46L441.57 168.19L441.82 168.93L442.04 169.68L442.24 170.45L442.4 171.23L442.54 172.02L442.65 172.82L442.72 173.63L442.77 174.45L442.79 175.28L442.77 176.1L442.72 176.92L442.65 177.73L442.54 178.53L442.4 179.32L442.24 180.1L442.04 180.87L441.82 181.62L441.57 182.37L441.29 183.09L440.99 183.81L440.66 184.51L440.31 185.19L439.94 185.86L439.54 186.51L439.12 187.14L438.67 187.75L438.21 188.35L437.72 188.92L437.22 189.48L436.69 190.01L436.14 190.53L435.58 191.02L435 191.48L434.4 191.93L433.78 192.35L433.15 192.75L432.51 193.12L431.84 193.46L431.17 193.78L430.48 194.07L429.78 194.34L429.06 194.57L428.34 194.78L427.6 194.95L426.85 195.1L426.09 195.21L425.32 195.29L424.55 195.34L423.76 195.36L271.58 195.36L270.79 195.34L270.02 195.29L269.25 195.21L268.49 195.1L267.74 194.95L267 194.78L266.28 194.57L265.56 194.34L264.86 194.07L264.17 193.78L263.5 193.46L262.83 193.12L262.19 192.75L261.56 192.35L260.94 191.93L260.34 191.48L259.76 191.02L259.2 190.53L258.65 190.01L258.12 189.48L257.62 188.92L257.13 188.35L256.67 187.75L256.22 187.14L255.8 186.51L255.4 185.86L255.03 185.19L254.68 184.51L254.35 183.81L254.05 183.09L253.77 182.37L253.52 181.62L253.3 180.87L253.11 180.1L252.94 179.32L252.8 178.53L252.69 177.73L252.62 176.92L252.57 176.1L252.55 175.28L252.57 174.45L252.62 173.63L252.69 172.82L252.8 172.02L252.94 171.23L253.11 170.45L253.3 169.68L253.52 168.93L253.77 168.19L254.05 167.46L254.35 166.75L254.68 166.05L255.03 165.37L255.4 164.7L255.8 164.05L256.22 163.42L256.67 162.8L257.13 162.21L257.62 161.63L258.12 161.08L258.65 160.54L259.2 160.03L259.76 159.54L260.34 159.07L260.94 158.62L261.56 158.2L262.19 157.81L262.83 157.44L263.5 157.09L264.17 156.77L264.86 156.48L265.56 156.22L266.28 155.98L267 155.78L267.74 155.6L268.49 155.46L269.25 155.34L270.02 155.26L270.79 155.21L271.58 155.19L423.76 155.19L424.55 155.21L425.32 155.26L426.09 155.34Z" id="cMQiCJoKx"></path><path d="M176.46 155.19L214.51 155.19L214.51 195.36L176.46 195.36L176.46 155.19Z" id="b4Nnk96GpT"></path><path d="M176.46 155.19L214.51 155.19L214.51 195.36L176.46 195.36L176.46 155.19Z" id="f13vWgLpG"></path><path d="M176.46 235.52L214.51 235.52L214.51 275.69L176.46 275.69L176.46 235.52Z" id="b4ZkeBOCy"></path><path d="M176.46 235.52L214.51 235.52L214.51 275.69L176.46 275.69L176.46 235.52Z" id="a1zx0tddXk"></path><path d="M176.46 315.86L214.51 315.86L214.51 356.02L176.46 356.02L176.46 315.86Z" id="b1CTAyd5fM"></path><path d="M176.46 315.86L214.51 315.86L214.51 356.02L176.46 356.02L176.46 315.86Z" id="aQVMb9GiU"></path><path d="M176.46 396.19L214.51 396.19L214.51 436.35L176.46 436.35L176.46 396.19Z" id="a6b3I0P9Zu"></path><path d="M176.46 396.19L214.51 396.19L214.51 436.35L176.46 436.35L176.46 396.19Z" id="ftMud05pg"></path><path d="M388.04 235.67L388.8 235.79L389.55 235.93L390.29 236.11L391.02 236.31L391.73 236.55L392.43 236.81L393.12 237.1L393.8 237.42L394.46 237.77L395.11 238.14L395.74 238.53L396.35 238.95L396.95 239.4L397.53 239.87L398.1 240.36L398.64 240.87L399.17 241.41L399.68 241.96L400.16 242.54L400.63 243.13L401.07 243.75L401.49 244.38L401.89 245.03L402.27 245.7L402.62 246.38L402.94 247.08L403.25 247.79L403.52 248.52L403.77 249.26L403.99 250.01L404.19 250.78L404.35 251.56L404.49 252.35L404.6 253.15L404.68 253.96L404.73 254.78L404.74 255.61L404.73 256.44L404.68 257.25L404.6 258.06L404.49 258.86L404.35 259.65L404.19 260.43L403.99 261.2L403.77 261.95L403.52 262.7L403.25 263.42L402.94 264.14L402.62 264.84L402.27 265.52L401.89 266.19L401.49 266.84L401.07 267.47L400.63 268.08L400.16 268.68L399.68 269.25L399.17 269.81L398.64 270.34L398.1 270.86L397.53 271.35L396.95 271.82L396.35 272.26L395.74 272.68L395.11 273.08L394.46 273.45L393.8 273.79L393.12 274.11L392.43 274.4L391.73 274.67L391.02 274.9L390.29 275.11L389.55 275.28L388.8 275.43L388.04 275.54L387.28 275.62L386.5 275.67L385.72 275.69L271.58 275.69L270.79 275.67L270.02 275.62L269.25 275.54L268.49 275.43L267.74 275.28L267 275.11L266.28 274.9L265.56 274.67L264.86 274.4L264.17 274.11L263.5 273.79L262.83 273.45L262.19 273.08L261.56 272.68L260.94 272.26L260.34 271.82L259.76 271.35L259.2 270.86L258.65 270.34L258.12 269.81L257.62 269.25L257.13 268.68L256.67 268.08L256.22 267.47L255.8 266.84L255.4 266.19L255.03 265.52L254.68 264.84L254.35 264.14L254.05 263.42L253.77 262.7L253.52 261.95L253.3 261.2L253.11 260.43L252.94 259.65L252.8 258.86L252.69 258.06L252.62 257.25L252.57 256.44L252.55 255.61L252.57 254.78L252.62 253.96L252.69 253.15L252.8 252.35L252.94 251.56L253.11 250.78L253.3 250.01L253.52 249.26L253.77 248.52L254.05 247.79L254.35 247.08L254.68 246.38L255.03 245.7L255.4 245.03L255.8 244.38L256.22 243.75L256.67 243.13L257.13 242.54L257.62 241.96L258.12 241.41L258.65 240.87L259.2 240.36L259.76 239.87L260.34 239.4L260.94 238.95L261.56 238.53L262.19 238.14L262.83 237.77L263.5 237.42L264.17 237.1L264.86 236.81L265.56 236.55L266.28 236.31L267 236.11L267.74 235.93L268.49 235.79L269.25 235.67L270.02 235.59L270.79 235.54L271.58 235.52L385.72 235.52L386.5 235.54L387.28 235.59L388.04 235.67Z" id="cKRbl9aHk"></path><path d="M388.04 235.67L388.8 235.79L389.55 235.93L390.29 236.11L391.02 236.31L391.73 236.55L392.43 236.81L393.12 237.1L393.8 237.42L394.46 237.77L395.11 238.14L395.74 238.53L396.35 238.95L396.95 239.4L397.53 239.87L398.1 240.36L398.64 240.87L399.17 241.41L399.68 241.96L400.16 242.54L400.63 243.13L401.07 243.75L401.49 244.38L401.89 245.03L402.27 245.7L402.62 246.38L402.94 247.08L403.25 247.79L403.52 248.52L403.77 249.26L403.99 250.01L404.19 250.78L404.35 251.56L404.49 252.35L404.6 253.15L404.68 253.96L404.73 254.78L404.74 255.61L404.73 256.44L404.68 257.25L404.6 258.06L404.49 258.86L404.35 259.65L404.19 260.43L403.99 261.2L403.77 261.95L403.52 262.7L403.25 263.42L402.94 264.14L402.62 264.84L402.27 265.52L401.89 266.19L401.49 266.84L401.07 267.47L400.63 268.08L400.16 268.68L399.68 269.25L399.17 269.81L398.64 270.34L398.1 270.86L397.53 271.35L396.95 271.82L396.35 272.26L395.74 272.68L395.11 273.08L394.46 273.45L393.8 273.79L393.12 274.11L392.43 274.4L391.73 274.67L391.02 274.9L390.29 275.11L389.55 275.28L388.8 275.43L388.04 275.54L387.28 275.62L386.5 275.67L385.72 275.69L271.58 275.69L270.79 275.67L270.02 275.62L269.25 275.54L268.49 275.43L267.74 275.28L267 275.11L266.28 274.9L265.56 274.67L264.86 274.4L264.17 274.11L263.5 273.79L262.83 273.45L262.19 273.08L261.56 272.68L260.94 272.26L260.34 271.82L259.76 271.35L259.2 270.86L258.65 270.34L258.12 269.81L257.62 269.25L257.13 268.68L256.67 268.08L256.22 267.47L255.8 266.84L255.4 266.19L255.03 265.52L254.68 264.84L254.35 264.14L254.05 263.42L253.77 262.7L253.52 261.95L253.3 261.2L253.11 260.43L252.94 259.65L252.8 258.86L252.69 258.06L252.62 257.25L252.57 256.44L252.55 255.61L252.57 254.78L252.62 253.96L252.69 253.15L252.8 252.35L252.94 251.56L253.11 250.78L253.3 250.01L253.52 249.26L253.77 248.52L254.05 247.79L254.35 247.08L254.68 246.38L255.03 245.7L255.4 245.03L255.8 244.38L256.22 243.75L256.67 243.13L257.13 242.54L257.62 241.96L258.12 241.41L258.65 240.87L259.2 240.36L259.76 239.87L260.34 239.4L260.94 238.95L261.56 238.53L262.19 238.14L262.83 237.77L263.5 237.42L264.17 237.1L264.86 236.81L265.56 236.55L266.28 236.31L267 236.11L267.74 235.93L268.49 235.79L269.25 235.67L270.02 235.59L270.79 235.54L271.58 235.52L385.72 235.52L386.5 235.54L387.28 235.59L388.04 235.67Z" id="f3IhN8RTFg"></path><path d="M312.01 316.01L312.79 316.13L313.55 316.28L314.31 316.47L315.05 316.68L315.78 316.93L316.5 317.21L317.2 317.51L317.89 317.85L318.57 318.21L319.22 318.6L319.87 319.01L320.49 319.45L321.1 319.92L321.69 320.41L322.26 320.92L322.81 321.46L323.34 322.02L323.85 322.6L324.33 323.2L324.8 323.82L325.24 324.46L325.66 325.12L326.05 325.8L326.42 326.5L326.76 327.21L327.08 327.94L327.37 328.68L327.63 329.44L327.86 330.21L328.07 330.99L328.24 331.79L328.39 332.6L328.5 333.42L328.58 334.25L328.63 335.09L328.65 335.94L328.63 336.79L328.58 337.63L328.5 338.46L328.39 339.28L328.24 340.09L328.07 340.88L327.86 341.67L327.63 342.44L327.37 343.2L327.08 343.94L326.76 344.67L326.42 345.38L326.05 346.07L325.66 346.75L325.24 347.41L324.8 348.05L324.33 348.67L323.85 349.28L323.34 349.86L322.81 350.41L322.26 350.95L321.69 351.47L321.1 351.96L320.49 352.42L319.87 352.86L319.22 353.28L318.57 353.67L317.89 354.03L317.2 354.36L316.5 354.67L315.78 354.94L315.05 355.19L314.31 355.41L313.55 355.59L312.79 355.74L312.01 355.86L311.22 355.95L310.43 356L309.62 356.02L271.58 356.02L270.77 356L269.98 355.95L269.19 355.86L268.41 355.74L267.65 355.59L266.89 355.41L266.15 355.19L265.42 354.94L264.7 354.67L264 354.36L263.31 354.03L262.63 353.67L261.98 353.28L261.33 352.86L260.71 352.42L260.1 351.96L259.51 351.47L258.94 350.95L258.39 350.41L257.86 349.86L257.35 349.28L256.87 348.67L256.4 348.05L255.96 347.41L255.54 346.75L255.15 346.07L254.78 345.38L254.44 344.67L254.12 343.94L253.83 343.2L253.57 342.44L253.34 341.67L253.13 340.88L252.96 340.09L252.81 339.28L252.7 338.46L252.62 337.63L252.57 336.79L252.55 335.94L252.57 335.09L252.62 334.25L252.7 333.42L252.81 332.6L252.96 331.79L253.13 330.99L253.34 330.21L253.57 329.44L253.83 328.68L254.12 327.94L254.44 327.21L254.78 326.5L255.15 325.8L255.54 325.12L255.96 324.46L256.4 323.82L256.87 323.2L257.35 322.6L257.86 322.02L258.39 321.46L258.94 320.92L259.51 320.41L260.1 319.92L260.71 319.45L261.33 319.01L261.98 318.6L262.63 318.21L263.31 317.85L264 317.51L264.7 317.21L265.42 316.93L266.15 316.68L266.89 316.47L267.65 316.28L268.41 316.13L269.19 316.01L269.98 315.93L270.77 315.87L271.58 315.86L309.62 315.86L310.43 315.87L311.22 315.93L312.01 316.01Z" id="cQYFgJeHS"></path><path d="M312.01 316.01L312.79 316.13L313.55 316.28L314.31 316.47L315.05 316.68L315.78 316.93L316.5 317.21L317.2 317.51L317.89 317.85L318.57 318.21L319.22 318.6L319.87 319.01L320.49 319.45L321.1 319.92L321.69 320.41L322.26 320.92L322.81 321.46L323.34 322.02L323.85 322.6L324.33 323.2L324.8 323.82L325.24 324.46L325.66 325.12L326.05 325.8L326.42 326.5L326.76 327.21L327.08 327.94L327.37 328.68L327.63 329.44L327.86 330.21L328.07 330.99L328.24 331.79L328.39 332.6L328.5 333.42L328.58 334.25L328.63 335.09L328.65 335.94L328.63 336.79L328.58 337.63L328.5 338.46L328.39 339.28L328.24 340.09L328.07 340.88L327.86 341.67L327.63 342.44L327.37 343.2L327.08 343.94L326.76 344.67L326.42 345.38L326.05 346.07L325.66 346.75L325.24 347.41L324.8 348.05L324.33 348.67L323.85 349.28L323.34 349.86L322.81 350.41L322.26 350.95L321.69 351.47L321.1 351.96L320.49 352.42L319.87 352.86L319.22 353.28L318.57 353.67L317.89 354.03L317.2 354.36L316.5 354.67L315.78 354.94L315.05 355.19L314.31 355.41L313.55 355.59L312.79 355.74L312.01 355.86L311.22 355.95L310.43 356L309.62 356.02L271.58 356.02L270.77 356L269.98 355.95L269.19 355.86L268.41 355.74L267.65 355.59L266.89 355.41L266.15 355.19L265.42 354.94L264.7 354.67L264 354.36L263.31 354.03L262.63 353.67L261.98 353.28L261.33 352.86L260.71 352.42L260.1 351.96L259.51 351.47L258.94 350.95L258.39 350.41L257.86 349.86L257.35 349.28L256.87 348.67L256.4 348.05L255.96 347.41L255.54 346.75L255.15 346.07L254.78 345.38L254.44 344.67L254.12 343.94L253.83 343.2L253.57 342.44L253.34 341.67L253.13 340.88L252.96 340.09L252.81 339.28L252.7 338.46L252.62 337.63L252.57 336.79L252.55 335.94L252.57 335.09L252.62 334.25L252.7 333.42L252.81 332.6L252.96 331.79L253.13 330.99L253.34 330.21L253.57 329.44L253.83 328.68L254.12 327.94L254.44 327.21L254.78 326.5L255.15 325.8L255.54 325.12L255.96 324.46L256.4 323.82L256.87 323.2L257.35 322.6L257.86 322.02L258.39 321.46L258.94 320.92L259.51 320.41L260.1 319.92L260.71 319.45L261.33 319.01L261.98 318.6L262.63 318.21L263.31 317.85L264 317.51L264.7 317.21L265.42 316.93L266.15 316.68L266.89 316.47L267.65 316.28L268.41 316.13L269.19 316.01L269.98 315.93L270.77 315.87L271.58 315.86L309.62 315.86L310.43 315.87L311.22 315.93L312.01 316.01Z" id="dorHQd1Qv"></path></defs><g><g><g><use xlink:href="#c5zCQqn1XD" opacity="1" fill="#ecce93" fill-opacity="1"></use><g><use xlink:href="#c5zCQqn1XD" opacity="1" fill-opacity="0" stroke="#000000" stroke-width="1" stroke-opacity="0"></use></g></g><g><use xlink:href="#aeO3JRlE0" opacity="1" fill="#000000" fill-opacity="0"></use><g><use xlink:href="#aeO3JRlE0" opacity="1" fill-opacity="0" stroke="#000000" stroke-width="1" stroke-opacity="0"></use></g></g><g><use xlink:href="#a3SRhQABg5" opacity="1" fill="#efefef" fill-opacity="1"></use><g><use xlink:href="#a3SRhQABg5" opacity="1" fill-opacity="0" stroke="#000000" stroke-width="1" stroke-opacity="0"></use></g></g><g><use xlink:href="#aBLWR21vY" opacity="1" fill="#000000" fill-opacity="0"></use><g><use xlink:href="#aBLWR21vY" opacity="1" fill-opacity="0" stroke="#000000" stroke-width="1" stroke-opacity="0"></use></g></g><g><use xlink:href="#d1mEQ8mMxI" opacity="1" fill="#e76e54" fill-opacity="1"></use><g><use xlink:href="#d1mEQ8mMxI" opacity="1" fill-opacity="0" stroke="#000000" stroke-width="1" stroke-opacity="0"></use></g></g><g><use xlink:href="#c4QEsDfhF" opacity="1" fill="#000000" fill-opacity="0"></use><g><use xlink:href="#c4QEsDfhF" opacity="1" fill-opacity="0" stroke="#000000" stroke-width="1" stroke-opacity="0"></use></g></g><g><use xlink:href="#e28fjuB6M5" opacity="1" fill="#e76e54" fill-opacity="1"></use><g><use xlink:href="#e28fjuB6M5" opacity="1" fill-opacity="0" stroke="#000000" stroke-width="1" stroke-opacity="0"></use></g></g><g><use xlink:href="#b4Gkc96AP" opacity="1" fill="#000000" fill-opacity="0"></use><g><use xlink:href="#b4Gkc96AP" opacity="1" fill-opacity="0" stroke="#000000" stroke-width="1" stroke-opacity="0"></use></g></g><g><use xlink:href="#a2AHliJUC" opacity="1" fill="#77959e" fill-opacity="1"></use><g><use xlink:href="#a2AHliJUC" opacity="1" fill-opacity="0" stroke="#000000" stroke-width="1" stroke-opacity="0"></use></g></g><g><use xlink:href="#cMQiCJoKx" opacity="1" fill="#000000" fill-opacity="0"></use><g><use xlink:href="#cMQiCJoKx" opacity="1" fill-opacity="0" stroke="#000000" stroke-width="1" stroke-opacity="0"></use></g></g><g><use xlink:href="#b4Nnk96GpT" opacity="1" fill="#77959e" fill-opacity="1"></use><g><use xlink:href="#b4Nnk96GpT" opacity="1" fill-opacity="0" stroke="#000000" stroke-width="1" stroke-opacity="0"></use></g></g><g><use xlink:href="#f13vWgLpG" opacity="1" fill="#000000" fill-opacity="0"></use><g><use xlink:href="#f13vWgLpG" opacity="1" fill-opacity="0" stroke="#000000" stroke-width="1" stroke-opacity="0"></use></g></g><g><use xlink:href="#b4ZkeBOCy" opacity="1" fill="#77959e" fill-opacity="1"></use><g><use xlink:href="#b4ZkeBOCy" opacity="1" fill-opacity="0" stroke="#000000" stroke-width="1" stroke-opacity="0"></use></g></g><g><use xlink:href="#a1zx0tddXk" opacity="1" fill="#000000" fill-opacity="0"></use><g><use xlink:href="#a1zx0tddXk" opacity="1" fill-opacity="0" stroke="#000000" stroke-width="1" stroke-opacity="0"></use></g></g><g><use xlink:href="#b1CTAyd5fM" opacity="1" fill="#77959e" fill-opacity="1"></use><g><use xlink:href="#b1CTAyd5fM" opacity="1" fill-opacity="0" stroke="#000000" stroke-width="1" stroke-opacity="0"></use></g></g><g><use xlink:href="#aQVMb9GiU" opacity="1" fill="#000000" fill-opacity="0"></use><g><use xlink:href="#aQVMb9GiU" opacity="1" fill-opacity="0" stroke="#000000" stroke-width="1" stroke-opacity="0"></use></g></g><g><use xlink:href="#a6b3I0P9Zu" opacity="1" fill="#77959e" fill-opacity="1"></use><g><use xlink:href="#a6b3I0P9Zu" opacity="1" fill-opacity="0" stroke="#000000" stroke-width="1" stroke-opacity="0"></use></g></g><g><use xlink:href="#ftMud05pg" opacity="1" fill="#000000" fill-opacity="0"></use><g><use xlink:href="#ftMud05pg" opacity="1" fill-opacity="0" stroke="#000000" stroke-width="1" stroke-opacity="0"></use></g></g><g><use xlink:href="#cKRbl9aHk" opacity="1" fill="#77959e" fill-opacity="1"></use><g><use xlink:href="#cKRbl9aHk" opacity="1" fill-opacity="0" stroke="#000000" stroke-width="1" stroke-opacity="0"></use></g></g><g><use xlink:href="#f3IhN8RTFg" opacity="1" fill="#000000" fill-opacity="0"></use><g><use xlink:href="#f3IhN8RTFg" opacity="1" fill-opacity="0" stroke="#000000" stroke-width="1" stroke-opacity="0"></use></g></g><g><use xlink:href="#cQYFgJeHS" opacity="1" fill="#77959e" fill-opacity="1"></use><g><use xlink:href="#cQYFgJeHS" opacity="1" fill-opacity="0" stroke="#000000" stroke-width="1" stroke-opacity="0"></use></g></g><g><use xlink:href="#dorHQd1Qv" opacity="1" fill="#000000" fill-opacity="0"></use><g><use xlink:href="#dorHQd1Qv" opacity="1" fill-opacity="0" stroke="#000000" stroke-width="1" stroke-opacity="0"></use></g></g></g></g></svg>