<?xml version="1.0" encoding="UTF-8" standalone="no"?>
<!DOCTYPE svg PUBLIC "-//W3C//DTD SVG 1.1//EN" "http://www.w3.org/Graphics/SVG/1.1/DTD/svg11.dtd">
<svg version="1.1" xmlns="http://www.w3.org/2000/svg" xmlns:xlink="http://www.w3.org/1999/xlink" preserveAspectRatio="xMidYMid meet" viewBox="0 0 640 640" width="640" height="640"><defs><path d="M489.2 14.75L490.74 14.91L492.25 15.14L493.75 15.43L495.22 15.78L496.68 16.19L498.11 16.66L499.51 17.19L500.89 17.77L502.24 18.41L503.57 19.1L504.86 19.84L506.12 20.63L507.35 21.48L508.55 22.37L509.71 23.3L510.84 24.29L511.93 25.31L512.98 26.38L514 27.49L514.97 28.64L515.9 29.83L516.79 31.06L517.63 32.33L518.43 33.62L519.18 34.96L519.88 36.32L520.54 37.72L521.14 39.15L521.69 40.6L522.19 42.09L522.63 43.6L523.02 45.13L523.36 46.69L523.63 48.27L523.85 49.87L524 51.49L524.1 53.13L524.13 54.78L524.13 597.01L524.1 598.67L524 600.31L523.85 601.93L523.63 603.53L523.36 605.11L523.02 606.66L522.63 608.2L522.19 609.71L521.69 611.19L521.14 612.65L520.54 614.07L519.88 615.47L519.18 616.84L518.43 618.17L517.63 619.47L516.79 620.73L515.9 621.96L514.97 623.15L514 624.3L512.98 625.41L511.93 626.48L510.84 627.51L509.71 628.49L508.55 629.43L507.35 630.32L506.12 631.16L504.86 631.95L503.57 632.69L502.24 633.38L500.89 634.02L499.51 634.6L498.11 635.13L496.68 635.6L495.22 636.01L493.75 636.36L492.25 636.65L490.74 636.88L489.2 637.04L487.65 637.14L486.08 637.18L67.56 637.18L66 637.14L64.44 637.04L62.91 636.88L61.39 636.65L59.9 636.36L58.42 636.01L56.97 635.6L55.54 635.13L54.13 634.6L52.76 634.02L51.4 633.38L50.08 632.69L48.79 631.95L47.52 631.16L46.29 630.32L45.1 629.43L43.93 628.49L42.8 627.51L41.71 626.48L40.66 625.41L39.65 624.3L38.68 623.15L37.75 621.96L36.86 620.73L36.02 619.47L35.22 618.17L34.47 616.84L33.76 615.47L33.11 614.07L32.51 612.65L31.96 611.19L31.46 609.71L31.01 608.2L30.62 606.66L30.29 605.11L30.02 603.53L29.8 601.93L29.64 600.31L29.55 598.67L29.52 597.01L29.52 54.78L29.55 53.13L29.64 51.49L29.8 49.87L30.02 48.27L30.29 46.69L30.62 45.13L31.01 43.6L31.46 42.09L31.96 40.6L32.51 39.15L33.11 37.72L33.76 36.32L34.47 34.96L35.22 33.62L36.02 32.33L36.86 31.06L37.75 29.83L38.68 28.64L39.65 27.49L40.66 26.38L41.71 25.31L42.8 24.29L43.93 23.3L45.1 22.37L46.29 21.48L47.52 20.63L48.79 19.84L50.08 19.1L51.4 18.41L52.76 17.77L54.13 17.19L55.54 16.66L56.97 16.19L58.42 15.78L59.9 15.43L61.39 15.14L62.91 14.91L64.44 14.75L66 14.65L67.56 14.62L486.08 14.62L487.65 14.65L489.2 14.75Z" id="aOLPLoPPN"></path><path d="M192.85 597.01L67.56 464.75L67.56 54.78L486.08 54.78L486.08 597.01L192.85 597.01Z" id="a1QUDSstK1"></path><path d="M67.56 464.75L192.85 464.75L192.85 597.01L67.56 464.75Z" id="a2ul6FwhO"></path><path d="M371.91 76.52L371.81 78.16L371.66 79.78L371.44 81.38L371.17 82.96L370.84 84.52L370.45 86.05L370 87.56L369.5 89.04L368.95 90.5L368.35 91.92L367.69 93.32L366.99 94.69L366.24 96.02L365.44 97.32L364.6 98.58L363.71 99.81L362.78 101L361.81 102.15L360.8 103.26L359.74 104.33L358.65 105.36L357.53 106.34L356.36 107.28L355.17 108.17L353.93 109.01L352.67 109.8L351.38 110.55L350.05 111.24L348.7 111.87L347.32 112.46L345.92 112.98L344.49 113.45L343.04 113.86L341.56 114.21L340.06 114.5L338.55 114.73L337.01 114.9L335.46 115L333.89 115.03L219.75 115.03L218.18 115L216.63 114.9L215.1 114.73L213.58 114.5L212.09 114.21L210.61 113.86L209.16 113.45L207.73 112.98L206.32 112.46L204.94 111.87L203.59 111.24L202.27 110.55L200.97 109.8L199.71 109.01L198.48 108.17L197.28 107.28L196.12 106.34L194.99 105.36L193.9 104.33L192.85 103.26L191.84 102.15L190.86 101L189.93 99.81L189.05 98.58L188.2 97.32L187.41 96.02L186.66 94.69L185.95 93.32L185.3 91.92L184.7 90.5L184.14 89.04L183.65 87.56L183.2 86.05L182.81 84.52L182.48 82.96L182.2 81.38L181.99 79.78L181.83 78.16L181.74 76.52L181.71 74.86L181.71 -5.47L371.94 -5.47L371.94 74.86L371.91 76.52Z" id="c3azRNFOc8"></path><path d="M392.52 155.26L393.29 155.34L394.05 155.46L394.8 155.6L395.54 155.78L396.26 155.98L396.98 156.22L397.68 156.48L398.37 156.77L399.04 157.09L399.71 157.44L400.35 157.81L400.98 158.2L401.6 158.62L402.2 159.07L402.78 159.54L403.34 160.03L403.89 160.54L404.42 161.08L404.92 161.63L405.41 162.21L405.87 162.8L406.32 163.42L406.74 164.05L407.14 164.7L407.51 165.37L407.86 166.05L408.19 166.75L408.49 167.46L408.77 168.19L409.02 168.93L409.24 169.68L409.44 170.45L409.6 171.23L409.74 172.02L409.85 172.82L409.92 173.63L409.97 174.45L409.99 175.28L409.97 176.1L409.92 176.92L409.85 177.73L409.74 178.53L409.6 179.32L409.44 180.1L409.24 180.87L409.02 181.62L408.77 182.37L408.49 183.09L408.19 183.81L407.86 184.51L407.51 185.19L407.14 185.86L406.74 186.51L406.32 187.14L405.87 187.75L405.41 188.35L404.92 188.92L404.42 189.48L403.89 190.01L403.34 190.53L402.78 191.02L402.2 191.48L401.6 191.93L400.98 192.35L400.35 192.75L399.71 193.12L399.04 193.46L398.37 193.78L397.68 194.07L396.98 194.34L396.26 194.57L395.54 194.78L394.8 194.95L394.05 195.1L393.29 195.21L392.52 195.29L391.75 195.34L390.96 195.36L238.78 195.36L237.99 195.34L237.22 195.29L236.45 195.21L235.69 195.1L234.94 194.95L234.2 194.78L233.48 194.57L232.76 194.34L232.06 194.07L231.37 193.78L230.7 193.46L230.03 193.12L229.39 192.75L228.76 192.35L228.14 191.93L227.54 191.48L226.96 191.02L226.4 190.53L225.85 190.01L225.32 189.48L224.82 188.92L224.33 188.35L223.87 187.75L223.42 187.14L223 186.51L222.6 185.86L222.23 185.19L221.88 184.51L221.55 183.81L221.25 183.09L220.97 182.37L220.72 181.62L220.5 180.87L220.31 180.1L220.14 179.32L220 178.53L219.89 177.73L219.82 176.92L219.77 176.1L219.75 175.28L219.77 174.45L219.82 173.63L219.89 172.82L220 172.02L220.14 171.23L220.31 170.45L220.5 169.68L220.72 168.93L220.97 168.19L221.25 167.46L221.55 166.75L221.88 166.05L222.23 165.37L222.6 164.7L223 164.05L223.42 163.42L223.87 162.8L224.33 162.21L224.82 161.63L225.32 161.08L225.85 160.54L226.4 160.03L226.96 159.54L227.54 159.07L228.14 158.62L228.76 158.2L229.39 157.81L230.03 157.44L230.7 157.09L231.37 156.77L232.06 156.48L232.76 156.22L233.48 155.98L234.2 155.78L234.94 155.6L235.69 155.46L236.45 155.34L237.22 155.26L237.99 155.21L238.78 155.19L390.96 155.19L391.75 155.21L392.52 155.26Z" id="a1k6sVUkVr"></path><path d="M143.66 195.36L143.66 155.19L181.71 155.19L181.71 195.36L143.66 195.36Z" id="a1mwqGSbgu"></path><path d="M143.66 275.69L143.66 235.52L181.71 235.52L181.71 275.69L143.66 275.69Z" id="aFSHn1Db8"></path><path d="M143.66 356.02L143.66 315.86L181.71 315.86L181.71 356.02L143.66 356.02Z" id="c2wHWuCii"></path><path d="M143.66 436.35L143.66 396.19L181.71 396.19L181.71 436.35L143.66 436.35Z" id="a3EddhF3rf"></path><path d="M354.48 235.59L355.24 235.67L356 235.79L356.75 235.93L357.49 236.11L358.22 236.31L358.93 236.55L359.63 236.81L360.32 237.1L361 237.42L361.66 237.77L362.31 238.14L362.94 238.53L363.55 238.95L364.15 239.4L364.73 239.87L365.3 240.36L365.84 240.87L366.37 241.41L366.88 241.96L367.36 242.54L367.83 243.13L368.27 243.75L368.69 244.38L369.09 245.03L369.47 245.7L369.82 246.38L370.14 247.08L370.45 247.79L370.72 248.52L370.97 249.26L371.19 250.01L371.39 250.78L371.55 251.56L371.69 252.35L371.8 253.15L371.88 253.96L371.93 254.78L371.94 255.61L371.93 256.44L371.88 257.25L371.8 258.06L371.69 258.86L371.55 259.65L371.39 260.43L371.19 261.2L370.97 261.95L370.72 262.7L370.45 263.42L370.14 264.14L369.82 264.84L369.47 265.52L369.09 266.19L368.69 266.84L368.27 267.47L367.83 268.08L367.36 268.68L366.88 269.25L366.37 269.81L365.84 270.34L365.3 270.86L364.73 271.35L364.15 271.82L363.55 272.26L362.94 272.68L362.31 273.08L361.66 273.45L361 273.79L360.32 274.11L359.63 274.4L358.93 274.67L358.22 274.9L357.49 275.11L356.75 275.28L356 275.43L355.24 275.54L354.48 275.62L353.7 275.67L352.92 275.69L238.78 275.69L237.99 275.67L237.22 275.62L236.45 275.54L235.69 275.43L234.94 275.28L234.2 275.11L233.48 274.9L232.76 274.67L232.06 274.4L231.37 274.11L230.7 273.79L230.03 273.45L229.39 273.08L228.76 272.68L228.14 272.26L227.54 271.82L226.96 271.35L226.4 270.86L225.85 270.34L225.32 269.81L224.82 269.25L224.33 268.68L223.87 268.08L223.42 267.47L223 266.84L222.6 266.19L222.23 265.52L221.88 264.84L221.55 264.14L221.25 263.42L220.97 262.7L220.72 261.95L220.5 261.2L220.31 260.43L220.14 259.65L220 258.86L219.89 258.06L219.82 257.25L219.77 256.44L219.75 255.61L219.77 254.78L219.82 253.96L219.89 253.15L220 252.35L220.14 251.56L220.31 250.78L220.5 250.01L220.72 249.26L220.97 248.52L221.25 247.79L221.55 247.08L221.88 246.38L222.23 245.7L222.6 245.03L223 244.38L223.42 243.75L223.87 243.13L224.33 242.54L224.82 241.96L225.32 241.41L225.85 240.87L226.4 240.36L226.96 239.87L227.54 239.4L228.14 238.95L228.76 238.53L229.39 238.14L230.03 237.77L230.7 237.42L231.37 237.1L232.06 236.81L232.76 236.55L233.48 236.31L234.2 236.11L234.94 235.93L235.69 235.79L236.45 235.67L237.22 235.59L237.99 235.54L238.78 235.52L352.92 235.52L353.7 235.54L354.48 235.59Z" id="a1yBUgTknb"></path><path d="M278.42 315.93L279.21 316.01L279.99 316.13L280.75 316.28L281.51 316.47L282.25 316.68L282.98 316.93L283.7 317.21L284.4 317.51L285.09 317.85L285.77 318.21L286.42 318.6L287.07 319.01L287.69 319.45L288.3 319.92L288.89 320.41L289.46 320.92L290.01 321.46L290.54 322.02L291.05 322.6L291.53 323.2L292 323.82L292.44 324.46L292.86 325.12L293.25 325.8L293.62 326.5L293.96 327.21L294.28 327.94L294.57 328.68L294.83 329.44L295.06 330.21L295.27 330.99L295.44 331.79L295.59 332.6L295.7 333.42L295.78 334.25L295.83 335.09L295.85 335.94L295.83 336.79L295.78 337.63L295.7 338.46L295.59 339.28L295.44 340.09L295.27 340.88L295.06 341.67L294.83 342.44L294.57 343.2L294.28 343.94L293.96 344.67L293.62 345.38L293.25 346.07L292.86 346.75L292.44 347.41L292 348.05L291.53 348.67L291.05 349.28L290.54 349.86L290.01 350.41L289.46 350.95L288.89 351.47L288.3 351.96L287.69 352.42L287.07 352.86L286.42 353.28L285.77 353.67L285.09 354.03L284.4 354.36L283.7 354.67L282.98 354.94L282.25 355.19L281.51 355.41L280.75 355.59L279.99 355.74L279.21 355.86L278.42 355.95L277.63 356L276.82 356.02L238.78 356.02L237.97 356L237.18 355.95L236.39 355.86L235.61 355.74L234.85 355.59L234.09 355.41L233.35 355.19L232.62 354.94L231.9 354.67L231.2 354.36L230.51 354.03L229.83 353.67L229.18 353.28L228.53 352.86L227.91 352.42L227.3 351.96L226.71 351.47L226.14 350.95L225.59 350.41L225.06 349.86L224.55 349.28L224.07 348.67L223.6 348.05L223.16 347.41L222.74 346.75L222.35 346.07L221.98 345.38L221.64 344.67L221.32 343.94L221.03 343.2L220.77 342.44L220.54 341.67L220.33 340.88L220.16 340.09L220.01 339.28L219.9 338.46L219.82 337.63L219.77 336.79L219.75 335.94L219.77 335.09L219.82 334.25L219.9 333.42L220.01 332.6L220.16 331.79L220.33 330.99L220.54 330.21L220.77 329.44L221.03 328.68L221.32 327.94L221.64 327.21L221.98 326.5L222.35 325.8L222.74 325.12L223.16 324.46L223.6 323.82L224.07 323.2L224.55 322.6L225.06 322.02L225.59 321.46L226.14 320.92L226.71 320.41L227.3 319.92L227.91 319.45L228.53 319.01L229.18 318.6L229.83 318.21L230.51 317.85L231.2 317.51L231.9 317.21L232.62 316.93L233.35 316.68L234.09 316.47L234.85 316.28L235.61 316.13L236.39 316.01L237.18 315.93L237.97 315.87L238.78 315.86L276.82 315.86L277.63 315.87L278.42 315.93Z" id="a30eLcrfu"></path><path d="M385.65 470.87C385.65 485.62 398.62 497.63 414.56 497.63C430.51 497.63 443.48 485.62 443.48 470.87C443.48 456.11 430.51 444.11 414.56 444.11C398.62 444.11 385.65 456.11 385.65 470.87Z" id="a9iT9CoE0"></path><path d="M272.52 404.32C237.19 422.68 217.74 446.31 217.74 470.87C217.74 495.42 237.19 519.05 272.52 537.42C286.97 544.93 303.29 551.15 320.95 555.96C297.67 534.02 283.28 503.97 283.28 470.87C283.28 437.76 297.67 407.71 320.96 385.77C303.29 390.59 286.97 396.8 272.52 404.32Z" id="d2zBC1yF8r"></path><path d="M508.18 385.77C531.46 407.71 545.85 437.76 545.85 470.87C545.85 503.97 531.46 534.02 508.18 555.96C525.84 551.14 542.16 544.93 556.61 537.42C591.94 519.05 611.39 495.42 611.39 470.87C611.39 446.31 591.94 422.68 556.61 404.32C542.16 396.8 525.84 390.59 508.18 385.77Z" id="a9RtEQ2ov3"></path><path d="M414.84 349.37L414.98 349.37L415.12 349.37L415.26 349.37L415.39 349.37L415.53 349.38L415.67 349.38L415.81 349.38L415.95 349.38L416.08 349.38L416.22 349.38L416.36 349.38L416.5 349.39L416.63 349.39L416.77 349.39L416.91 349.39L417.05 349.4L417.18 349.4L417.32 349.4L417.46 349.4L417.59 349.41L417.73 349.41L417.87 349.41L418.01 349.42L418.14 349.42L418.28 349.43L418.42 349.43L418.55 349.43L418.69 349.44L418.83 349.44L418.96 349.45L419.1 349.45L419.24 349.45L419.37 349.46L419.51 349.46L419.65 349.47L419.78 349.47L419.92 349.48L420.06 349.48L424.27 349.56L428.47 349.68L432.66 349.83L436.83 350.03L440.99 350.27L445.13 350.55L449.25 350.87L453.35 351.24L457.43 351.64L461.49 352.08L465.54 352.56L469.55 353.08L473.55 353.64L477.52 354.24L481.47 354.88L485.39 355.56L489.28 356.27L493.15 357.03L496.99 357.82L500.8 358.65L504.58 359.52L508.33 360.43L512.05 361.37L515.73 362.36L519.38 363.38L523 364.43L526.58 365.52L530.13 366.65L533.64 367.82L537.11 369.02L540.54 370.26L543.93 371.53L547.29 372.84L550.6 374.19L553.87 375.57L557.09 376.99L560.28 378.44L563.42 379.92L566.51 381.44L569.55 383L572.82 384.73L576.01 386.49L579.12 388.28L582.16 390.11L585.13 391.96L588.01 393.84L590.82 395.75L593.56 397.68L596.21 399.64L598.79 401.63L601.29 403.65L603.71 405.68L606.05 407.75L608.31 409.84L610.5 411.95L612.6 414.08L614.62 416.24L616.56 418.42L618.41 420.62L620.19 422.85L621.88 425.09L623.49 427.35L625.02 429.63L626.46 431.93L627.82 434.25L629.1 436.59L630.28 438.95L631.39 441.32L632.41 443.7L633.34 446.11L634.18 448.52L634.94 450.95L635.61 453.4L636.19 455.86L636.68 458.33L637.09 460.82L637.4 463.31L637.63 465.82L637.77 468.34L637.81 470.87L637.77 473.4L637.63 475.91L637.4 478.42L637.09 480.92L636.68 483.4L636.19 485.88L635.61 488.33L634.94 490.78L634.18 493.21L633.34 495.63L632.41 498.03L631.39 500.42L630.28 502.79L629.09 505.14L627.82 507.48L626.46 509.8L625.02 512.1L623.49 514.38L621.88 516.65L620.19 518.89L618.41 521.11L616.56 523.31L614.62 525.49L612.6 527.65L610.49 529.78L608.31 531.9L606.05 533.99L603.71 536.05L601.29 538.09L598.79 540.1L596.21 542.09L593.56 544.05L590.82 545.99L588.01 547.9L585.12 549.78L582.16 551.63L579.12 553.45L576.01 555.24L572.82 557.01L569.55 558.74L566.51 560.29L563.42 561.81L560.28 563.3L557.1 564.75L553.87 566.16L550.6 567.54L547.29 568.89L543.94 570.2L540.55 571.47L537.12 572.71L533.65 573.91L530.14 575.07L526.6 576.2L523.02 577.3L519.4 578.35L515.75 579.37L512.07 580.35L508.35 581.3L504.6 582.2L500.83 583.07L497.02 583.9L493.18 584.7L489.32 585.45L485.42 586.17L481.5 586.85L477.56 587.49L473.59 588.09L469.59 588.65L465.58 589.17L461.54 589.65L457.48 590.09L453.4 590.49L449.3 590.86L445.18 591.18L441.04 591.46L436.89 591.7L432.72 591.9L428.53 592.06L424.33 592.17L420.12 592.25L419.98 592.25L419.84 592.26L419.7 592.26L419.56 592.27L419.43 592.27L419.29 592.28L419.15 592.28L419.01 592.29L418.87 592.29L418.73 592.3L418.6 592.3L418.46 592.3L418.32 592.31L418.18 592.31L418.04 592.32L417.9 592.32L417.76 592.32L417.63 592.33L417.49 592.33L417.35 592.33L417.21 592.34L417.07 592.34L416.93 592.34L416.79 592.34L416.65 592.35L416.52 592.35L416.38 592.35L416.24 592.35L416.1 592.36L415.96 592.36L415.82 592.36L415.68 592.36L415.54 592.36L415.4 592.36L415.26 592.36L415.12 592.36L414.98 592.36L414.85 592.36L414.71 592.37L414.57 592.37L414.43 592.37L414.29 592.36L414.15 592.36L414.01 592.36L413.87 592.36L413.73 592.36L413.59 592.36L413.45 592.36L413.31 592.36L413.17 592.36L413.04 592.36L412.9 592.35L412.76 592.35L412.62 592.35L412.48 592.35L412.34 592.34L412.2 592.34L412.06 592.34L411.93 592.34L411.79 592.33L411.65 592.33L411.51 592.33L411.37 592.32L411.23 592.32L411.09 592.32L410.96 592.31L410.82 592.31L410.68 592.31L410.54 592.3L410.4 592.3L410.26 592.29L410.13 592.29L409.99 592.28L409.85 592.28L409.71 592.27L409.57 592.27L409.43 592.27L409.3 592.26L409.16 592.26L409.02 592.25L404.81 592.17L400.61 592.06L396.42 591.9L392.25 591.7L388.1 591.46L383.96 591.18L379.84 590.86L375.74 590.5L371.66 590.09L367.6 589.65L363.56 589.17L359.54 588.65L355.55 588.09L351.58 587.49L347.63 586.85L343.71 586.17L339.82 585.45L335.95 584.7L332.12 583.91L328.31 583.08L324.53 582.21L320.78 581.3L317.07 580.35L313.38 579.37L309.73 578.35L306.12 577.3L302.54 576.21L298.99 575.08L295.48 573.91L292.01 572.71L288.58 571.47L285.19 570.2L281.84 568.89L278.53 567.54L275.26 566.16L272.03 564.75L268.85 563.3L265.71 561.81L262.62 560.29L259.58 558.74L256.31 557.01L253.12 555.24L250.01 553.45L246.97 551.63L244.01 549.78L241.12 547.9L238.31 545.99L235.58 544.05L232.92 542.09L230.34 540.1L227.84 538.09L225.42 536.05L223.08 533.99L220.82 531.9L218.64 529.78L216.53 527.65L214.51 525.49L212.57 523.31L210.72 521.11L208.94 518.89L207.25 516.65L205.64 514.38L204.11 512.1L202.67 509.8L201.31 507.48L200.04 505.14L198.85 502.79L197.74 500.42L196.73 498.03L195.79 495.63L194.95 493.21L194.19 490.78L193.52 488.33L192.94 485.88L192.45 483.4L192.04 480.92L191.73 478.42L191.5 475.91L191.36 473.4L191.32 470.87L191.36 468.34L191.5 465.82L191.73 463.31L192.04 460.82L192.45 458.33L192.94 455.86L193.52 453.4L194.19 450.95L194.95 448.52L195.79 446.11L196.73 443.7L197.74 441.32L198.85 438.95L200.04 436.59L201.31 434.25L202.67 431.93L204.11 429.63L205.64 427.35L207.25 425.09L208.94 422.85L210.72 420.62L212.57 418.42L214.51 416.24L216.53 414.08L218.64 411.95L220.82 409.84L223.08 407.75L225.42 405.68L227.84 403.65L230.34 401.63L232.92 399.64L235.58 397.68L238.31 395.75L241.12 393.84L244.01 391.96L246.97 390.11L250.01 388.28L253.12 386.49L256.31 384.73L259.58 383L262.63 381.44L265.72 379.92L268.86 378.44L272.04 376.99L275.27 375.57L278.54 374.19L281.85 372.84L285.2 371.53L288.59 370.26L292.03 369.02L295.5 367.82L299.01 366.65L302.55 365.52L306.14 364.43L309.75 363.38L313.41 362.36L317.09 361.37L320.81 360.43L324.56 359.52L328.34 358.65L332.15 357.82L335.99 357.03L339.85 356.27L343.75 355.56L347.67 354.88L351.62 354.24L355.59 353.64L359.58 353.08L363.6 352.56L367.64 352.08L371.71 351.64L375.79 351.24L379.89 350.87L384.01 350.55L388.15 350.27L392.31 350.03L396.48 349.83L400.67 349.68L404.87 349.56L409.08 349.48L409.22 349.48L409.36 349.47L409.49 349.47L409.63 349.46L409.77 349.46L409.9 349.45L410.04 349.45L410.18 349.45L410.31 349.44L410.45 349.44L410.59 349.43L410.72 349.43L410.86 349.43L411 349.42L411.13 349.42L411.27 349.41L411.41 349.41L411.54 349.41L411.68 349.4L411.82 349.4L411.96 349.4L412.09 349.4L412.23 349.39L412.37 349.39L412.5 349.39L412.64 349.39L412.78 349.38L412.92 349.38L413.05 349.38L413.19 349.38L413.33 349.38L413.47 349.38L413.6 349.38L413.74 349.37L413.88 349.37L414.02 349.37L414.15 349.37L414.29 349.37L414.43 349.37L414.57 349.37L414.71 349.37L414.84 349.37ZM414.32 373.9L414.2 373.9L414.08 373.9L413.95 373.9L413.83 373.9L413.71 373.9L413.58 373.9L413.46 373.9L413.34 373.9L413.22 373.9L413.09 373.9L412.97 373.9L412.85 373.9L412.73 373.9L412.6 373.91L412.48 373.91L412.36 373.91L412.24 373.91L412.11 373.91L411.99 373.91L411.87 373.91L411.75 373.91L411.63 373.91L411.5 373.91L411.38 373.91L411.26 373.91L411.14 373.92L411.01 373.92L410.89 373.92L410.77 373.92L410.65 373.92L410.52 373.92L410.4 373.92L410.28 373.92L410.16 373.93L410.04 373.93L409.91 373.93L409.79 373.93L409.67 373.93L405.52 374.18L401.42 374.59L397.37 375.13L393.37 375.82L389.42 376.65L385.53 377.61L381.7 378.71L377.94 379.93L374.24 381.29L370.61 382.77L367.05 384.37L363.57 386.09L360.17 387.93L356.86 389.88L353.62 391.94L350.48 394.11L347.43 396.38L344.47 398.75L341.61 401.23L338.85 403.79L336.2 406.46L333.65 409.21L331.21 412.05L328.89 414.97L326.68 417.98L324.6 421.06L322.63 424.22L320.79 427.45L319.08 430.75L317.51 434.12L316.07 437.55L314.76 441.05L313.6 444.6L312.59 448.21L311.72 451.87L311 455.58L310.44 459.34L310.03 463.14L309.78 466.99L309.7 470.87L309.78 474.75L310.03 478.59L310.44 482.39L311 486.15L311.72 489.86L312.59 493.52L313.6 497.13L314.76 500.68L316.06 504.17L317.51 507.61L319.08 510.97L320.79 514.28L322.63 517.51L324.59 520.67L326.68 523.75L328.88 526.75L331.2 529.68L333.64 532.52L336.19 535.27L338.84 537.93L341.6 540.5L344.46 542.97L347.41 545.34L350.46 547.62L353.61 549.78L356.84 551.85L360.16 553.8L363.55 555.63L367.03 557.35L370.59 558.96L374.22 560.44L377.91 561.79L381.68 563.02L385.51 564.12L389.39 565.08L393.34 565.91L397.34 566.6L401.39 567.14L405.49 567.55L409.63 567.8L409.76 567.8L409.88 567.8L410 567.81L410.13 567.81L410.25 567.81L410.37 567.81L410.5 567.81L410.62 567.81L410.74 567.81L410.87 567.81L410.99 567.82L411.11 567.82L411.24 567.82L411.36 567.82L411.48 567.82L411.6 567.82L411.73 567.82L411.85 567.82L411.97 567.82L412.1 567.82L412.22 567.82L412.34 567.83L412.47 567.83L412.59 567.83L412.71 567.83L412.84 567.83L412.96 567.83L413.08 567.83L413.21 567.83L413.33 567.83L413.45 567.83L413.58 567.83L413.7 567.83L413.82 567.83L413.95 567.83L414.07 567.83L414.2 567.83L414.32 567.83L414.44 567.83L414.57 567.83L414.69 567.83L414.81 567.83L414.94 567.83L415.06 567.83L415.18 567.83L415.31 567.83L415.43 567.83L415.55 567.83L415.68 567.83L415.8 567.83L415.93 567.83L416.05 567.83L416.17 567.83L416.3 567.83L416.42 567.83L416.54 567.83L416.67 567.83L416.79 567.83L416.91 567.83L417.04 567.82L417.16 567.82L417.28 567.82L417.41 567.82L417.53 567.82L417.65 567.82L417.78 567.82L417.9 567.82L418.02 567.82L418.15 567.82L418.27 567.81L418.39 567.81L418.52 567.81L418.64 567.81L418.76 567.81L418.89 567.81L419.01 567.81L419.13 567.81L419.26 567.8L419.38 567.8L419.5 567.8L423.65 567.55L427.75 567.14L431.8 566.6L435.8 565.91L439.74 565.08L443.63 564.12L447.46 563.02L451.22 561.79L454.92 560.44L458.55 558.96L462.1 557.35L465.58 555.63L468.98 553.8L472.29 551.85L475.53 549.79L478.67 547.62L481.72 545.34L484.68 542.97L487.54 540.5L490.29 537.93L492.95 535.27L495.49 532.52L497.93 529.68L500.25 526.75L502.46 523.75L504.54 520.67L506.5 517.51L508.34 514.28L510.05 510.97L511.63 507.61L513.07 504.17L514.37 500.68L515.53 497.13L516.55 493.52L517.41 489.86L518.13 486.15L518.69 482.39L519.1 478.59L519.35 474.75L519.43 470.87L519.35 466.99L519.1 463.14L518.69 459.34L518.13 455.58L517.41 451.87L516.54 448.21L515.53 444.6L514.37 441.05L513.06 437.55L511.62 434.12L510.05 430.75L508.34 427.45L506.5 424.22L504.54 421.06L502.45 417.97L500.24 414.97L497.92 412.05L495.48 409.21L492.94 406.46L490.28 403.79L487.52 401.22L484.66 398.75L481.71 396.38L478.65 394.11L475.51 391.94L472.28 389.88L468.96 387.93L465.56 386.09L462.08 384.37L458.52 382.77L454.9 381.29L451.2 379.93L447.43 378.71L443.6 377.61L439.71 376.65L435.77 375.82L431.77 375.13L427.71 374.59L423.61 374.18L419.47 373.93L419.35 373.93L419.22 373.93L419.1 373.93L418.98 373.93L418.86 373.92L418.73 373.92L418.61 373.92L418.49 373.92L418.37 373.92L418.24 373.92L418.12 373.92L418 373.92L417.88 373.91L417.75 373.91L417.63 373.91L417.51 373.91L417.39 373.91L417.26 373.91L417.14 373.91L417.02 373.91L416.9 373.91L416.77 373.91L416.65 373.91L416.53 373.91L416.41 373.9L416.28 373.9L416.16 373.9L416.04 373.9L415.92 373.9L415.79 373.9L415.67 373.9L415.55 373.9L415.42 373.9L415.3 373.9L415.18 373.9L415.06 373.9L414.93 373.9L414.81 373.9L414.69 373.9L414.57 373.9L414.44 373.9L414.32 373.9ZM318.32 386.51L317 386.88L315.7 387.26L314.4 387.64L313.1 388.03L311.81 388.43L310.52 388.83L309.24 389.23L307.97 389.65L306.7 390.06L305.44 390.48L304.18 390.91L302.93 391.34L301.68 391.78L300.44 392.22L299.2 392.66L297.97 393.11L296.75 393.57L295.53 394.03L294.32 394.5L293.12 394.97L291.92 395.45L290.72 395.93L289.54 396.42L288.36 396.91L287.18 397.41L286.02 397.91L284.85 398.42L283.7 398.93L282.55 399.44L281.41 399.97L280.27 400.49L279.15 401.02L278.02 401.56L276.91 402.1L275.8 402.65L274.7 403.2L273.61 403.76L272.52 404.32L269.9 405.7L267.34 407.11L264.84 408.54L262.4 409.98L260.02 411.44L257.71 412.92L255.45 414.42L253.26 415.93L251.13 417.46L249.06 419.01L247.05 420.57L245.11 422.15L243.23 423.74L241.41 425.35L239.66 426.97L237.98 428.6L236.36 430.25L234.8 431.91L233.31 433.59L231.88 435.27L230.52 436.97L229.23 438.68L228.01 440.39L226.85 442.12L225.76 443.86L224.74 445.61L223.78 447.37L222.9 449.14L222.08 450.91L221.33 452.69L220.65 454.48L220.05 456.28L219.51 458.09L219.04 459.9L218.65 461.71L218.32 463.53L218.07 465.36L217.89 467.19L217.78 469.03L217.74 470.87L217.78 472.71L217.89 474.54L218.07 476.37L218.32 478.2L218.65 480.02L219.04 481.84L219.51 483.65L220.05 485.45L220.65 487.25L221.33 489.04L222.08 490.82L222.9 492.6L223.78 494.37L224.74 496.12L225.76 497.87L226.85 499.61L228.01 501.34L229.23 503.06L230.52 504.77L231.88 506.46L233.31 508.15L234.8 509.82L236.36 511.48L237.98 513.13L239.66 514.76L241.41 516.39L243.23 517.99L245.11 519.58L247.05 521.16L249.06 522.72L251.13 524.27L253.26 525.8L255.45 527.32L257.71 528.81L260.02 530.29L262.4 531.75L264.84 533.2L267.34 534.62L269.9 536.03L272.52 537.42L273.61 537.98L274.7 538.53L275.8 539.09L276.91 539.63L278.02 540.17L279.15 540.71L280.27 541.24L281.41 541.77L282.55 542.29L283.7 542.81L284.85 543.32L286.02 543.83L287.18 544.33L288.36 544.82L289.54 545.32L290.72 545.8L291.92 546.29L293.12 546.76L294.32 547.23L295.53 547.7L296.75 548.16L297.97 548.62L299.2 549.07L300.44 549.52L301.68 549.96L302.92 550.4L304.18 550.83L305.43 551.25L306.7 551.67L307.97 552.09L309.24 552.5L310.52 552.91L311.81 553.31L313.1 553.7L314.39 554.09L315.7 554.48L317 554.85L318.31 555.23L319.63 555.6L320.95 555.96L319.22 554.3L317.53 552.61L315.87 550.89L314.24 549.14L312.65 547.36L311.09 545.56L309.58 543.73L308.09 541.87L306.65 539.98L305.24 538.07L303.87 536.13L302.55 534.16L301.26 532.18L300.01 530.16L298.8 528.13L297.63 526.07L296.51 523.98L295.42 521.88L294.38 519.75L293.38 517.6L292.43 515.43L291.52 513.24L290.65 511.03L289.83 508.81L289.06 506.56L288.33 504.29L287.65 502L287.01 499.7L286.43 497.38L285.89 495.05L285.4 492.69L284.96 490.32L284.57 487.94L284.23 485.54L283.94 483.13L283.7 480.7L283.52 478.26L283.38 475.81L283.3 473.35L283.28 470.87L283.3 468.39L283.38 465.93L283.52 463.47L283.7 461.03L283.94 458.61L284.23 456.19L284.57 453.79L284.96 451.41L285.4 449.04L285.89 446.69L286.43 444.35L287.01 442.03L287.65 439.73L288.33 437.45L289.06 435.18L289.83 432.93L290.65 430.7L291.52 428.49L292.43 426.3L293.38 424.13L294.38 421.98L295.42 419.86L296.51 417.75L297.63 415.67L298.8 413.61L300.01 411.57L301.26 409.56L302.55 407.57L303.88 405.61L305.24 403.67L306.65 401.76L308.09 399.87L309.58 398.01L311.1 396.18L312.65 394.37L314.24 392.59L315.87 390.84L317.53 389.12L319.23 387.43L320.96 385.77L319.63 386.14L318.32 386.51ZM511.6 389.12L513.26 390.84L514.89 392.59L516.48 394.37L518.04 396.17L519.55 398.01L521.04 399.87L522.48 401.75L523.89 403.67L525.25 405.61L526.58 407.57L527.87 409.56L529.12 411.57L530.33 413.61L531.5 415.67L532.62 417.75L533.71 419.85L534.75 421.98L535.75 424.13L536.7 426.3L537.61 428.49L538.48 430.7L539.3 432.93L540.07 435.18L540.8 437.44L541.48 439.73L542.12 442.03L542.7 444.35L543.24 446.69L543.73 449.04L544.17 451.41L544.56 453.79L544.9 456.19L545.19 458.6L545.43 461.03L545.61 463.47L545.75 465.92L545.83 468.39L545.85 470.87L545.83 473.34L545.75 475.81L545.61 478.26L545.43 480.7L545.19 483.13L544.9 485.54L544.56 487.94L544.17 490.32L543.73 492.69L543.24 495.05L542.7 497.38L542.12 499.7L541.48 502L540.8 504.29L540.07 506.56L539.3 508.8L538.48 511.03L537.61 513.24L536.7 515.43L535.75 517.6L534.75 519.75L533.71 521.88L532.62 523.98L531.5 526.07L530.33 528.13L529.12 530.16L527.87 532.18L526.58 534.16L525.26 536.13L523.89 538.07L522.48 539.98L521.04 541.87L519.56 543.73L518.04 545.56L516.48 547.36L514.89 549.14L513.26 550.89L511.6 552.61L509.91 554.3L508.18 555.96L509.5 555.6L510.82 555.23L512.13 554.85L513.44 554.47L514.74 554.09L516.03 553.7L517.32 553.3L518.61 552.9L519.89 552.5L521.16 552.09L522.43 551.67L523.7 551.25L524.96 550.83L526.21 550.39L527.45 549.96L528.7 549.52L529.93 549.07L531.16 548.62L532.38 548.16L533.6 547.7L534.81 547.23L536.02 546.76L537.21 546.29L538.41 545.8L539.59 545.32L540.77 544.82L541.95 544.33L543.12 543.83L544.28 543.32L545.43 542.81L546.58 542.29L547.72 541.77L548.86 541.24L549.99 540.71L551.11 540.17L552.22 539.63L553.33 539.09L554.43 538.53L555.53 537.98L556.61 537.42L559.23 536.03L561.79 534.62L564.29 533.2L566.73 531.75L569.11 530.29L571.43 528.81L573.68 527.32L575.87 525.8L578.01 524.27L580.07 522.72L582.08 521.16L584.02 519.58L585.9 517.99L587.72 516.39L589.47 514.76L591.15 513.13L592.78 511.48L594.33 509.82L595.82 508.15L597.25 506.46L598.61 504.77L599.9 503.06L601.12 501.34L602.28 499.61L603.37 497.87L604.39 496.12L605.35 494.37L606.23 492.6L607.05 490.82L607.8 489.04L608.48 487.25L609.08 485.45L609.62 483.65L610.09 481.84L610.49 480.02L610.81 478.2L611.06 476.37L611.25 474.54L611.35 472.71L611.39 470.87L611.35 469.03L611.25 467.19L611.06 465.36L610.81 463.53L610.49 461.71L610.09 459.89L609.62 458.08L609.08 456.28L608.48 454.48L607.8 452.69L607.05 450.91L606.23 449.13L605.35 447.37L604.39 445.61L603.37 443.86L602.28 442.12L601.12 440.39L599.9 438.67L598.61 436.97L597.25 435.27L595.82 433.59L594.33 431.91L592.78 430.25L591.15 428.6L589.47 426.97L587.72 425.35L585.9 423.74L584.02 422.15L582.08 420.57L580.07 419.01L578.01 417.46L575.87 415.93L573.68 414.42L571.43 412.92L569.11 411.44L566.73 409.98L564.29 408.54L561.79 407.11L559.23 405.7L556.61 404.32L555.53 403.76L554.43 403.2L553.33 402.65L552.22 402.1L551.11 401.56L549.99 401.02L548.86 400.49L547.72 399.96L546.58 399.44L545.43 398.93L544.28 398.41L543.12 397.91L541.95 397.41L540.77 396.91L539.59 396.42L538.41 395.93L537.21 395.45L536.01 394.97L534.81 394.5L533.6 394.03L532.38 393.57L531.16 393.11L529.93 392.66L528.69 392.22L527.45 391.77L526.21 391.34L524.95 390.91L523.7 390.48L522.43 390.06L521.16 389.64L519.89 389.23L518.61 388.83L517.32 388.43L516.03 388.03L514.73 387.64L513.43 387.26L512.13 386.88L510.81 386.51L509.5 386.14L508.18 385.77L509.91 387.43L511.6 389.12Z" id="c2smXXPUug"></path><path d="M414.81 373.9L414.93 373.9L415.06 373.9L415.18 373.9L415.3 373.9L415.42 373.9L415.55 373.9L415.67 373.9L415.79 373.9L415.91 373.9L416.04 373.9L416.16 373.9L416.28 373.9L416.41 373.91L416.53 373.91L416.65 373.91L416.77 373.91L416.9 373.91L417.02 373.91L417.14 373.91L417.26 373.91L417.39 373.91L417.51 373.91L417.63 373.91L417.75 373.91L417.88 373.92L418 373.92L418.12 373.92L418.24 373.92L418.37 373.92L418.49 373.92L418.61 373.92L418.73 373.92L418.86 373.93L418.98 373.93L419.1 373.93L419.22 373.93L419.34 373.93L419.47 373.93L423.61 374.19L427.71 374.59L431.76 375.13L435.77 375.82L439.71 376.65L443.6 377.61L447.43 378.71L451.2 379.93L454.89 381.29L458.52 382.77L462.08 384.37L465.56 386.09L468.96 387.93L472.28 389.88L475.51 391.94L478.65 394.11L481.71 396.38L484.66 398.75L487.52 401.23L490.28 403.79L492.94 406.46L495.48 409.21L497.92 412.05L500.24 414.97L502.45 417.98L504.54 421.06L506.5 424.22L508.34 427.45L510.05 430.75L511.62 434.12L513.06 437.56L514.37 441.05L515.53 444.6L516.54 448.21L517.41 451.87L518.13 455.58L518.69 459.34L519.1 463.14L519.35 466.99L519.43 470.87L519.35 474.75L519.1 478.59L518.69 482.39L518.13 486.15L517.41 489.86L516.54 493.52L515.53 497.13L514.37 500.68L513.07 504.17L511.63 507.61L510.05 510.98L508.34 514.28L506.5 517.51L504.54 520.67L502.46 523.75L500.25 526.75L497.93 529.68L495.49 532.52L492.95 535.27L490.29 537.93L487.53 540.5L484.68 542.97L481.72 545.35L478.67 547.62L475.53 549.79L472.29 551.85L468.98 553.8L465.58 555.63L462.1 557.35L458.54 558.96L454.92 560.44L451.22 561.79L447.46 563.02L443.63 564.12L439.74 565.08L435.79 565.91L431.8 566.6L427.74 567.15L423.65 567.55L419.5 567.8L419.38 567.8L419.25 567.8L419.13 567.81L419.01 567.81L418.89 567.81L418.76 567.81L418.64 567.81L418.52 567.81L418.39 567.81L418.27 567.82L418.15 567.82L418.02 567.82L417.9 567.82L417.78 567.82L417.65 567.82L417.53 567.82L417.41 567.82L417.28 567.82L417.16 567.82L417.04 567.82L416.91 567.83L416.79 567.83L416.67 567.83L416.54 567.83L416.42 567.83L416.29 567.83L416.17 567.83L416.05 567.83L415.92 567.83L415.8 567.83L415.68 567.83L415.55 567.83L415.43 567.83L415.31 567.83L415.18 567.83L415.06 567.83L414.94 567.83L414.81 567.83L414.69 567.83L414.56 567.83L414.44 567.83L414.32 567.83L414.19 567.83L414.07 567.83L413.95 567.83L413.82 567.83L413.7 567.83L413.58 567.83L413.45 567.83L413.33 567.83L413.21 567.83L413.08 567.83L412.96 567.83L412.84 567.83L412.71 567.83L412.59 567.83L412.47 567.83L412.34 567.83L412.22 567.83L412.1 567.83L411.97 567.82L411.85 567.82L411.73 567.82L411.6 567.82L411.48 567.82L411.36 567.82L411.23 567.82L411.11 567.82L410.99 567.82L410.86 567.82L410.74 567.81L410.62 567.81L410.49 567.81L410.37 567.81L410.25 567.81L410.13 567.81L410 567.81L409.88 567.8L409.76 567.8L409.63 567.8L405.49 567.55L401.39 567.15L397.34 566.6L393.34 565.91L389.39 565.08L385.5 564.12L381.68 563.02L377.91 561.79L374.21 560.44L370.59 558.96L367.03 557.35L363.55 555.63L360.15 553.8L356.84 551.85L353.61 549.79L350.46 547.62L347.41 545.35L344.45 542.97L341.6 540.5L338.84 537.93L336.18 535.27L333.64 532.52L331.2 529.68L328.88 526.75L326.67 523.75L324.59 520.67L322.63 517.51L320.79 514.28L319.08 510.98L317.5 507.61L316.06 504.17L314.76 500.68L313.6 497.13L312.58 493.52L311.72 489.86L311 486.15L310.44 482.39L310.03 478.59L309.78 474.75L309.7 470.87L309.78 466.99L310.03 463.14L310.44 459.34L311 455.58L311.72 451.87L312.59 448.21L313.6 444.6L314.76 441.05L316.07 437.56L317.51 434.12L319.08 430.75L320.79 427.45L322.63 424.22L324.59 421.06L326.68 417.98L328.89 414.97L331.21 412.05L333.65 409.21L336.2 406.46L338.85 403.79L341.61 401.23L344.47 398.75L347.43 396.38L350.48 394.11L353.62 391.94L356.85 389.88L360.17 387.93L363.57 386.09L367.05 384.37L370.61 382.77L374.24 381.29L377.94 379.93L381.7 378.71L385.53 377.61L389.42 376.65L393.37 375.82L397.37 375.13L401.42 374.59L405.52 374.19L409.67 373.93L409.79 373.93L409.91 373.93L410.03 373.93L410.16 373.93L410.28 373.93L410.4 373.92L410.52 373.92L410.65 373.92L410.77 373.92L410.89 373.92L411.01 373.92L411.13 373.92L411.26 373.92L411.38 373.91L411.5 373.91L411.62 373.91L411.75 373.91L411.87 373.91L411.99 373.91L412.11 373.91L412.24 373.91L412.36 373.91L412.48 373.91L412.6 373.91L412.73 373.91L412.85 373.91L412.97 373.9L413.09 373.9L413.22 373.9L413.34 373.9L413.46 373.9L413.58 373.9L413.71 373.9L413.83 373.9L413.95 373.9L414.07 373.9L414.2 373.9L414.32 373.9L414.44 373.9L414.56 373.9L414.69 373.9L414.81 373.9ZM410.03 419.83L407.8 420.04L405.6 420.33L403.43 420.7L401.28 421.15L399.17 421.67L397.09 422.27L395.05 422.94L393.05 423.69L391.08 424.5L389.16 425.38L387.27 426.33L385.44 427.34L383.65 428.41L381.9 429.55L380.21 430.75L378.57 432L376.99 433.31L375.45 434.67L373.98 436.09L372.56 437.56L371.21 439.08L369.92 440.64L368.69 442.25L367.53 443.91L366.44 445.61L365.41 447.35L364.46 449.13L363.58 450.95L362.78 452.81L362.05 454.7L361.41 456.62L360.84 458.58L360.35 460.56L359.95 462.57L359.64 464.61L359.41 466.67L359.27 468.76L359.23 470.87L359.27 472.97L359.41 475.06L359.64 477.12L359.95 479.16L360.35 481.17L360.84 483.16L361.41 485.11L362.05 487.04L362.78 488.93L363.58 490.78L364.46 492.6L365.41 494.38L366.44 496.12L367.53 497.82L368.69 499.48L369.92 501.09L371.21 502.66L372.56 504.18L373.98 505.64L375.45 507.06L376.99 508.43L378.57 509.74L380.21 510.99L381.9 512.18L383.65 513.32L385.44 514.39L387.27 515.41L389.16 516.35L391.08 517.23L393.05 518.05L395.05 518.79L397.09 519.46L399.17 520.06L401.28 520.59L403.43 521.04L405.6 521.41L407.8 521.7L410.03 521.91L412.29 522.04L414.56 522.08L416.84 522.04L419.1 521.91L421.33 521.7L423.53 521.41L425.7 521.04L427.85 520.59L429.96 520.06L432.04 519.46L434.08 518.79L436.08 518.05L438.05 517.23L439.97 516.35L441.86 515.41L443.69 514.39L445.48 513.32L447.23 512.18L448.92 510.99L450.56 509.74L452.15 508.43L453.68 507.06L455.15 505.64L456.57 504.18L457.92 502.66L459.21 501.09L460.44 499.48L461.6 497.82L462.69 496.12L463.72 494.38L464.67 492.6L465.55 490.78L466.35 488.93L467.08 487.04L467.73 485.11L468.29 483.16L468.78 481.17L469.18 479.16L469.49 477.12L469.72 475.06L469.86 472.97L469.9 470.87L469.86 468.76L469.72 466.67L469.49 464.61L469.18 462.57L468.78 460.56L468.29 458.58L467.73 456.62L467.08 454.7L466.35 452.81L465.55 450.95L464.67 449.13L463.72 447.35L462.69 445.61L461.6 443.91L460.44 442.25L459.21 440.64L457.92 439.08L456.57 437.56L455.15 436.09L453.68 434.67L452.15 433.31L450.56 432L448.92 430.75L447.23 429.55L445.48 428.41L443.69 427.34L441.86 426.33L439.97 425.38L438.05 424.5L436.08 423.69L434.08 422.94L432.04 422.27L429.96 421.67L427.85 421.15L425.7 420.7L423.53 420.33L421.33 420.04L419.1 419.83L416.84 419.7L414.56 419.66L412.29 419.7L410.03 419.83Z" id="a1b8dlX1H4"></path><path d="M419.1 419.83L421.33 420.04L423.53 420.33L425.7 420.7L427.85 421.15L429.96 421.67L432.04 422.27L434.08 422.94L436.08 423.69L438.05 424.5L439.97 425.38L441.86 426.33L443.69 427.34L445.48 428.42L447.23 429.55L448.92 430.75L450.56 432L452.15 433.31L453.68 434.67L455.15 436.09L456.57 437.56L457.92 439.08L459.21 440.64L460.44 442.26L461.6 443.91L462.69 445.61L463.72 447.35L464.67 449.13L465.55 450.95L466.35 452.81L467.08 454.7L467.73 456.62L468.29 458.58L468.78 460.56L469.18 462.57L469.49 464.61L469.72 466.67L469.86 468.76L469.9 470.87L469.86 472.98L469.72 475.06L469.49 477.13L469.18 479.16L468.78 481.18L468.29 483.16L467.73 485.11L467.08 487.04L466.35 488.93L465.55 490.78L464.67 492.6L463.72 494.38L462.69 496.12L461.6 497.82L460.44 499.48L459.21 501.09L457.92 502.66L456.57 504.18L455.15 505.65L453.68 507.06L452.15 508.43L450.56 509.74L448.92 510.99L447.23 512.19L445.48 513.32L443.69 514.4L441.86 515.41L439.97 516.35L438.05 517.24L436.08 518.05L434.08 518.79L432.04 519.46L429.96 520.06L427.85 520.59L425.7 521.04L423.53 521.41L421.33 521.7L419.1 521.91L416.84 522.04L414.56 522.08L412.29 522.04L410.03 521.91L407.8 521.7L405.6 521.41L403.43 521.04L401.28 520.59L399.17 520.06L397.09 519.46L395.05 518.79L393.05 518.05L391.08 517.24L389.16 516.35L387.27 515.41L385.44 514.4L383.65 513.32L381.9 512.19L380.21 510.99L378.57 509.74L376.99 508.43L375.45 507.06L373.98 505.65L372.56 504.18L371.21 502.66L369.92 501.09L368.69 499.48L367.53 497.82L366.44 496.12L365.41 494.38L364.46 492.6L363.58 490.78L362.78 488.93L362.05 487.04L361.41 485.11L360.84 483.16L360.35 481.18L359.95 479.16L359.64 477.13L359.41 475.06L359.27 472.98L359.23 470.87L359.27 468.76L359.41 466.67L359.64 464.61L359.95 462.57L360.35 460.56L360.84 458.58L361.41 456.62L362.05 454.7L362.78 452.81L363.58 450.95L364.46 449.13L365.41 447.35L366.44 445.61L367.53 443.91L368.69 442.26L369.92 440.64L371.21 439.08L372.56 437.56L373.98 436.09L375.45 434.67L376.99 433.31L378.57 432L380.21 430.75L381.9 429.55L383.65 428.42L385.44 427.34L387.27 426.33L389.16 425.38L391.08 424.5L393.05 423.69L395.05 422.94L397.09 422.27L399.17 421.67L401.28 421.15L403.43 420.7L405.6 420.33L407.8 420.04L410.03 419.83L412.29 419.7L414.56 419.66L416.84 419.7L419.1 419.83ZM411.78 444.23L410.42 444.38L409.08 444.59L407.76 444.86L406.46 445.18L405.18 445.55L403.93 445.98L402.71 446.46L401.52 446.99L400.36 447.56L399.23 448.19L398.14 448.86L397.08 449.57L396.06 450.32L395.07 451.12L394.13 451.95L393.23 452.83L392.37 453.74L391.55 454.69L390.78 455.67L390.06 456.68L389.38 457.72L388.76 458.8L388.19 459.9L387.67 461.03L387.21 462.18L386.81 463.36L386.46 464.57L386.17 465.79L385.95 467.03L385.78 468.29L385.68 469.57L385.65 470.87L385.68 472.16L385.78 473.44L385.95 474.7L386.17 475.95L386.46 477.17L386.81 478.37L387.21 479.55L387.67 480.71L388.19 481.83L388.76 482.94L389.39 484.01L390.06 485.06L390.78 486.07L391.55 487.05L392.37 488L393.23 488.91L394.13 489.78L395.07 490.62L396.06 491.41L397.08 492.17L398.14 492.88L399.23 493.55L400.36 494.17L401.52 494.75L402.71 495.27L403.93 495.75L405.18 496.18L406.46 496.56L407.76 496.88L409.08 497.14L410.42 497.35L411.78 497.5L413.17 497.6L414.56 497.63L415.96 497.6L417.35 497.5L418.71 497.35L420.05 497.14L421.37 496.88L422.67 496.56L423.95 496.18L425.2 495.75L426.42 495.27L427.61 494.75L428.77 494.17L429.9 493.55L430.99 492.88L432.05 492.17L433.07 491.41L434.06 490.62L435 489.78L435.91 488.91L436.77 488L437.58 487.05L438.35 486.07L439.07 485.06L439.75 484.01L440.37 482.94L440.94 481.83L441.46 480.71L441.92 479.55L442.32 478.37L442.67 477.17L442.96 475.95L443.18 474.7L443.35 473.44L443.45 472.16L443.48 470.87L443.45 469.57L443.35 468.29L443.18 467.03L442.96 465.79L442.67 464.57L442.32 463.36L441.92 462.18L441.46 461.03L440.94 459.9L440.37 458.8L439.75 457.72L439.07 456.68L438.35 455.67L437.58 454.69L436.76 453.74L435.9 452.83L435 451.95L434.06 451.12L433.07 450.32L432.05 449.57L430.99 448.86L429.9 448.19L428.77 447.56L427.61 446.99L426.42 446.46L425.2 445.98L423.95 445.55L422.67 445.18L421.37 444.86L420.05 444.59L418.71 444.38L417.35 444.23L415.96 444.14L414.56 444.11L413.17 444.14L411.78 444.23Z" id="d2eXJxnQW"></path></defs><g><g><g><use xlink:href="#aOLPLoPPN" opacity="1" fill="#ecce93" fill-opacity="1"></use><g><use xlink:href="#aOLPLoPPN" opacity="1" fill-opacity="0" stroke="#000000" stroke-width="1" stroke-opacity="0"></use></g></g><g><use xlink:href="#a1QUDSstK1" opacity="1" fill="#efefef" fill-opacity="1"></use><g><use xlink:href="#a1QUDSstK1" opacity="1" fill-opacity="0" stroke="#000000" stroke-width="1" stroke-opacity="0"></use></g></g><g><use xlink:href="#a2ul6FwhO" opacity="1" fill="#e76e54" fill-opacity="1"></use><g><use xlink:href="#a2ul6FwhO" opacity="1" fill-opacity="0" stroke="#000000" stroke-width="1" stroke-opacity="0"></use></g></g><g><use xlink:href="#c3azRNFOc8" opacity="1" fill="#e76e54" fill-opacity="1"></use><g><use xlink:href="#c3azRNFOc8" opacity="1" fill-opacity="0" stroke="#000000" stroke-width="1" stroke-opacity="0"></use></g></g><g><use xlink:href="#a1k6sVUkVr" opacity="1" fill="#77959e" fill-opacity="1"></use><g><use xlink:href="#a1k6sVUkVr" opacity="1" fill-opacity="0" stroke="#000000" stroke-width="1" stroke-opacity="0"></use></g></g><g><use xlink:href="#a1mwqGSbgu" opacity="1" fill="#77959e" fill-opacity="1"></use><g><use xlink:href="#a1mwqGSbgu" opacity="1" fill-opacity="0" stroke="#000000" stroke-width="1" stroke-opacity="0"></use></g></g><g><use xlink:href="#aFSHn1Db8" opacity="1" fill="#77959e" fill-opacity="1"></use><g><use xlink:href="#aFSHn1Db8" opacity="1" fill-opacity="0" stroke="#000000" stroke-width="1" stroke-opacity="0"></use></g></g><g><use xlink:href="#c2wHWuCii" opacity="1" fill="#77959e" fill-opacity="1"></use><g><use xlink:href="#c2wHWuCii" opacity="1" fill-opacity="0" stroke="#000000" stroke-width="1" stroke-opacity="0"></use></g></g><g><use xlink:href="#a3EddhF3rf" opacity="1" fill="#77959e" fill-opacity="1"></use><g><use xlink:href="#a3EddhF3rf" opacity="1" fill-opacity="0" stroke="#000000" stroke-width="1" stroke-opacity="0"></use></g></g><g><use xlink:href="#a1yBUgTknb" opacity="1" fill="#77959e" fill-opacity="1"></use><g><use xlink:href="#a1yBUgTknb" opacity="1" fill-opacity="0" stroke="#000000" stroke-width="1" stroke-opacity="0"></use></g></g><g><use xlink:href="#a30eLcrfu" opacity="1" fill="#77959e" fill-opacity="1"></use><g><use xlink:href="#a30eLcrfu" opacity="1" fill-opacity="0" stroke="#000000" stroke-width="1" stroke-opacity="0"></use></g></g><g><use xlink:href="#a9iT9CoE0" opacity="1" fill="#000000" fill-opacity="0"></use><g><use xlink:href="#a9iT9CoE0" opacity="1" fill-opacity="0" stroke="#000000" stroke-width="1" stroke-opacity="0"></use></g></g><g><use xlink:href="#d2zBC1yF8r" opacity="1" fill="#000000" fill-opacity="0"></use><g><use xlink:href="#d2zBC1yF8r" opacity="1" fill-opacity="0" stroke="#000000" stroke-width="1" stroke-opacity="0"></use></g></g><g><use xlink:href="#a9RtEQ2ov3" opacity="1" fill="#000000" fill-opacity="0"></use><g><use xlink:href="#a9RtEQ2ov3" opacity="1" fill-opacity="0" stroke="#000000" stroke-width="1" stroke-opacity="0"></use></g></g><g><use xlink:href="#c2smXXPUug" opacity="1" fill="#3d6889" fill-opacity="1"></use><g><use xlink:href="#c2smXXPUug" opacity="1" fill-opacity="0" stroke="#000000" stroke-width="1" stroke-opacity="0"></use></g></g><g><use xlink:href="#a1b8dlX1H4" opacity="1" fill="#73d0f4" fill-opacity="1"></use><g><use xlink:href="#a1b8dlX1H4" opacity="1" fill-opacity="0" stroke="#000000" stroke-width="1" stroke-opacity="0"></use></g></g><g><use xlink:href="#d2eXJxnQW" opacity="1" fill="#3d6889" fill-opacity="1"></use><g><use xlink:href="#d2eXJxnQW" opacity="1" fill-opacity="0" stroke="#000000" stroke-width="1" stroke-opacity="0"></use></g></g></g></g></svg>