<?xml version="1.0" encoding="UTF-8" standalone="no"?>
<!DOCTYPE svg PUBLIC "-//W3C//DTD SVG 1.1//EN" "http://www.w3.org/Graphics/SVG/1.1/DTD/svg11.dtd">
<svg version="1.1" xmlns="http://www.w3.org/2000/svg" xmlns:xlink="http://www.w3.org/1999/xlink" preserveAspectRatio="xMidYMid meet" viewBox="0 0 640 640" width="640" height="640"><defs><path d="M18.51 461.52C18.51 497.36 46.97 526.42 82.08 526.42C114.57 526.42 277.04 526.42 569.48 526.42L569.48 126.19L18.51 126.19C18.51 305.03 18.51 416.81 18.51 461.52Z" id="b21IXZ7x3"></path><path d="M442.33 288.44L442.33 223.54L569.48 223.54L569.48 180.27L442.33 180.27L442.33 126.19L399.95 126.19L399.95 180.27L198.63 180.27L198.63 126.19L156.25 126.19L156.25 331.71L71.48 331.71L71.48 374.98L156.25 374.98L156.25 526.42L198.63 526.42L198.63 374.98L336.38 374.98L357.57 331.71L198.63 331.71L198.63 223.54L399.95 223.54L399.95 299.26L442.33 288.44Z" id="a4gu9cj4tL"></path><path d="M18.51 461.52C18.51 425.67 46.97 396.62 82.08 396.62C82.08 363.08 82.08 94.82 82.08 61.28C46.97 61.28 18.51 90.34 18.51 126.19C18.51 193.25 18.51 394.45 18.51 461.52Z" id="d3Oqzr9LJp"></path><path d="M474.12 277.63C386.34 277.63 315.18 350.27 315.18 439.88C315.18 529.5 386.34 602.14 474.12 602.14C561.9 602.14 633.05 529.5 633.05 439.88C633.05 350.27 561.9 277.63 474.12 277.63Z" id="a4xVa3vxX5"></path><path d="M495.31 461.52L389.35 526.42L452.93 418.25L558.89 353.35L495.31 461.52Z" id="b2GONBfYyV"></path><path d="M495.31 461.52L389.35 526.42L452.93 418.25L495.31 461.52Z" id="aZuhj53vC"></path><path d="M512.37 339.06C513.16 337.05 519.44 320.97 520.22 318.96C508.86 314.38 496.89 311.55 484.72 310.58C484.72 307.33 484.72 281.37 484.72 278.12C481.2 277.9 477.7 277.58 474.12 277.58C470.54 277.58 467.04 277.9 463.52 278.12C463.52 281.37 463.52 307.33 463.52 310.58C437.21 312.8 412.23 323.36 392.1 340.8C389.85 338.51 371.83 320.16 369.58 317.87C364.27 322.62 359.26 327.73 354.6 333.16C356.85 335.46 374.86 353.85 377.12 356.15C360.04 376.71 349.69 402.2 347.51 429.07C344.33 429.07 318.9 429.07 315.72 429.07C315.5 432.66 315.2 436.23 315.2 439.88C315.2 443.54 315.5 447.11 315.72 450.7C318.9 450.7 344.33 450.7 347.51 450.7C348.47 463.13 351.23 475.35 355.72 486.94C357.69 486.14 373.44 479.74 375.41 478.93C370.58 466.51 368.12 453.25 368.16 439.88C368.23 380.17 415.63 331.78 474.12 331.71C487.21 331.66 500.19 334.15 512.37 339.06Z" id="a7Wh0s8p38"></path><path d="M632.53 450.7C632.75 447.11 633.05 443.54 633.05 439.88C633.05 436.23 632.75 432.66 632.53 429.07C629.35 429.07 603.92 429.07 600.74 429.07C599.78 416.64 597.02 404.42 592.53 392.83C590.56 393.63 574.81 400.03 572.84 400.83C577.66 413.26 580.12 426.52 580.08 439.88C580.01 499.6 532.61 547.99 474.12 548.06C461.03 548.11 448.05 545.62 435.87 540.71C435.08 542.72 428.8 558.8 428.02 560.81C439.38 565.39 451.35 568.22 463.52 569.19C463.52 572.44 463.52 598.4 463.52 601.64C467.04 601.87 470.54 602.19 474.12 602.19C477.7 602.19 481.2 601.87 484.72 601.64C484.72 598.4 484.72 572.44 484.72 569.19C511.03 566.97 536 556.41 556.14 538.97C558.39 541.27 576.41 559.66 578.66 561.96C583.97 557.2 588.98 552.09 593.64 546.66C591.39 544.36 573.37 525.97 571.12 523.67C588.21 503.1 598.56 477.59 600.73 450.7C607.09 450.7 626.17 450.7 632.53 450.7Z" id="a4aDAPc8xq"></path><path d="M-703.44 494.54C-703.3 494.39 -700.17 490.76 -694.15 484.87C-692.97 486.08 -683.49 495.77 -682.31 496.98C-687.67 502.23 -690.46 505.44 -690.59 505.59C-693.16 503.38 -702.15 495.65 -703.44 494.54Z" id="c3oDSXgswJ"></path><path d="M-643.73 464.91L-644.98 465.81L-646.23 466.72L-647.47 467.63L-648.7 468.54L-649.94 469.46L-651.16 470.38L-652.38 471.31L-653.6 472.24L-654.81 473.17L-656.01 474.11L-657.21 475.05L-658.4 475.99L-659.58 476.93L-660.76 477.88L-661.93 478.83L-663.09 479.78L-673.86 466.71L-672.65 465.71L-671.42 464.72L-670.19 463.72L-668.95 462.73L-667.71 461.75L-666.46 460.76L-665.2 459.78L-663.93 458.81L-662.66 457.83L-661.38 456.86L-660.1 455.9L-658.81 454.94L-657.51 453.98L-656.22 453.03L-654.91 452.08L-653.6 451.14L-652.29 450.21L-642.48 464.01L-643.73 464.91Z" id="k3KgzTvho"></path><path d="M-257.59 419.2C-261.58 417.84 -265.54 416.54 -269.48 415.29C-268.97 413.67 -264.88 400.75 -264.37 399.14C-263.03 399.56 -261.69 399.99 -260.35 400.42C-260.02 399.32 -259.69 398.12 -259.32 396.82C-257.69 397.27 -244.62 400.86 -242.99 401.31C-245.2 409.36 -246.88 414.03 -246.88 414.03C-247.06 414.55 -248 417.17 -249.69 421.89C-254.43 420.27 -257.06 419.38 -257.59 419.2Z" id="cysfCRl1E"></path><path d="M-233.94 354.86L-234.12 356.36L-234.3 357.86L-234.5 359.36L-234.7 360.87L-234.91 362.38L-235.13 363.89L-235.36 365.4L-235.59 366.92L-235.83 368.43L-236.08 369.95L-236.34 371.47L-236.61 372.98L-236.88 374.5L-237.17 376.02L-237.45 377.54L-254.08 374.33L-253.81 372.89L-253.55 371.46L-253.29 370.03L-253.04 368.59L-252.79 367.16L-252.56 365.73L-252.33 364.29L-252.11 362.86L-251.9 361.44L-251.69 360.01L-251.49 358.58L-251.3 357.16L-251.12 355.74L-250.94 354.33L-250.78 352.92L-250.62 351.51L-233.77 353.37L-233.94 354.86Z" id="b7XmFrUVtW"></path><path d="M-449.24 173.94C-444.86 173.46 -440.57 173.05 -436.37 172.71C-436.23 174.4 -435.12 187.91 -434.98 189.6C-439.03 189.93 -443.18 190.32 -447.42 190.78C-447.79 187.41 -449.06 175.62 -449.24 173.94Z" id="bPGTAfrgi"></path><path d="M-414.95 124.15C-410.22 115.09 -400.82 101.39 -393.56 94.21C-378.92 79.71 -370.73 58.7 -373.71 35.87C-377.74 5 -403.13 -19.88 -434.06 -23.38C-475.78 -28.1 -511.12 4.41 -511.12 45.17C-511.12 64.31 -503.33 81.61 -490.75 94.11C-483.37 101.45 -473.78 115.45 -468.99 124.69C-462.08 138.03 -453.96 157.07 -446.26 183.32C-445.04 187.48 -439.18 187.48 -437.96 183.32C-430.16 156.71 -421.92 137.51 -414.95 124.15Z" id="j2ZRhaWCG3"></path><path d="M-442.11 -1.08C-467.77 -1.08 -488.57 19.72 -488.57 45.38C-488.57 71.04 -467.77 91.84 -442.11 91.84C-416.45 91.84 -395.65 71.04 -395.65 45.38C-395.65 19.72 -416.45 -1.08 -442.11 -1.08Z" id="cpqVGe54P"></path><path d="M206.42 171.23C211.95 160.97 219.1 151.78 227 143.31C239.49 129.94 247.01 111.63 246.5 91.51C245.56 54.19 215.93 23.09 179.63 21.38C139.34 19.47 106.1 52.46 106.1 93.42C106.1 112.68 113.46 130.18 125.44 143.11C133.37 151.68 140.63 160.89 146.2 171.23C153.64 185.01 162.88 205.94 171.63 236.19C173.01 240.98 179.61 240.98 181 236.19C189.74 205.94 198.99 185.01 206.42 171.23Z" id="b1NiT5izVc"></path><path d="M176.33 45.09C150.22 45.09 129.06 66.83 129.06 93.65C129.06 120.47 150.22 142.21 176.33 142.21C202.44 142.21 223.6 120.47 223.6 93.65C223.6 66.83 202.44 45.09 176.33 45.09Z" id="e1t2LUOXvX"></path><path d="M-222.73 350.36C-218 341.31 -208.6 327.61 -201.34 320.42C-186.7 305.92 -178.51 284.92 -181.49 262.09C-185.52 231.22 -210.91 206.34 -241.84 202.84C-283.56 198.12 -318.9 230.63 -318.9 271.39C-318.9 290.52 -311.11 307.83 -298.53 320.33C-291.15 327.66 -281.56 341.67 -276.77 350.91C-269.86 364.25 -261.74 383.29 -254.04 409.53C-252.82 413.69 -246.96 413.69 -245.74 409.53C-237.94 382.93 -229.7 363.72 -222.73 350.36Z" id="a137hBeaoi"></path><path d="M-249.91 225.14C-275.57 225.14 -296.38 245.95 -296.38 271.61C-296.38 297.27 -275.57 318.07 -249.91 318.07C-224.25 318.07 -203.45 297.27 -203.45 271.61C-203.45 245.95 -224.25 225.14 -249.91 225.14Z" id="ao5uzny7"></path></defs><g><g><g><use xlink:href="#b21IXZ7x3" opacity="1" fill="#4caf50" fill-opacity="1"></use><g><use xlink:href="#b21IXZ7x3" opacity="1" fill-opacity="0" stroke="#000000" stroke-width="1" stroke-opacity="0"></use></g></g><g><use xlink:href="#a4gu9cj4tL" opacity="1" fill="#ffd54f" fill-opacity="1"></use><g><use xlink:href="#a4gu9cj4tL" opacity="1" fill-opacity="0" stroke="#000000" stroke-width="1" stroke-opacity="0"></use></g></g><g><use xlink:href="#d3Oqzr9LJp" opacity="1" fill="#388e3c" fill-opacity="1"></use><g><use xlink:href="#d3Oqzr9LJp" opacity="1" fill-opacity="0" stroke="#000000" stroke-width="1" stroke-opacity="0"></use></g></g><g><use xlink:href="#a4xVa3vxX5" opacity="1" fill="#4c9cc0" fill-opacity="1"></use><g><use xlink:href="#a4xVa3vxX5" opacity="1" fill-opacity="0" stroke="#000000" stroke-width="1" stroke-opacity="0"></use></g></g><g><use xlink:href="#b2GONBfYyV" opacity="1" fill="#ffa001" fill-opacity="1"></use><g><use xlink:href="#b2GONBfYyV" opacity="1" fill-opacity="0" stroke="#000000" stroke-width="1" stroke-opacity="0"></use></g></g><g><use xlink:href="#aZuhj53vC" opacity="1" fill="#e64a19" fill-opacity="1"></use><g><use xlink:href="#aZuhj53vC" opacity="1" fill-opacity="0" stroke="#000000" stroke-width="1" stroke-opacity="0"></use></g></g><g><use xlink:href="#a7Wh0s8p38" opacity="1" fill="#36474f" fill-opacity="1"></use><g><use xlink:href="#a7Wh0s8p38" opacity="1" fill-opacity="0" stroke="#000000" stroke-width="1" stroke-opacity="0"></use></g></g><g><use xlink:href="#a4aDAPc8xq" opacity="1" fill="#36474f" fill-opacity="1"></use><g><use xlink:href="#a4aDAPc8xq" opacity="1" fill-opacity="0" stroke="#000000" stroke-width="1" stroke-opacity="0"></use></g></g><g><use xlink:href="#c3oDSXgswJ" opacity="1" fill="#64798a" fill-opacity="1"></use><g><use xlink:href="#c3oDSXgswJ" opacity="1" fill-opacity="0" stroke="#000000" stroke-width="1" stroke-opacity="0"></use></g></g><g><use xlink:href="#k3KgzTvho" opacity="1" fill="#64798a" fill-opacity="1"></use><g><use xlink:href="#k3KgzTvho" opacity="1" fill-opacity="0" stroke="#000000" stroke-width="1" stroke-opacity="0"></use></g></g><g><use xlink:href="#cysfCRl1E" opacity="1" fill="#64798a" fill-opacity="1"></use><g><use xlink:href="#cysfCRl1E" opacity="1" fill-opacity="0" stroke="#000000" stroke-width="1" stroke-opacity="0"></use></g></g><g><use xlink:href="#b7XmFrUVtW" opacity="1" fill="#64798a" fill-opacity="1"></use><g><use xlink:href="#b7XmFrUVtW" opacity="1" fill-opacity="0" stroke="#000000" stroke-width="1" stroke-opacity="0"></use></g></g><g><use xlink:href="#bPGTAfrgi" opacity="1" fill="#64798a" fill-opacity="1"></use><g><use xlink:href="#bPGTAfrgi" opacity="1" fill-opacity="0" stroke="#000000" stroke-width="1" stroke-opacity="0"></use></g></g><g><use xlink:href="#j2ZRhaWCG3" opacity="1" fill="#dc8744" fill-opacity="1"></use><g><use xlink:href="#j2ZRhaWCG3" opacity="1" fill-opacity="0" stroke="#000000" stroke-width="1" stroke-opacity="0"></use></g></g><g><use xlink:href="#cpqVGe54P" opacity="1" fill="#ebf0f3" fill-opacity="1"></use><g><use xlink:href="#cpqVGe54P" opacity="1" fill-opacity="0" stroke="#000000" stroke-width="1" stroke-opacity="0"></use></g></g><g><use xlink:href="#b1NiT5izVc" opacity="1" fill="#e56353" fill-opacity="1"></use><g><use xlink:href="#b1NiT5izVc" opacity="1" fill-opacity="0" stroke="#000000" stroke-width="1" stroke-opacity="0"></use></g></g><g><use xlink:href="#e1t2LUOXvX" opacity="1" fill="#ebf0f3" fill-opacity="1"></use><g><use xlink:href="#e1t2LUOXvX" opacity="1" fill-opacity="0" stroke="#000000" stroke-width="1" stroke-opacity="0"></use></g></g><g><use xlink:href="#a137hBeaoi" opacity="1" fill="#27a2db" fill-opacity="1"></use><g><use xlink:href="#a137hBeaoi" opacity="1" fill-opacity="0" stroke="#000000" stroke-width="1" stroke-opacity="0"></use></g></g><g><use xlink:href="#ao5uzny7" opacity="1" fill="#ebf0f3" fill-opacity="1"></use><g><use xlink:href="#ao5uzny7" opacity="1" fill-opacity="0" stroke="#000000" stroke-width="1" stroke-opacity="0"></use></g></g></g></g></svg>