<?xml version="1.0" encoding="UTF-8" standalone="no"?>
<!DOCTYPE svg PUBLIC "-//W3C//DTD SVG 1.1//EN" "http://www.w3.org/Graphics/SVG/1.1/DTD/svg11.dtd">
<svg version="1.1" xmlns="http://www.w3.org/2000/svg" xmlns:xlink="http://www.w3.org/1999/xlink" preserveAspectRatio="xMidYMid meet" viewBox="0 0 640 640" width="640" height="640"><defs><path d="M545.5 205.98L413.35 205.98L413.35 445.5L629.87 445.5L629.87 337.69C614.72 285.33 606.3 256.24 604.62 250.42C597 224.1 572.9 205.98 545.5 205.98" id="jdgFYMZXv"></path><path d="M575.75 258.79C571.87 245.42 559.43 236.06 545.5 236.06C538.7 236.06 504.67 236.06 443.43 236.06L443.43 336.59L598.26 336.59C584.75 289.91 577.25 263.98 575.75 258.79Z" id="c3t3VbBnw"></path><path d="M443.38 336.55L443.38 236.02L598.28 336.55L443.38 336.55Z" id="agJae2kN5"></path><path d="M575.75 258.79C571.87 245.42 559.43 236.06 545.5 236.06C538.7 236.06 504.67 236.06 443.43 236.06L598.26 336.59C584.75 289.91 577.25 263.98 575.75 258.79Z" id="aedMDSVni"></path><path d="M40 85.74C240.01 85.74 351.13 85.74 373.35 85.74C395.43 85.74 413.35 103.64 413.35 125.74C413.35 147.05 413.35 253.63 413.35 445.48L0 445.48C0 253.63 0 147.05 0 125.74C0 103.65 17.9 85.74 40 85.74" id="f27pUuxOAo"></path><path d="M640 490.67L0.05 490.67L0.05 445.47C40.13 445.47 62.4 445.47 66.85 445.47C82.45 417.47 112.44 398.54 146.84 398.54C181.1 398.54 211.1 417.47 226.83 445.47C248.33 445.47 420.26 445.47 441.75 445.47C457.35 417.47 487.2 398.54 521.6 398.54C555.99 398.54 585.86 417.47 601.59 445.47C604.15 445.47 616.95 445.47 640 445.47L640 490.67Z" id="a19wrdndHs"></path><path d="M585.47 490.39C585.47 525.66 556.87 554.26 521.6 554.26C486.32 554.26 457.75 525.66 457.75 490.39C457.75 455.11 486.33 426.51 521.6 426.51C556.89 426.51 585.47 455.11 585.47 490.39" id="d6pkv1uzu2"></path><path d="M547.27 490.39C547.27 504.56 535.78 516.04 521.62 516.04C507.45 516.04 495.94 504.56 495.94 490.39C495.94 476.21 507.44 464.73 521.62 464.73C535.78 464.72 547.27 476.21 547.27 490.39" id="eNsKA6ulp"></path><path d="M210.66 490.39C210.66 525.66 182.05 554.26 146.79 554.26C111.51 554.26 82.91 525.66 82.91 490.39C82.91 455.11 111.51 426.51 146.79 426.51C182.05 426.51 210.66 455.11 210.66 490.39" id="c7Vj67hgb"></path><path d="M172.51 23.15C88.15 23.15 19.76 92.23 19.76 177.43C19.76 262.63 88.15 331.71 172.51 331.71C256.86 331.71 325.25 262.63 325.25 177.43C325.25 92.23 256.86 23.15 172.51 23.15Z" id="duQB0fPOK"></path><path d="M173.53 490.39C173.53 504.56 162.05 516.04 147.88 516.04C133.71 516.04 122.22 504.56 122.22 490.39C122.22 476.21 133.71 464.73 147.88 464.73C162.05 464.73 173.53 476.21 173.53 490.39" id="b3fFULjNag"></path><path d="M21.48 188.88C32.03 188.88 84.77 188.88 179.71 188.88C179.71 89.45 179.71 34.2 179.71 23.15C92.26 23.15 21.36 95.17 21.36 184.01C21.36 185.64 21.43 187.26 21.48 188.88Z" id="b1rDp03JMA"></path><path d="M175.27 58.28C175.27 66.54 175.27 107.81 175.27 182.11C126.56 182.11 99.5 182.11 94.08 182.11C91.1 182.11 88.67 184.51 88.67 187.49C88.67 190.47 91.1 192.88 94.08 192.88C102.74 192.88 172.02 192.88 180.68 192.88C183.66 192.88 186.09 190.47 186.09 187.49C186.09 174.57 186.09 71.2 186.09 58.28C186.09 55.3 183.66 52.9 180.68 52.9C177.69 52.9 175.27 55.3 175.27 58.28Z" id="lfmPYzUgt"></path></defs><g><g><g><use xlink:href="#jdgFYMZXv" opacity="1" fill="#3894bd" fill-opacity="1"></use><g><use xlink:href="#jdgFYMZXv" opacity="1" fill-opacity="0" stroke="#000000" stroke-width="1" stroke-opacity="0"></use></g></g><g><use xlink:href="#c3t3VbBnw" opacity="1" fill="#84dbff" fill-opacity="1"></use><g><use xlink:href="#c3t3VbBnw" opacity="1" fill-opacity="0" stroke="#000000" stroke-width="1" stroke-opacity="0"></use></g></g><g><use xlink:href="#agJae2kN5" opacity="1" fill="#cdd6e0" fill-opacity="1"></use><g><use xlink:href="#agJae2kN5" opacity="1" fill-opacity="0" stroke="#000000" stroke-width="1" stroke-opacity="0"></use></g></g><g><use xlink:href="#aedMDSVni" opacity="1" fill="#f2f2f2" fill-opacity="1"></use><g><use xlink:href="#aedMDSVni" opacity="1" fill-opacity="0" stroke="#000000" stroke-width="1" stroke-opacity="0"></use></g></g><g><use xlink:href="#f27pUuxOAo" opacity="1" fill="#186f8a" fill-opacity="1"></use><g><use xlink:href="#f27pUuxOAo" opacity="1" fill-opacity="0" stroke="#000000" stroke-width="1" stroke-opacity="0"></use></g></g><g><use xlink:href="#a19wrdndHs" opacity="1" fill="#334a5e" fill-opacity="1"></use><g><use xlink:href="#a19wrdndHs" opacity="1" fill-opacity="0" stroke="#000000" stroke-width="1" stroke-opacity="0"></use></g></g><g><use xlink:href="#d6pkv1uzu2" opacity="1" fill="#40596b" fill-opacity="1"></use><g><use xlink:href="#d6pkv1uzu2" opacity="1" fill-opacity="0" stroke="#000000" stroke-width="1" stroke-opacity="0"></use></g></g><g><use xlink:href="#eNsKA6ulp" opacity="1" fill="#acb3ba" fill-opacity="1"></use><g><use xlink:href="#eNsKA6ulp" opacity="1" fill-opacity="0" stroke="#000000" stroke-width="1" stroke-opacity="0"></use></g></g><g><use xlink:href="#c7Vj67hgb" opacity="1" fill="#40596b" fill-opacity="1"></use><g><use xlink:href="#c7Vj67hgb" opacity="1" fill-opacity="0" stroke="#000000" stroke-width="1" stroke-opacity="0"></use></g></g><g><use xlink:href="#duQB0fPOK" opacity="1" fill="#dcaf48" fill-opacity="1"></use><g><use xlink:href="#duQB0fPOK" opacity="1" fill-opacity="0" stroke="#000000" stroke-width="1" stroke-opacity="0"></use></g></g><g><use xlink:href="#b3fFULjNag" opacity="1" fill="#acb3ba" fill-opacity="1"></use><g><use xlink:href="#b3fFULjNag" opacity="1" fill-opacity="0" stroke="#000000" stroke-width="1" stroke-opacity="0"></use></g></g><g><use xlink:href="#b1rDp03JMA" opacity="1" fill="#efce4a" fill-opacity="1"></use><g><use xlink:href="#b1rDp03JMA" opacity="1" fill-opacity="0" stroke="#000000" stroke-width="1" stroke-opacity="0"></use></g></g><g><use xlink:href="#lfmPYzUgt" opacity="1" fill="#424a60" fill-opacity="1"></use><g><use xlink:href="#lfmPYzUgt" opacity="1" fill-opacity="0" stroke="#000000" stroke-width="1" stroke-opacity="0"></use></g></g></g></g></svg>