<?xml version="1.0" encoding="UTF-8" standalone="no"?>
<!DOCTYPE svg PUBLIC "-//W3C//DTD SVG 1.1//EN" "http://www.w3.org/Graphics/SVG/1.1/DTD/svg11.dtd">
<svg version="1.1" xmlns="http://www.w3.org/2000/svg" xmlns:xlink="http://www.w3.org/1999/xlink" preserveAspectRatio="xMidYMid meet" viewBox="0 0 640 640" width="640" height="640"><defs><path d="M267.3 329.94C247.51 330.06 231.58 348.15 231.72 370.35C231.85 392.55 248 410.45 267.78 410.33C287.57 410.22 303.5 392.13 303.36 369.93C303.23 347.73 287.08 329.83 267.3 329.94Z" id="b1EBkRL99e"></path><path d="M244.78 361.16C248.04 344.94 259.63 333.26 273.35 330.49C254.77 327.01 236.8 340.36 232.6 361.23C228.24 382.87 240.36 404.41 259.66 409.33C264.49 410.57 269.32 410.64 273.91 409.71C273.22 409.58 272.53 409.44 271.84 409.26C252.54 404.34 240.42 382.8 244.78 361.16Z" id="d4XRcBc37y"></path><path d="M103.8 210.89C104.14 209.21 104.59 207.58 105.1 206C68.84 160.31 23.99 143.69 7.73 139.36C4.28 138.45 0.98 141.17 0.72 145.12C0.56 147.58 -0.73 167.3 -0.89 169.77C-1.12 173.14 1.49 175.95 4.47 175.55C41.71 170.48 76.39 191.58 98.29 209.51C99.25 209.66 100.21 209.85 101.18 210.1C102.07 210.32 102.94 210.59 103.8 210.89Z" id="d1bqmB4Qob"></path><path d="M4.38 160.7C2.53 160.95 0.83 159.96 -0.15 158.37C-0.22 159.51 -0.82 168.63 -0.89 169.77C-1.12 173.14 1.49 175.95 4.47 175.55C41.71 170.48 76.39 191.58 98.29 209.51C99.25 209.66 100.21 209.85 101.18 210.1C102.07 210.32 102.94 210.59 103.8 210.89C104.14 209.21 104.58 207.58 105.1 206C99.31 198.71 93.31 192.16 87.24 186.28C65.58 170.87 35.9 156.41 4.38 160.7Z" id="a17Lvj9crR"></path><path d="M66.48 273.71C67.61 275.18 54.28 260.57 58.66 238.78C61.74 223.48 72.29 212.25 85.02 208.83C68.18 202.7 44.15 201.18 19.11 218.42C16.93 219.91 16.51 223.26 18.25 225.36C21.8 229.62 28.25 236.48 36.91 242.08C39.18 243.55 39.5 247.03 37.56 249C30.48 256.17 23.92 265.63 18.64 278.1C17.54 280.69 18.81 283.77 21.29 284.46C26.79 285.99 37.88 288.01 48.97 286.86C53.49 280.6 59.61 276 66.48 273.71Z" id="c6vCFhPMK"></path><path d="M31.56 278.03C36.85 265.56 43.4 256.09 50.49 248.92C52.43 246.96 52.1 243.47 49.83 242.01C41.17 236.41 34.73 229.55 31.18 225.28C29.43 223.19 29.86 219.84 32.03 218.34C44.28 209.91 56.28 205.98 67.32 204.86C53.07 203.58 36.33 206.57 19.11 218.42C16.93 219.91 16.51 223.26 18.25 225.36C21.8 229.62 28.25 236.48 36.91 242.08C39.18 243.55 39.5 247.03 37.56 249C30.48 256.17 23.92 265.63 18.64 278.1C17.54 280.69 18.81 283.77 21.29 284.46C26.78 285.99 37.83 288 48.89 286.87C42.8 286.39 37.51 285.3 34.22 284.38C31.74 283.69 30.47 280.61 31.56 278.03Z" id="b9HIkS75y"></path><path d="M152.13 182.98C156.64 175.02 163.53 169.17 171.44 166.37C173.37 150.48 168.9 134.54 166.76 127.17C165.96 124.45 163.14 123.25 160.92 124.66C150.21 131.46 142.27 139.47 136.4 147.92C134.79 150.23 131.67 150.11 130.21 147.68C124.61 138.38 118.06 131.66 114.01 127.98C112.03 126.18 109.08 126.9 107.9 129.44C94.16 159.15 98.06 186.26 104.92 204.73C111.33 186.95 129.07 176.49 146.3 180.89C148.33 181.4 150.27 182.11 152.13 182.98Z" id="a1zvuH18E8"></path><path d="M114.01 127.98C112.03 126.18 109.08 126.9 107.9 129.44C94.16 159.15 98.06 186.26 104.92 204.73C106.81 199.49 109.69 194.89 113.25 191.11C109.68 174.81 109.53 154.5 118.76 132.65C116.98 130.77 115.36 129.2 114.01 127.98Z" id="cjYB6IvB1"></path><path d="M181.09 163.45C161.3 163.56 145.37 181.65 145.51 203.85C145.64 226.05 161.79 243.95 181.57 243.84C201.36 243.72 217.29 225.63 217.15 203.44C217.02 181.24 200.87 163.33 181.09 163.45Z" id="cDCcGJnpv"></path><path d="M158.57 194.66C161.83 178.44 173.42 166.76 187.14 164C168.56 160.52 150.59 173.86 146.39 194.73C142.03 216.38 154.15 237.92 173.45 242.84C178.28 244.07 183.11 244.14 187.7 243.22C187.01 243.09 186.32 242.94 185.63 242.77C166.33 237.85 154.21 216.31 158.57 194.66Z" id="lQ01ypFAO"></path><path d="M142.5 294.2C122.72 294.31 106.79 312.4 106.93 334.6C107.06 356.8 123.21 374.71 142.99 374.59C162.77 374.48 178.7 356.39 178.57 334.19C178.43 311.99 162.29 294.09 142.5 294.2Z" id="e1eGhM8n"></path><path d="M119.99 325.42C123.25 309.19 134.84 297.52 148.56 294.75C129.98 291.27 112.01 304.62 107.81 325.49C103.45 347.13 115.57 368.67 134.87 373.59C139.7 374.82 144.53 374.9 149.12 373.97C148.43 373.84 147.74 373.7 147.05 373.52C127.75 368.6 115.63 347.06 119.99 325.42Z" id="dJ5Czn6K"></path><path d="M75.08 271.48C55.3 271.59 39.37 289.68 39.5 311.88C39.64 334.08 55.78 351.98 75.57 351.87C95.35 351.75 111.28 333.67 111.15 311.47C111.01 289.27 94.87 271.36 75.08 271.48Z" id="d6XLh4DSW1"></path><path d="M52.57 302.69C55.83 286.47 67.42 274.79 81.14 272.03C62.56 268.54 44.58 281.89 40.39 302.76C36.03 324.41 48.15 345.94 67.44 350.87C72.28 352.1 77.11 352.17 81.7 351.25C81.01 351.12 80.32 350.97 79.62 350.8C60.33 345.87 48.21 324.34 52.57 302.69Z" id="d23l0xQYO6"></path><path d="M137.21 177.93C117.42 178.04 101.49 196.13 101.63 218.33C101.76 240.53 117.91 258.44 137.69 258.32C157.48 258.21 173.41 240.12 173.27 217.92C173.14 195.72 156.99 177.81 137.21 177.93Z" id="b62YBclkhg"></path><path d="M114.7 209.14C117.96 192.92 129.55 181.25 143.27 178.48C124.68 174.99 106.7 188.34 102.51 209.21C98.15 230.86 110.27 252.4 129.56 257.32C134.4 258.55 139.23 258.62 143.82 257.7C143.14 257.57 142.45 257.42 141.76 257.25C122.46 252.33 110.35 230.79 114.7 209.14Z" id="abtc7h98L"></path><path d="M188.49 217.13C168.85 217.24 153.04 235.2 153.18 257.23C153.31 279.26 169.33 297.03 188.97 296.91C208.6 296.8 224.41 278.85 224.28 256.82C224.14 234.78 208.12 217.02 188.49 217.13Z" id="aho6DjCBr"></path><path d="M166.24 248.1C169.48 232.02 180.95 220.44 194.55 217.68C176.09 214.18 158.22 227.44 154.04 248.17C149.72 269.66 161.75 291.04 180.9 295.92C185.72 297.15 190.53 297.21 195.09 296.29C194.43 296.16 193.76 296.02 193.1 295.85C173.94 290.97 161.92 269.59 166.24 248.1Z" id="aBs4ernsx"></path><path d="M243.7 272.35C224.07 272.47 208.26 290.42 208.39 312.45C208.53 334.48 224.55 352.25 244.19 352.13C263.82 352.02 279.63 334.07 279.49 312.04C279.36 290.01 263.34 272.24 243.7 272.35Z" id="bD1YXEbKi"></path><path d="M221.46 303.33C224.69 287.24 236.17 275.66 249.77 272.9C231.31 269.41 213.43 282.66 209.26 303.4C204.94 324.88 216.96 346.26 236.12 351.14C240.93 352.37 245.74 352.44 250.31 351.51C249.65 351.38 248.98 351.24 248.31 351.07C229.16 346.19 217.14 324.81 221.46 303.33Z" id="l1vHsFB2DO"></path><path d="M202.89 320.49C183.25 320.6 167.45 338.56 167.58 360.59C167.71 382.62 183.74 400.39 203.37 400.27C223 400.16 238.81 382.21 238.68 360.17C238.54 338.14 222.52 320.38 202.89 320.49Z" id="a1HM81LKUk"></path><path d="M180.64 351.46C183.88 335.38 195.36 323.8 208.96 321.04C190.49 317.54 172.62 330.8 168.45 351.54C164.13 373.02 176.15 394.4 195.3 399.28C200.12 400.51 204.93 400.58 209.5 399.65C208.83 399.52 208.17 399.38 207.5 399.21C188.35 394.33 176.32 372.95 180.64 351.46Z" id="a3al4T6Ho5"></path><path d="M91.88 207.75C72.25 207.86 56.44 225.81 56.57 247.84C56.7 269.88 72.73 287.64 92.36 287.53C112 287.42 127.8 269.46 127.67 247.43C127.54 225.4 111.51 207.63 91.88 207.75Z" id="b2GGZEVSb"></path><path d="M69.63 238.72C72.87 222.64 84.35 211.06 97.95 208.3C79.48 204.8 61.61 218.05 57.44 238.79C53.12 260.28 65.14 281.65 84.29 286.54C89.11 287.77 93.92 287.83 98.49 286.9C97.82 286.78 97.16 286.64 96.49 286.47C77.34 281.58 65.31 260.21 69.63 238.72Z" id="a4CnoUAJmh"></path><path d="M135.1 246.77C115.46 246.89 99.65 264.84 99.79 286.87C99.92 308.9 115.95 326.67 135.58 326.55C155.21 326.44 171.02 308.49 170.89 286.46C170.75 264.43 154.73 246.66 135.1 246.77Z" id="fHJ8kiBok"></path><path d="M112.7 277.75C115.94 261.66 127.41 250.08 141.01 247.32C122.55 243.83 104.68 257.08 100.51 277.82C96.18 299.3 108.21 320.68 127.36 325.56C132.18 326.79 136.99 326.86 141.55 325.93C140.89 325.8 140.22 325.66 139.56 325.49C120.4 320.61 108.38 299.23 112.7 277.75Z" id="a25G5Cli"></path><path d="M200.65 259.58C181.02 259.69 165.21 277.64 165.34 299.68C165.48 321.71 181.5 339.47 201.14 339.36C220.77 339.25 236.58 321.29 236.44 299.26C236.31 277.23 220.29 259.46 200.65 259.58Z" id="c6UuvLIPS"></path><path d="M178.25 290.55C181.49 274.47 192.97 262.89 206.57 260.13C188.1 256.63 170.23 269.89 166.06 290.62C161.74 312.11 173.76 333.49 192.91 338.37C197.73 339.6 202.54 339.66 207.11 338.74C206.44 338.61 205.78 338.47 205.11 338.3C185.96 333.42 173.93 312.04 178.25 290.55Z" id="b3p2dqCIFY"></path><path d="M368.87 362.83C352.7 351.69 328.99 357.36 315.91 375.51C302.84 393.66 305.35 417.41 321.52 428.55C337.7 439.7 361.41 434.02 374.48 415.87C387.56 397.73 385.04 373.98 368.87 362.83Z" id="auIMNJdnG"></path><path d="M332 375.45C344.29 364.1 360.66 361.18 373.47 366.72C360.42 353.33 337.86 353.98 322.05 368.59C305.65 383.74 302.72 408.15 315.5 423.12C318.71 426.87 322.59 429.67 326.88 431.53C326.39 431.03 325.92 430.52 325.46 429.98C312.67 415.01 315.6 390.6 332 375.45Z" id="hiDWvROBY"></path><path d="M306.49 173.05C307.77 171.87 309.09 170.79 310.45 169.8C308.07 112.01 281.44 73 270.76 60.24C268.5 57.54 264.19 57.88 261.64 60.94C260.05 62.86 247.28 78.18 245.69 80.09C243.51 82.71 243.95 86.48 246.63 87.84C279.94 104.88 295.64 141.75 302.82 168.79C303.51 169.46 304.19 170.16 304.83 170.91C305.42 171.6 305.97 172.31 306.49 173.05Z" id="ivXEeK5Ps"></path><path d="M255.37 75.71C253.71 74.86 252.91 73.08 253.07 71.24C252.33 72.12 246.43 79.21 245.69 80.09C243.51 82.71 243.95 86.48 246.63 87.84C279.94 104.88 295.64 141.75 302.82 168.79C303.51 169.46 304.19 170.16 304.82 170.91C305.42 171.6 305.97 172.31 306.49 173.04C307.77 171.87 309.09 170.79 310.45 169.8C310.07 160.58 309.07 151.84 307.62 143.6C299.15 118.76 283.57 90.13 255.37 75.71Z" id="b3X0Qqnraf"></path><path d="M238.8 202.98C238.85 204.81 236.68 185.35 253.18 170.11C264.78 159.4 280.03 156.25 292.43 160.69C282.36 146.14 263.7 131.25 233.08 131.06C230.42 131.04 228.08 133.52 228.26 136.22C228.62 141.71 229.79 150.95 233.51 160.43C234.49 162.91 232.69 165.93 229.94 166.43C219.91 168.24 208.96 172.22 197.25 179.37C194.82 180.85 194.03 184.08 195.63 186.05C199.2 190.43 207.03 198.37 216.74 203.73C224.14 201.2 231.85 200.94 238.8 202.98Z" id="bGszV58On"></path><path d="M207.82 186.65C219.52 179.5 230.48 175.52 240.51 173.71C243.25 173.22 245.05 170.2 244.08 167.71C240.35 158.23 239.18 148.99 238.82 143.5C238.65 140.81 240.99 138.32 243.65 138.34C258.62 138.43 270.73 142.05 280.37 147.41C269.53 138.27 254.13 131.19 233.08 131.06C230.42 131.04 228.08 133.52 228.26 136.22C228.62 141.71 229.79 150.95 233.51 160.43C234.49 162.92 232.69 165.93 229.94 166.43C219.91 168.24 208.96 172.22 197.25 179.37C194.82 180.85 194.03 184.08 195.63 186.05C199.19 190.42 207 198.33 216.67 203.7C212 199.84 208.33 195.95 206.2 193.33C204.59 191.36 205.39 188.14 207.82 186.65Z" id="d1ELQuYdBZ"></path><path d="M397.58 178.33C381.4 167.18 357.7 172.86 344.62 191.01C331.55 209.15 334.06 232.9 350.23 244.05C366.4 255.19 390.11 249.52 403.19 231.37C416.26 213.22 413.75 189.48 397.58 178.33Z" id="a10vLHIjvi"></path><path d="M362.4 177.78C370.8 173.86 379.89 173.01 387.99 175.23C398.99 163.39 404.82 147.88 407.45 140.66C408.43 138 406.84 135.41 404.2 135.3C391.44 134.75 380.22 136.76 370.42 140.3C367.74 141.27 365.27 139.4 365.53 136.59C366.49 125.84 365.15 116.64 364.04 111.36C363.49 108.76 360.67 107.67 358.2 109.07C329.37 125.45 316.45 149.73 311.06 168.67C326.84 157.83 347.49 159.4 358.9 172.76C360.25 174.34 361.41 176.02 362.4 177.78Z" id="b1ICwlgenL"></path><path d="M364.04 111.36C363.49 108.76 360.67 107.67 358.2 109.07C329.38 125.45 316.45 149.73 311.06 168.67C315.71 165.47 320.79 163.37 325.92 162.31C332.71 147.01 344.65 130.4 365.13 117.85C364.8 115.32 364.41 113.12 364.04 111.36Z" id="a3AHKhyQeb"></path><path d="M360.71 190.95C373 179.6 389.36 176.67 402.18 182.22C389.12 168.83 366.56 169.48 350.75 184.08C334.35 199.23 331.42 223.65 344.21 238.61C347.41 242.37 351.3 245.17 355.58 247.02C355.1 246.52 354.62 246.01 354.16 245.48C341.38 230.51 344.31 206.09 360.71 190.95Z" id="c1hl8RvOHo"></path><path d="M288.52 262.85C272.34 251.7 248.63 257.37 235.56 275.52C222.48 293.67 225 317.42 241.17 328.56C257.34 339.71 281.05 334.03 294.12 315.89C307.2 297.74 304.69 273.99 288.52 262.85Z" id="a1jVFR04Gn"></path><path d="M251.65 275.46C263.94 264.11 280.31 261.19 293.12 266.74C280.06 253.35 257.51 254 241.69 268.6C225.29 283.75 222.36 308.16 235.15 323.13C238.35 326.88 242.24 329.68 246.52 331.54C246.04 331.04 245.56 330.53 245.11 329.99C232.32 315.02 235.25 290.61 251.65 275.46Z" id="d4S7F5jxK4"></path><path d="M247.13 206.05C230.96 194.9 207.25 200.57 194.17 218.72C181.1 236.87 183.61 260.62 199.78 271.76C215.95 282.91 239.66 277.23 252.74 259.09C265.81 240.94 263.3 217.19 247.13 206.05Z" id="a6CoeU5GG"></path><path d="M210.26 218.66C222.56 207.31 238.92 204.39 251.74 209.93C238.68 196.54 216.12 197.2 200.31 211.8C183.91 226.95 180.98 251.36 193.76 266.33C196.97 270.08 200.85 272.88 205.14 274.74C204.65 274.24 204.18 273.73 203.72 273.19C190.93 258.22 193.86 233.81 210.26 218.66Z" id="asrq06vB"></path><path d="M353.26 165.19C337.09 154.04 313.38 159.72 300.3 177.87C287.23 196.01 289.74 219.76 305.91 230.91C322.08 242.05 345.79 236.38 358.87 218.23C371.94 200.08 369.43 176.34 353.26 165.19Z" id="b7Je2QKQT"></path><path d="M316.4 177.81C328.69 166.47 345.05 163.54 357.86 169.08C344.81 155.69 322.25 156.34 306.43 170.94C290.03 186.09 287.1 210.5 299.89 225.47C303.09 229.23 306.98 232.03 311.27 233.88C310.79 233.39 310.31 232.88 309.86 232.34C297.07 217.38 300 192.96 316.4 177.81Z" id="eeKrVjAW6"></path><path d="M371.72 226.23C355.67 215.17 332.14 220.8 319.16 238.81C306.19 256.82 308.68 280.39 324.73 291.45C340.78 302.51 364.31 296.88 377.28 278.87C390.26 260.86 387.77 237.29 371.72 226.23Z" id="c15klCrv0R"></path><path d="M335.21 238.81C347.4 227.55 363.62 224.65 376.33 230.13C363.38 216.79 340.96 217.43 325.24 231.94C308.97 246.97 306.06 271.2 318.75 286.06C321.94 289.79 325.82 292.58 330.09 294.42C329.62 293.94 329.16 293.45 328.72 292.93C316.03 278.07 318.94 253.84 335.21 238.81Z" id="a2qjpD7ud"></path><path d="M383.87 302.55C367.82 291.49 344.29 297.12 331.31 315.13C318.34 333.14 320.83 356.71 336.88 367.77C352.93 378.83 376.46 373.2 389.43 355.19C402.41 337.18 399.92 313.61 383.87 302.55Z" id="a38uw8Om0K"></path><path d="M347.37 315.13C359.55 303.87 375.77 300.97 388.48 306.45C375.53 293.11 353.11 293.75 337.4 308.26C321.12 323.29 318.21 347.52 330.9 362.38C334.09 366.12 337.97 368.9 342.24 370.74C341.77 370.26 341.31 369.77 340.87 369.25C328.18 354.39 331.09 330.16 347.37 315.13Z" id="c3vfL7o7x"></path><path d="M321.28 324.68C305.23 313.62 281.7 319.25 268.73 337.26C255.75 355.27 258.24 378.84 274.29 389.9C290.34 400.96 313.87 395.33 326.85 377.32C339.82 359.31 337.33 335.74 321.28 324.68Z" id="a39lIXrHM"></path><path d="M284.78 337.26C296.97 326.01 313.19 323.1 325.9 328.58C312.95 315.24 290.52 315.88 274.81 330.39C258.53 345.42 255.63 369.65 268.32 384.51C271.51 388.25 275.38 391.03 279.65 392.87C279.18 392.39 278.73 391.9 278.29 391.38C265.6 376.53 268.5 352.29 284.78 337.26Z" id="b9C73aYxe"></path><path d="M298.65 163.71C282.6 152.65 259.07 158.28 246.1 176.29C233.12 194.3 235.61 217.87 251.66 228.93C267.71 239.99 291.24 234.36 304.22 216.35C317.19 198.34 314.7 174.77 298.65 163.71Z" id="b3TFiQDQCa"></path><path d="M262.15 176.29C274.33 165.03 290.56 162.13 303.27 167.61C290.31 154.27 267.89 154.9 252.18 169.42C235.9 184.45 232.99 208.68 245.68 223.54C248.88 227.27 252.75 230.06 257.02 231.9C256.55 231.42 256.1 230.93 255.65 230.41C242.96 215.55 245.87 191.32 262.15 176.29Z" id="ejXjvEu46"></path><path d="M310.65 220.03C294.6 208.97 271.07 214.6 258.1 232.61C245.12 250.62 247.62 274.19 263.66 285.25C279.71 296.31 303.24 290.68 316.22 272.67C329.19 254.66 326.7 231.09 310.65 220.03Z" id="bcecFcGP9"></path><path d="M274.03 232.52C286.21 221.27 302.44 218.36 315.15 223.84C302.19 210.51 279.77 211.14 264.06 225.65C247.78 240.68 244.87 264.92 257.56 279.77C260.76 283.51 264.63 286.29 268.9 288.13C268.43 287.65 267.98 287.16 267.53 286.64C254.84 271.79 257.75 247.55 274.03 232.52Z" id="e18aM4GGLL"></path><path d="M340.58 272.72C324.53 261.66 301 267.29 288.02 285.3C275.05 303.31 277.54 326.87 293.59 337.93C309.64 349 333.17 343.36 346.14 325.35C359.12 307.34 356.63 283.78 340.58 272.72Z" id="cbcJtcvvn"></path><path d="M303.95 285.21C316.13 273.95 332.36 271.04 345.07 276.52C332.11 263.19 309.69 263.82 293.98 278.33C277.7 293.37 274.79 317.6 287.49 332.46C290.68 336.19 294.55 338.98 298.82 340.82C298.35 340.34 297.9 339.85 297.46 339.33C284.76 324.47 287.67 300.24 303.95 285.21Z" id="e1CwOdAK3n"></path><path d="M406.62 395.59C405.94 376.26 387 361.2 364.31 361.96C341.63 362.73 323.79 379.03 324.47 398.37C325.15 417.7 344.1 432.76 366.78 432C389.47 431.23 407.3 414.93 406.62 395.59Z" id="b4yY5AS7X"></path><path d="M374.08 374.47C390.75 377.2 403.02 388.19 406.23 401.53C409.26 383.27 395.11 366.07 373.66 362.56C351.41 358.93 329.74 371.38 325.26 390.39C324.14 395.15 324.21 399.88 325.28 404.34C325.39 403.66 325.52 402.98 325.68 402.3C330.16 383.29 351.83 370.83 374.08 374.47Z" id="b3R35WPvWq"></path><path d="M574.33 306.56C573.64 287.22 554.7 272.16 532.02 272.93C509.33 273.69 491.49 289.99 492.18 309.33C492.86 328.67 511.8 343.72 534.49 342.96C557.17 342.19 575.01 325.9 574.33 306.56Z" id="a28mX7J5Q5"></path><path d="M541.78 285.43C558.45 288.16 570.72 299.15 573.93 312.49C576.96 294.23 562.81 277.04 541.36 273.53C519.11 269.89 497.44 282.35 492.97 301.35C491.84 306.12 491.91 310.84 492.98 315.3C493.1 314.62 493.23 313.94 493.39 313.26C497.86 294.25 519.53 281.79 541.78 285.43Z" id="dsaWskzSh"></path><path d="M429.65 280.77C428.97 261.43 410.03 246.37 387.34 247.14C364.66 247.9 346.82 264.2 347.5 283.54C348.18 302.88 367.13 317.93 389.81 317.17C412.5 316.4 430.33 300.11 429.65 280.77Z" id="adtGjtslp"></path><path d="M459.27 214.16C458.59 194.82 439.65 179.76 416.96 180.53C394.28 181.29 376.44 197.59 377.12 216.93C377.81 236.27 396.75 251.32 419.43 250.56C442.12 249.79 459.96 233.49 459.27 214.16Z" id="f1SBcoorX2"></path><path d="M426.73 193.03C443.4 195.76 455.67 206.76 458.89 220.09C461.91 201.83 447.76 184.64 426.31 181.13C404.06 177.49 382.4 189.95 377.92 208.96C376.79 213.72 376.86 218.44 377.93 222.9C378.05 222.22 378.18 221.54 378.34 220.86C382.82 201.85 404.48 189.4 426.73 193.03Z" id="b4w7hsP199"></path><path d="M402.06 253.11C418.73 255.83 431 266.83 434.22 280.17C437.24 261.9 423.09 244.71 401.64 241.2C379.39 237.56 357.73 250.02 353.25 269.03C352.12 273.79 352.19 278.51 353.26 282.97C353.38 282.29 353.51 281.61 353.67 280.93C358.15 261.93 379.81 249.47 402.06 253.11Z" id="b3Rr7DfefA"></path><path d="M558.27 264.07C557.59 244.73 538.65 229.68 515.96 230.44C493.28 231.21 475.44 247.5 476.12 266.84C476.8 286.18 495.75 301.24 518.43 300.47C541.12 299.71 558.95 283.41 558.27 264.07Z" id="d2vH3KBmMj"></path><path d="M525.73 242.96C542.4 245.69 554.66 256.68 557.88 270.01C560.91 251.75 546.76 234.55 525.31 231.04C503.06 227.4 481.39 239.86 476.91 258.87C475.79 263.63 475.85 268.36 476.93 272.82C477.04 272.14 477.17 271.47 477.33 270.79C481.81 251.78 503.48 239.32 525.73 242.96Z" id="a9mbBxntM"></path><path d="M519.67 315.32C518.99 296.13 500.19 281.19 477.68 281.95C455.17 282.71 437.47 298.88 438.14 318.07C438.82 337.27 457.62 352.21 480.13 351.45C502.64 350.69 520.35 334.52 519.67 315.32Z" id="d493EheR7"></path><path d="M487.38 294.46C503.91 297.16 516.07 308.06 519.28 321.27C522.33 303.12 508.27 286.03 486.96 282.54C464.88 278.93 443.37 291.29 438.93 310.16C437.81 314.9 437.88 319.6 438.96 324.05C439.07 323.39 439.19 322.74 439.35 322.08C443.79 303.22 465.3 290.85 487.38 294.46Z" id="b1HW86KthO"></path><path d="M464.81 370.88C464.13 351.69 445.33 336.75 422.82 337.51C400.31 338.27 382.6 354.44 383.28 373.63C383.96 392.83 402.76 407.77 425.27 407.01C447.78 406.25 465.48 390.08 464.81 370.88Z" id="a1i2Y78doc"></path><path d="M432.52 350.02C449.05 352.72 461.21 363.61 464.42 376.83C467.47 358.68 453.41 341.59 432.1 338.1C410.01 334.49 388.51 346.85 384.06 365.72C382.95 370.46 383.02 375.16 384.09 379.6C384.2 378.95 384.33 378.3 384.48 377.64C388.93 358.77 410.43 346.41 432.52 350.02Z" id="n4lhKM3oOr"></path><path d="M409.68 339.03C409.01 319.84 390.21 304.9 367.69 305.66C345.18 306.42 327.48 322.59 328.16 341.78C328.83 360.97 347.63 375.91 370.15 375.15C392.66 374.4 410.36 358.22 409.68 339.03Z" id="fvi7F1J7T"></path><path d="M377.39 318.17C393.92 320.87 406.09 331.76 409.3 344.98C412.34 326.83 398.28 309.73 376.97 306.25C354.89 302.64 333.38 315 328.94 333.87C327.82 338.61 327.89 343.31 328.97 347.75C329.08 347.1 329.21 346.44 329.36 345.79C333.81 326.92 355.31 314.56 377.39 318.17Z" id="clV9oGfg5"></path><path d="M494.21 199.75C510.74 202.45 522.91 213.34 526.11 226.56C529.16 208.41 515.1 191.31 493.79 187.82C471.71 184.21 450.2 196.58 445.76 215.44C444.64 220.19 444.71 224.89 445.79 229.33C445.9 228.68 446.02 228.02 446.18 227.37C450.63 208.5 472.13 196.13 494.21 199.75Z" id="buxFPk4Y8"></path><path d="M526.51 222.89C526.07 242.09 507.45 257.24 484.93 256.75C462.41 256.25 444.52 240.28 444.96 221.08C445.41 201.88 464.02 186.73 486.54 187.22C509.06 187.72 526.96 203.69 526.51 222.89Z" id="bae24DpvbG"></path><path d="M487.85 263.97C487.17 244.78 468.38 229.84 445.86 230.6C423.35 231.36 405.65 247.53 406.32 266.72C407 285.92 425.8 300.86 448.31 300.1C470.83 299.34 488.53 283.17 487.85 263.97Z" id="aWFk8499p"></path><path d="M455.55 242.97C472.08 245.67 484.25 256.56 487.46 269.78C490.5 251.63 476.45 234.53 455.13 231.04C433.05 227.43 411.55 239.8 407.1 258.66C405.99 263.41 406.05 268.11 407.13 272.55C407.24 271.9 407.37 271.24 407.52 270.58C411.97 251.72 433.47 239.35 455.55 242.97Z" id="b3iUVgPJNv"></path><path d="M462.98 319.12C462.31 299.93 443.51 284.99 420.99 285.74C398.48 286.5 380.78 302.68 381.46 321.87C382.13 341.06 400.93 356 423.44 355.24C445.96 354.48 463.66 338.31 462.98 319.12Z" id="b1TfHQbKPu"></path><path d="M430.68 298.11C447.21 300.81 459.38 311.7 462.59 324.92C465.63 306.77 451.58 289.67 430.26 286.18C408.18 282.57 386.68 294.94 382.23 313.8C381.12 318.55 381.19 323.25 382.26 327.69C382.37 327.04 382.5 326.38 382.65 325.72C387.1 306.86 408.6 294.49 430.68 298.11Z" id="k13g4k4iR7"></path><path d="M446.16 222.59C435.9 217.48 430.2 214.64 429.06 214.08C407.9 203.54 382.8 212.69 372.99 234.51C372.66 235.24 372.35 235.98 372.06 236.73C371.43 238.38 368.25 246.63 362.53 261.48L363.87 277.8L450.17 271.56L446.16 222.59Z" id="e2Fw1GJii3"></path><path d="M333.82 296.39C337.45 288.76 339.46 284.51 339.87 283.67C348.4 265.7 366.73 255.15 386.08 257.08C387.12 257.18 392.35 257.7 401.76 258.64L407.11 323.93L336.49 329.04L333.82 296.39Z" id="b5FTGvy76L"></path><path d="M427.3 281.42C430.86 258.54 432.84 245.82 433.24 243.28C437.21 217.79 460.37 200.79 484.97 205.31C489.18 206.09 493.27 207.47 497.12 209.44C500.09 210.95 514.93 218.5 541.64 232.1L546.32 289.23L428.64 297.74L427.3 281.42Z" id="c1fEz5S89P"></path><path d="M598.08 342.95C600.08 367.44 601.2 381.04 601.42 383.76C602.89 401.79 590.04 417.42 572.71 418.67C572.11 418.72 567.31 419.06 566.72 419.11C555.96 419.89 545.62 414.28 539.99 404.62C539.68 400.81 538.12 381.77 535.31 347.49L598.08 342.95Z" id="a9VABoF12"></path><path d="M463.36 336.28C465.77 365.66 467.11 381.98 467.37 385.25C469.22 407.78 488.28 424.78 509.94 423.21C531.61 421.65 547.68 402.11 545.83 379.57C545.56 376.31 544.23 359.98 541.82 330.6L463.36 336.28Z" id="a4teZYl0pC"></path><path d="M414.46 413.7C401.94 421.45 394.99 425.75 393.6 426.61C378.63 435.87 359.9 436.01 344.53 426.98C344.53 426.98 344.52 426.97 344.52 426.97L339.17 361.68L409.78 356.57L414.46 413.7Z" id="g1gRfQ6pB"></path><path d="M314.96 355.22C313.24 353.69 312.29 352.84 312.1 352.67C299.25 341.21 296.79 321.61 306.41 307.46C316.53 292.56 336.4 289 351.1 299.46C352.13 300.19 357.27 303.85 366.54 310.44L370.55 359.41L315.63 363.38L314.96 355.22Z" id="c98VA5bFh"></path><path d="M618.27 300.45C619.45 314.84 620.1 322.83 620.24 324.43C621.73 342.74 608.69 358.6 591.09 359.88C589.55 359.99 581.87 360.54 568.03 361.55L563.35 304.42L618.27 300.45Z" id="as96PXoc"></path><path d="M518.77 241.97C556.43 239.24 577.36 237.73 581.54 237.43C603.21 235.86 622.26 252.86 624.11 275.39C625.96 297.93 609.89 317.47 588.22 319.04C584.04 319.34 563.12 320.85 525.46 323.58L518.77 241.97Z" id="a2GAuspmQW"></path><path d="M460.02 295.47C458.17 272.94 474.24 253.4 495.91 251.83C517.57 250.26 536.63 267.26 538.48 289.8C538.7 292.52 539.81 306.12 541.82 330.6L463.36 336.28C461.58 314.52 460.47 300.91 460.02 295.47Z" id="alSpGC5q5"></path><path d="M538.48 289.8C560.14 288.23 579.2 305.23 581.05 327.77C582.89 350.3 566.83 369.84 545.16 371.41C523.5 372.98 504.44 355.98 502.59 333.44C500.74 310.9 516.81 291.37 538.48 289.8Z" id="c4nqX68OZ"></path><path d="M314.96 355.22C336.63 353.66 355.69 370.65 357.53 393.19C359.38 415.73 343.31 435.27 321.65 436.83C299.98 438.4 280.92 421.4 279.08 398.87C277.23 376.33 293.3 356.79 314.96 355.22Z" id="b1c9ltunW5"></path><path d="M463.36 336.28C460.75 304.45 459.31 286.77 459.02 283.23C457.36 262.95 440.2 247.65 420.7 249.06C401.2 250.47 386.74 268.06 388.41 288.34C388.7 291.88 390.14 309.56 392.75 341.39L463.36 336.28Z" id="kaoPiVyBk"></path><path d="M388.25 382.76C388.65 387.66 388.87 390.38 388.92 390.92C390.76 413.46 409.82 430.46 431.49 428.89C453.15 427.32 469.22 407.78 467.37 385.25C467.11 381.98 465.77 365.66 463.36 336.28L384.9 341.95L388.25 382.76Z" id="b3HUN8DvjM"></path><path d="M381.56 301.15C403.23 299.58 422.29 316.58 424.13 339.12C425.98 361.65 409.91 381.19 388.25 382.76C366.58 384.33 347.52 367.33 345.68 344.79C343.83 322.26 359.9 302.72 381.56 301.15Z" id="d3j3jTeXS"></path><path d="M460.02 295.47C481.68 293.91 500.74 310.9 502.59 333.44C504.44 355.98 488.37 375.52 466.7 377.08C445.04 378.65 425.98 361.65 424.13 339.12C422.29 316.58 438.35 297.04 460.02 295.47Z" id="g1ARuQ2089"></path><path d="M537.63 183.14C559.3 181.57 578.36 198.57 580.2 221.1C582.05 243.64 565.98 263.18 544.32 264.75C522.65 266.31 503.59 249.32 501.75 226.78C499.9 204.24 515.97 184.7 537.63 183.14Z" id="d30DUMmcdk"></path><path d="M578.26 239.08C580 238.87 581.72 238.77 583.42 238.75C616.46 190.79 618.58 143.92 617.69 127.46C617.5 123.97 613.83 121.75 609.92 122.75C607.47 123.37 587.91 128.34 585.47 128.96C582.13 129.81 580.21 133.1 581.54 135.75C598.09 168.76 588.44 207.57 577.88 233.52C578.03 234.46 578.15 235.42 578.21 236.39C578.27 237.29 578.28 238.19 578.26 239.08Z" id="d13wEvpFFc"></path><path d="M595.93 131.02C595.11 129.38 595.53 127.49 596.77 126.09C595.64 126.37 586.6 128.67 585.47 128.96C582.13 129.81 580.21 133.1 581.54 135.75C598.09 168.76 588.44 207.57 577.88 233.52C578.03 234.46 578.15 235.42 578.21 236.39C578.27 237.29 578.28 238.19 578.26 239.08C580 238.87 581.72 238.77 583.42 238.75C588.69 231.1 593.17 223.48 596.98 216C605.18 191.06 609.94 158.97 595.93 131.02Z" id="b1SVqw5Yfz"></path><path d="M502.33 211.37C501.19 212.87 511.85 195.92 535.8 193.18C552.63 191.25 567.73 197.53 575.49 208.29C576.23 190.73 569.82 167.93 543.7 150.06C541.44 148.51 537.83 149.16 536.25 151.44C533.02 156.07 528.08 164.2 525.17 174C524.41 176.57 520.92 177.96 518.25 176.77C508.49 172.43 496.54 169.31 481.91 168.3C478.87 168.1 476.11 170.24 476.22 172.76C476.46 178.35 478.07 189.28 482.93 199.22C490.9 201.46 497.68 205.71 502.33 211.37Z" id="b1bCS1ww2m"></path><path d="M486.28 180.29C500.91 181.29 512.86 184.42 522.62 188.76C525.29 189.94 528.78 188.55 529.54 185.98C532.45 176.18 537.39 168.05 540.62 163.42C542.2 161.14 545.8 160.49 548.07 162.04C560.84 170.78 568.89 180.7 573.71 190.6C570.3 176.96 561.66 162.35 543.7 150.06C541.44 148.51 537.83 149.16 536.25 151.44C533.02 156.07 528.08 164.2 525.17 174C524.41 176.57 520.92 177.96 518.25 176.77C508.49 172.43 496.54 169.31 481.91 168.3C478.87 168.1 476.12 170.24 476.22 172.76C476.46 178.33 478.06 189.23 482.9 199.15C481.37 193.34 480.73 188.08 480.59 184.74C480.48 182.22 483.24 180.08 486.28 180.29Z" id="a3iLKlvz5e"></path><path d="M599.84 330.77L600.52 330.83L601.2 330.92L601.86 331.02L602.52 331.15L603.17 331.3L603.81 331.47L604.43 331.66L605.05 331.87L605.65 332.1L606.24 332.35L606.82 332.62L607.38 332.9L607.93 333.21L608.46 333.53L608.98 333.87L609.48 334.23L609.97 334.6L610.44 334.98L610.89 335.39L611.32 335.8L611.74 336.23L612.13 336.68L612.51 337.14L612.86 337.61L613.2 338.09L613.51 338.58L613.8 339.09L614.07 339.61L614.32 340.13L614.54 340.67L614.74 341.22L614.91 341.77L615.06 342.34L615.18 342.91L615.28 343.49L615.35 344.08L615.39 344.67L615.4 345.27L615.4 594.5L615.39 595.09L615.35 595.69L615.28 596.27L615.18 596.85L615.06 597.43L614.91 597.99L614.74 598.54L614.54 599.09L614.32 599.63L614.07 600.15L613.8 600.67L613.51 601.18L613.2 601.67L612.86 602.15L612.51 602.63L612.13 603.08L611.74 603.53L611.32 603.96L610.89 604.38L610.44 604.78L609.97 605.16L609.48 605.54L608.98 605.89L608.46 606.23L607.93 606.55L607.38 606.86L606.82 607.15L606.24 607.41L605.65 607.66L605.05 607.89L604.43 608.11L603.81 608.3L603.17 608.47L602.52 608.62L601.86 608.74L601.2 608.85L600.52 608.93L599.84 608.99L599.14 609.03L598.45 609.04L53.59 609.04L52.89 609.03L52.2 608.99L51.51 608.93L50.84 608.85L50.17 608.74L49.51 608.62L48.86 608.47L48.23 608.3L47.6 608.11L46.99 607.89L46.38 607.66L45.79 607.41L45.22 607.15L44.66 606.86L44.11 606.55L43.57 606.23L43.05 605.89L42.55 605.54L42.07 605.16L41.6 604.78L41.15 604.38L40.71 603.96L40.3 603.53L39.9 603.08L39.53 602.63L39.17 602.15L38.84 601.67L38.52 601.18L38.23 600.67L37.96 600.15L37.72 599.63L37.5 599.09L37.3 598.54L37.12 597.99L36.98 597.43L36.85 596.85L36.76 596.27L36.69 595.69L36.65 595.09L36.63 594.5L36.63 345.27L36.65 344.67L36.69 344.08L36.76 343.49L36.85 342.91L36.98 342.34L37.12 341.77L37.3 341.22L37.5 340.67L37.72 340.13L37.96 339.61L38.23 339.09L38.52 338.58L38.84 338.09L39.17 337.61L39.53 337.14L39.9 336.68L40.3 336.23L40.71 335.8L41.15 335.39L41.6 334.98L42.07 334.6L42.55 334.23L43.05 333.87L43.57 333.53L44.11 333.21L44.66 332.9L45.22 332.62L45.79 332.35L46.38 332.1L46.99 331.87L47.6 331.66L48.23 331.47L48.86 331.3L49.51 331.15L50.17 331.02L50.84 330.92L51.51 330.83L52.2 330.77L52.89 330.74L53.59 330.73L598.45 330.73L599.14 330.74L599.84 330.77Z" id="agDWQ5kZd"></path><path d="M129.13 378.7L130.51 378.96L131.86 379.31L133.15 379.75L134.39 380.28L135.57 380.89L136.69 381.58L137.73 382.34L138.7 383.17L139.59 384.07L140.39 385.02L141.1 386.03L141.72 387.1L142.24 388.21L142.65 389.36L142.94 390.55L143.13 391.78L143.19 393.03L143.13 394.29L142.94 395.51L142.65 396.7L142.24 397.85L141.72 398.96L141.1 400.03L140.39 401.04L139.59 401.99L138.7 402.89L137.73 403.72L136.69 404.48L135.57 405.17L134.39 405.78L133.15 406.31L131.86 406.75L130.51 407.11L129.13 407.36L127.7 407.52L126.23 407.57L124.77 407.52L123.34 407.36L121.95 407.11L120.61 406.75L119.32 406.31L118.08 405.78L116.9 405.17L115.78 404.48L114.74 403.72L113.77 402.89L112.88 401.99L112.08 401.04L111.37 400.03L110.75 398.96L110.23 397.85L109.82 396.7L109.52 395.51L109.34 394.29L109.28 393.03L109.34 391.78L109.52 390.55L109.82 389.36L110.23 388.21L110.75 387.1L111.37 386.03L112.08 385.02L112.88 384.07L113.77 383.17L114.74 382.34L115.78 381.58L116.9 380.89L118.08 380.28L119.32 379.75L120.61 379.31L121.95 378.96L123.34 378.7L124.77 378.54L126.23 378.49L127.7 378.54L129.13 378.7Z" id="aAwlvHDor"></path><path d="M129.13 532.4L130.51 532.65L131.86 533L133.15 533.45L134.39 533.98L135.57 534.59L136.69 535.28L137.73 536.04L138.7 536.87L139.59 537.76L140.39 538.72L141.1 539.73L141.72 540.79L142.24 541.9L142.65 543.06L142.94 544.25L143.13 545.47L143.19 546.73L143.13 547.98L142.94 549.21L142.65 550.4L142.24 551.55L141.72 552.66L141.1 553.73L140.39 554.74L139.59 555.69L138.7 556.59L137.73 557.42L136.69 558.18L135.57 558.87L134.39 559.48L133.15 560.01L131.86 560.45L130.51 560.8L129.13 561.06L127.7 561.22L126.23 561.27L124.77 561.22L123.34 561.06L121.95 560.8L120.61 560.45L119.32 560.01L118.08 559.48L116.9 558.87L115.78 558.18L114.74 557.42L113.77 556.59L112.88 555.69L112.08 554.74L111.37 553.73L110.75 552.66L110.23 551.55L109.82 550.4L109.52 549.21L109.34 547.98L109.28 546.73L109.34 545.47L109.52 544.25L109.82 543.06L110.23 541.9L110.75 540.79L111.37 539.73L112.08 538.72L112.88 537.76L113.77 536.87L114.74 536.04L115.78 535.28L116.9 534.59L118.08 533.98L119.32 533.45L120.61 533L121.95 532.65L123.34 532.4L124.77 532.24L126.23 532.19L127.7 532.24L129.13 532.4Z" id="a1tLZuiahP"></path><path d="M36.63 484.42L36.63 455.34L615.4 455.34L615.4 484.42L36.63 484.42Z" id="bL0fjTOk7"></path><path d="M599.84 330.77L600.52 330.83L601.2 330.92L601.86 331.02L602.52 331.15L603.17 331.3L603.81 331.47L604.43 331.66L605.05 331.87L605.65 332.1L606.24 332.35L606.82 332.62L607.38 332.9L607.93 333.21L608.46 333.53L608.98 333.87L609.48 334.23L609.97 334.6L610.44 334.98L610.89 335.39L611.32 335.8L611.74 336.23L612.13 336.68L612.51 337.14L612.86 337.61L613.2 338.09L613.51 338.58L613.8 339.09L614.07 339.61L614.32 340.13L614.54 340.67L614.74 341.22L614.91 341.77L615.06 342.34L615.18 342.91L615.28 343.49L615.35 344.08L615.39 344.67L615.4 345.27L615.4 594.5L615.39 595.09L615.35 595.69L615.28 596.27L615.18 596.85L615.06 597.43L614.91 597.99L614.74 598.54L614.54 599.09L614.32 599.63L614.07 600.15L613.8 600.67L613.51 601.18L613.2 601.67L612.86 602.15L612.51 602.63L612.13 603.08L611.74 603.53L611.32 603.96L610.89 604.38L610.44 604.78L609.97 605.16L609.48 605.54L608.98 605.89L608.46 606.23L607.93 606.55L607.38 606.86L606.82 607.15L606.24 607.41L605.65 607.66L605.05 607.89L604.43 608.11L603.81 608.3L603.17 608.47L602.52 608.62L601.86 608.74L601.2 608.85L600.52 608.93L599.84 608.99L599.14 609.03L598.45 609.04L326.02 609.04L326.02 330.73L598.45 330.73L599.14 330.74L599.84 330.77Z" id="d1nQapWg6E"></path><path d="M528.69 378.7L530.08 378.96L531.42 379.31L532.72 379.75L533.96 380.28L535.14 380.89L536.25 381.58L537.29 382.34L538.26 383.17L539.15 384.07L539.95 385.02L540.67 386.03L541.28 387.1L541.8 388.21L542.21 389.36L542.51 390.55L542.69 391.78L542.76 393.03L542.69 394.29L542.51 395.51L542.21 396.7L541.8 397.85L541.28 398.96L540.67 400.03L539.95 401.04L539.15 401.99L538.26 402.89L537.29 403.72L536.25 404.48L535.14 405.17L533.96 405.78L532.72 406.31L531.42 406.75L530.08 407.11L528.69 407.36L527.26 407.52L525.8 407.57L524.34 407.52L522.91 407.36L521.52 407.11L520.17 406.75L518.88 406.31L517.64 405.78L516.46 405.17L515.35 404.48L514.3 403.72L513.33 402.89L512.45 401.99L511.64 401.04L510.93 400.03L510.31 398.96L509.8 397.85L509.39 396.7L509.09 395.51L508.91 394.29L508.84 393.03L508.91 391.78L509.09 390.55L509.39 389.36L509.8 388.21L510.31 387.1L510.93 386.03L511.64 385.02L512.45 384.07L513.33 383.17L514.3 382.34L515.35 381.58L516.46 380.89L517.64 380.28L518.88 379.75L520.17 379.31L521.52 378.96L522.91 378.7L524.34 378.54L525.8 378.49L527.26 378.54L528.69 378.7Z" id="d15XRk5OF5"></path><path d="M528.69 532.4L530.08 532.65L531.42 533L532.72 533.45L533.96 533.98L535.14 534.59L536.25 535.28L537.29 536.04L538.26 536.87L539.15 537.76L539.95 538.72L540.67 539.73L541.28 540.79L541.8 541.9L542.21 543.06L542.51 544.25L542.69 545.47L542.76 546.73L542.69 547.98L542.51 549.21L542.21 550.4L541.8 551.55L541.28 552.66L540.67 553.73L539.95 554.74L539.15 555.69L538.26 556.59L537.29 557.42L536.25 558.18L535.14 558.87L533.96 559.48L532.72 560.01L531.42 560.45L530.08 560.8L528.69 561.06L527.26 561.22L525.8 561.27L524.34 561.22L522.91 561.06L521.52 560.8L520.17 560.45L518.88 560.01L517.64 559.48L516.46 558.87L515.35 558.18L514.3 557.42L513.33 556.59L512.45 555.69L511.64 554.74L510.93 553.73L510.31 552.66L509.8 551.55L509.39 550.4L509.09 549.21L508.91 547.98L508.84 546.73L508.91 545.47L509.09 544.25L509.39 543.06L509.8 541.9L510.31 540.79L510.93 539.73L511.64 538.72L512.45 537.76L513.33 536.87L514.3 536.04L515.35 535.28L516.46 534.59L517.64 533.98L518.88 533.45L520.17 533L521.52 532.65L522.91 532.4L524.34 532.24L525.8 532.19L527.26 532.24L528.69 532.4Z" id="c13KEaORB5"></path><path d="M326.02 484.42L326.02 455.34L615.4 455.34L615.4 484.42L326.02 484.42Z" id="a8yQUogbT"></path></defs><g><g><g><use xlink:href="#b1EBkRL99e" opacity="1" fill="#744eaa" fill-opacity="1"></use><g><use xlink:href="#b1EBkRL99e" opacity="1" fill-opacity="0" stroke="#000000" stroke-width="1" stroke-opacity="0"></use></g></g><g><use xlink:href="#d4XRcBc37y" opacity="1" fill="#67449e" fill-opacity="1"></use><g><use xlink:href="#d4XRcBc37y" opacity="1" fill-opacity="0" stroke="#000000" stroke-width="1" stroke-opacity="0"></use></g></g><g><use xlink:href="#d1bqmB4Qob" opacity="1" fill="#93603e" fill-opacity="1"></use><g><use xlink:href="#d1bqmB4Qob" opacity="1" fill-opacity="0" stroke="#000000" stroke-width="1" stroke-opacity="0"></use></g></g><g><use xlink:href="#a17Lvj9crR" opacity="1" fill="#7f573c" fill-opacity="1"></use><g><use xlink:href="#a17Lvj9crR" opacity="1" fill-opacity="0" stroke="#000000" stroke-width="1" stroke-opacity="0"></use></g></g><g><use xlink:href="#c6vCFhPMK" opacity="1" fill="#3bbc56" fill-opacity="1"></use><g><use xlink:href="#c6vCFhPMK" opacity="1" fill-opacity="0" stroke="#000000" stroke-width="1" stroke-opacity="0"></use></g></g><g><use xlink:href="#b9HIkS75y" opacity="1" fill="#30aa44" fill-opacity="1"></use><g><use xlink:href="#b9HIkS75y" opacity="1" fill-opacity="0" stroke="#000000" stroke-width="1" stroke-opacity="0"></use></g></g><g><use xlink:href="#a1zvuH18E8" opacity="1" fill="#3bbc56" fill-opacity="1"></use><g><use xlink:href="#a1zvuH18E8" opacity="1" fill-opacity="0" stroke="#000000" stroke-width="1" stroke-opacity="0"></use></g></g><g><use xlink:href="#cjYB6IvB1" opacity="1" fill="#30aa44" fill-opacity="1"></use><g><use xlink:href="#cjYB6IvB1" opacity="1" fill-opacity="0" stroke="#000000" stroke-width="1" stroke-opacity="0"></use></g></g><g><use xlink:href="#cDCcGJnpv" opacity="1" fill="#744eaa" fill-opacity="1"></use><g><use xlink:href="#cDCcGJnpv" opacity="1" fill-opacity="0" stroke="#000000" stroke-width="1" stroke-opacity="0"></use></g></g><g><use xlink:href="#lQ01ypFAO" opacity="1" fill="#67449e" fill-opacity="1"></use><g><use xlink:href="#lQ01ypFAO" opacity="1" fill-opacity="0" stroke="#000000" stroke-width="1" stroke-opacity="0"></use></g></g><g><use xlink:href="#e1eGhM8n" opacity="1" fill="#744eaa" fill-opacity="1"></use><g><use xlink:href="#e1eGhM8n" opacity="1" fill-opacity="0" stroke="#000000" stroke-width="1" stroke-opacity="0"></use></g></g><g><use xlink:href="#dJ5Czn6K" opacity="1" fill="#67449e" fill-opacity="1"></use><g><use xlink:href="#dJ5Czn6K" opacity="1" fill-opacity="0" stroke="#000000" stroke-width="1" stroke-opacity="0"></use></g></g><g><use xlink:href="#d6XLh4DSW1" opacity="1" fill="#744eaa" fill-opacity="1"></use><g><use xlink:href="#d6XLh4DSW1" opacity="1" fill-opacity="0" stroke="#000000" stroke-width="1" stroke-opacity="0"></use></g></g><g><use xlink:href="#d23l0xQYO6" opacity="1" fill="#67449e" fill-opacity="1"></use><g><use xlink:href="#d23l0xQYO6" opacity="1" fill-opacity="0" stroke="#000000" stroke-width="1" stroke-opacity="0"></use></g></g><g><use xlink:href="#b62YBclkhg" opacity="1" fill="#553788" fill-opacity="1"></use><g><use xlink:href="#b62YBclkhg" opacity="1" fill-opacity="0" stroke="#000000" stroke-width="1" stroke-opacity="0"></use></g></g><g><use xlink:href="#abtc7h98L" opacity="1" fill="#462e7a" fill-opacity="1"></use><g><use xlink:href="#abtc7h98L" opacity="1" fill-opacity="0" stroke="#000000" stroke-width="1" stroke-opacity="0"></use></g></g><g><use xlink:href="#aho6DjCBr" opacity="1" fill="#9266cc" fill-opacity="1"></use><g><use xlink:href="#aho6DjCBr" opacity="1" fill-opacity="0" stroke="#000000" stroke-width="1" stroke-opacity="0"></use></g></g><g><use xlink:href="#aBs4ernsx" opacity="1" fill="#7b54ba" fill-opacity="1"></use><g><use xlink:href="#aBs4ernsx" opacity="1" fill-opacity="0" stroke="#000000" stroke-width="1" stroke-opacity="0"></use></g></g><g><use xlink:href="#bD1YXEbKi" opacity="1" fill="#9266cc" fill-opacity="1"></use><g><use xlink:href="#bD1YXEbKi" opacity="1" fill-opacity="0" stroke="#000000" stroke-width="1" stroke-opacity="0"></use></g></g><g><use xlink:href="#l1vHsFB2DO" opacity="1" fill="#7b54ba" fill-opacity="1"></use><g><use xlink:href="#l1vHsFB2DO" opacity="1" fill-opacity="0" stroke="#000000" stroke-width="1" stroke-opacity="0"></use></g></g><g><use xlink:href="#a1HM81LKUk" opacity="1" fill="#9266cc" fill-opacity="1"></use><g><use xlink:href="#a1HM81LKUk" opacity="1" fill-opacity="0" stroke="#000000" stroke-width="1" stroke-opacity="0"></use></g></g><g><use xlink:href="#a3al4T6Ho5" opacity="1" fill="#7b54ba" fill-opacity="1"></use><g><use xlink:href="#a3al4T6Ho5" opacity="1" fill-opacity="0" stroke="#000000" stroke-width="1" stroke-opacity="0"></use></g></g><g><use xlink:href="#b2GGZEVSb" opacity="1" fill="#9266cc" fill-opacity="1"></use><g><use xlink:href="#b2GGZEVSb" opacity="1" fill-opacity="0" stroke="#000000" stroke-width="1" stroke-opacity="0"></use></g></g><g><use xlink:href="#a4CnoUAJmh" opacity="1" fill="#7b54ba" fill-opacity="1"></use><g><use xlink:href="#a4CnoUAJmh" opacity="1" fill-opacity="0" stroke="#000000" stroke-width="1" stroke-opacity="0"></use></g></g><g><use xlink:href="#fHJ8kiBok" opacity="1" fill="#aa8dd8" fill-opacity="1"></use><g><use xlink:href="#fHJ8kiBok" opacity="1" fill-opacity="0" stroke="#000000" stroke-width="1" stroke-opacity="0"></use></g></g><g><use xlink:href="#a25G5Cli" opacity="1" fill="#987fc9" fill-opacity="1"></use><g><use xlink:href="#a25G5Cli" opacity="1" fill-opacity="0" stroke="#000000" stroke-width="1" stroke-opacity="0"></use></g></g><g><use xlink:href="#c6UuvLIPS" opacity="1" fill="#aa8dd8" fill-opacity="1"></use><g><use xlink:href="#c6UuvLIPS" opacity="1" fill-opacity="0" stroke="#000000" stroke-width="1" stroke-opacity="0"></use></g></g><g><use xlink:href="#b3p2dqCIFY" opacity="1" fill="#987fc9" fill-opacity="1"></use><g><use xlink:href="#b3p2dqCIFY" opacity="1" fill-opacity="0" stroke="#000000" stroke-width="1" stroke-opacity="0"></use></g></g><g><use xlink:href="#auIMNJdnG" opacity="1" fill="#744eaa" fill-opacity="1"></use><g><use xlink:href="#auIMNJdnG" opacity="1" fill-opacity="0" stroke="#000000" stroke-width="1" stroke-opacity="0"></use></g></g><g><use xlink:href="#hiDWvROBY" opacity="1" fill="#67449e" fill-opacity="1"></use><g><use xlink:href="#hiDWvROBY" opacity="1" fill-opacity="0" stroke="#000000" stroke-width="1" stroke-opacity="0"></use></g></g><g><use xlink:href="#ivXEeK5Ps" opacity="1" fill="#93603e" fill-opacity="1"></use><g><use xlink:href="#ivXEeK5Ps" opacity="1" fill-opacity="0" stroke="#000000" stroke-width="1" stroke-opacity="0"></use></g></g><g><use xlink:href="#b3X0Qqnraf" opacity="1" fill="#7f573c" fill-opacity="1"></use><g><use xlink:href="#b3X0Qqnraf" opacity="1" fill-opacity="0" stroke="#000000" stroke-width="1" stroke-opacity="0"></use></g></g><g><use xlink:href="#bGszV58On" opacity="1" fill="#3bbc56" fill-opacity="1"></use><g><use xlink:href="#bGszV58On" opacity="1" fill-opacity="0" stroke="#000000" stroke-width="1" stroke-opacity="0"></use></g></g><g><use xlink:href="#d1ELQuYdBZ" opacity="1" fill="#30aa44" fill-opacity="1"></use><g><use xlink:href="#d1ELQuYdBZ" opacity="1" fill-opacity="0" stroke="#000000" stroke-width="1" stroke-opacity="0"></use></g></g><g><use xlink:href="#a10vLHIjvi" opacity="1" fill="#744eaa" fill-opacity="1"></use><g><use xlink:href="#a10vLHIjvi" opacity="1" fill-opacity="0" stroke="#000000" stroke-width="1" stroke-opacity="0"></use></g></g><g><use xlink:href="#b1ICwlgenL" opacity="1" fill="#3bbc56" fill-opacity="1"></use><g><use xlink:href="#b1ICwlgenL" opacity="1" fill-opacity="0" stroke="#000000" stroke-width="1" stroke-opacity="0"></use></g></g><g><use xlink:href="#a3AHKhyQeb" opacity="1" fill="#30aa44" fill-opacity="1"></use><g><use xlink:href="#a3AHKhyQeb" opacity="1" fill-opacity="0" stroke="#000000" stroke-width="1" stroke-opacity="0"></use></g></g><g><use xlink:href="#c1hl8RvOHo" opacity="1" fill="#67449e" fill-opacity="1"></use><g><use xlink:href="#c1hl8RvOHo" opacity="1" fill-opacity="0" stroke="#000000" stroke-width="1" stroke-opacity="0"></use></g></g><g><use xlink:href="#a1jVFR04Gn" opacity="1" fill="#744eaa" fill-opacity="1"></use><g><use xlink:href="#a1jVFR04Gn" opacity="1" fill-opacity="0" stroke="#000000" stroke-width="1" stroke-opacity="0"></use></g></g><g><use xlink:href="#d4S7F5jxK4" opacity="1" fill="#67449e" fill-opacity="1"></use><g><use xlink:href="#d4S7F5jxK4" opacity="1" fill-opacity="0" stroke="#000000" stroke-width="1" stroke-opacity="0"></use></g></g><g><use xlink:href="#a6CoeU5GG" opacity="1" fill="#744eaa" fill-opacity="1"></use><g><use xlink:href="#a6CoeU5GG" opacity="1" fill-opacity="0" stroke="#000000" stroke-width="1" stroke-opacity="0"></use></g></g><g><use xlink:href="#asrq06vB" opacity="1" fill="#67449e" fill-opacity="1"></use><g><use xlink:href="#asrq06vB" opacity="1" fill-opacity="0" stroke="#000000" stroke-width="1" stroke-opacity="0"></use></g></g><g><use xlink:href="#b7Je2QKQT" opacity="1" fill="#553788" fill-opacity="1"></use><g><use xlink:href="#b7Je2QKQT" opacity="1" fill-opacity="0" stroke="#000000" stroke-width="1" stroke-opacity="0"></use></g></g><g><use xlink:href="#eeKrVjAW6" opacity="1" fill="#462e7a" fill-opacity="1"></use><g><use xlink:href="#eeKrVjAW6" opacity="1" fill-opacity="0" stroke="#000000" stroke-width="1" stroke-opacity="0"></use></g></g><g><use xlink:href="#c15klCrv0R" opacity="1" fill="#9266cc" fill-opacity="1"></use><g><use xlink:href="#c15klCrv0R" opacity="1" fill-opacity="0" stroke="#000000" stroke-width="1" stroke-opacity="0"></use></g></g><g><use xlink:href="#a2qjpD7ud" opacity="1" fill="#7b54ba" fill-opacity="1"></use><g><use xlink:href="#a2qjpD7ud" opacity="1" fill-opacity="0" stroke="#000000" stroke-width="1" stroke-opacity="0"></use></g></g><g><use xlink:href="#a38uw8Om0K" opacity="1" fill="#9266cc" fill-opacity="1"></use><g><use xlink:href="#a38uw8Om0K" opacity="1" fill-opacity="0" stroke="#000000" stroke-width="1" stroke-opacity="0"></use></g></g><g><use xlink:href="#c3vfL7o7x" opacity="1" fill="#7b54ba" fill-opacity="1"></use><g><use xlink:href="#c3vfL7o7x" opacity="1" fill-opacity="0" stroke="#000000" stroke-width="1" stroke-opacity="0"></use></g></g><g><use xlink:href="#a39lIXrHM" opacity="1" fill="#9266cc" fill-opacity="1"></use><g><use xlink:href="#a39lIXrHM" opacity="1" fill-opacity="0" stroke="#000000" stroke-width="1" stroke-opacity="0"></use></g></g><g><use xlink:href="#b9C73aYxe" opacity="1" fill="#7b54ba" fill-opacity="1"></use><g><use xlink:href="#b9C73aYxe" opacity="1" fill-opacity="0" stroke="#000000" stroke-width="1" stroke-opacity="0"></use></g></g><g><use xlink:href="#b3TFiQDQCa" opacity="1" fill="#9266cc" fill-opacity="1"></use><g><use xlink:href="#b3TFiQDQCa" opacity="1" fill-opacity="0" stroke="#000000" stroke-width="1" stroke-opacity="0"></use></g></g><g><use xlink:href="#ejXjvEu46" opacity="1" fill="#7b54ba" fill-opacity="1"></use><g><use xlink:href="#ejXjvEu46" opacity="1" fill-opacity="0" stroke="#000000" stroke-width="1" stroke-opacity="0"></use></g></g><g><use xlink:href="#bcecFcGP9" opacity="1" fill="#aa8dd8" fill-opacity="1"></use><g><use xlink:href="#bcecFcGP9" opacity="1" fill-opacity="0" stroke="#000000" stroke-width="1" stroke-opacity="0"></use></g></g><g><use xlink:href="#e18aM4GGLL" opacity="1" fill="#987fc9" fill-opacity="1"></use><g><use xlink:href="#e18aM4GGLL" opacity="1" fill-opacity="0" stroke="#000000" stroke-width="1" stroke-opacity="0"></use></g></g><g><use xlink:href="#cbcJtcvvn" opacity="1" fill="#aa8dd8" fill-opacity="1"></use><g><use xlink:href="#cbcJtcvvn" opacity="1" fill-opacity="0" stroke="#000000" stroke-width="1" stroke-opacity="0"></use></g></g><g><use xlink:href="#e1CwOdAK3n" opacity="1" fill="#987fc9" fill-opacity="1"></use><g><use xlink:href="#e1CwOdAK3n" opacity="1" fill-opacity="0" stroke="#000000" stroke-width="1" stroke-opacity="0"></use></g></g><g><use xlink:href="#b4yY5AS7X" opacity="1" fill="#744eaa" fill-opacity="1"></use><g><use xlink:href="#b4yY5AS7X" opacity="1" fill-opacity="0" stroke="#000000" stroke-width="1" stroke-opacity="0"></use></g></g><g><use xlink:href="#b3R35WPvWq" opacity="1" fill="#67449e" fill-opacity="1"></use><g><use xlink:href="#b3R35WPvWq" opacity="1" fill-opacity="0" stroke="#000000" stroke-width="1" stroke-opacity="0"></use></g></g><g><use xlink:href="#a28mX7J5Q5" opacity="1" fill="#744eaa" fill-opacity="1"></use><g><use xlink:href="#a28mX7J5Q5" opacity="1" fill-opacity="0" stroke="#000000" stroke-width="1" stroke-opacity="0"></use></g></g><g><use xlink:href="#dsaWskzSh" opacity="1" fill="#67449e" fill-opacity="1"></use><g><use xlink:href="#dsaWskzSh" opacity="1" fill-opacity="0" stroke="#000000" stroke-width="1" stroke-opacity="0"></use></g></g><g><use xlink:href="#adtGjtslp" opacity="1" fill="#744eaa" fill-opacity="1"></use><g><use xlink:href="#adtGjtslp" opacity="1" fill-opacity="0" stroke="#000000" stroke-width="1" stroke-opacity="0"></use></g></g><g><use xlink:href="#f1SBcoorX2" opacity="1" fill="#744eaa" fill-opacity="1"></use><g><use xlink:href="#f1SBcoorX2" opacity="1" fill-opacity="0" stroke="#000000" stroke-width="1" stroke-opacity="0"></use></g></g><g><use xlink:href="#b4w7hsP199" opacity="1" fill="#67449e" fill-opacity="1"></use><g><use xlink:href="#b4w7hsP199" opacity="1" fill-opacity="0" stroke="#000000" stroke-width="1" stroke-opacity="0"></use></g></g><g><use xlink:href="#b3Rr7DfefA" opacity="1" fill="#67449e" fill-opacity="1"></use><g><use xlink:href="#b3Rr7DfefA" opacity="1" fill-opacity="0" stroke="#000000" stroke-width="1" stroke-opacity="0"></use></g></g><g><use xlink:href="#d2vH3KBmMj" opacity="1" fill="#553788" fill-opacity="1"></use><g><use xlink:href="#d2vH3KBmMj" opacity="1" fill-opacity="0" stroke="#000000" stroke-width="1" stroke-opacity="0"></use></g></g><g><use xlink:href="#a9mbBxntM" opacity="1" fill="#462e7a" fill-opacity="1"></use><g><use xlink:href="#a9mbBxntM" opacity="1" fill-opacity="0" stroke="#000000" stroke-width="1" stroke-opacity="0"></use></g></g><g><use xlink:href="#d493EheR7" opacity="1" fill="#9266cc" fill-opacity="1"></use><g><use xlink:href="#d493EheR7" opacity="1" fill-opacity="0" stroke="#000000" stroke-width="1" stroke-opacity="0"></use></g></g><g><use xlink:href="#b1HW86KthO" opacity="1" fill="#7b54ba" fill-opacity="1"></use><g><use xlink:href="#b1HW86KthO" opacity="1" fill-opacity="0" stroke="#000000" stroke-width="1" stroke-opacity="0"></use></g></g><g><use xlink:href="#a1i2Y78doc" opacity="1" fill="#9266cc" fill-opacity="1"></use><g><use xlink:href="#a1i2Y78doc" opacity="1" fill-opacity="0" stroke="#000000" stroke-width="1" stroke-opacity="0"></use></g></g><g><use xlink:href="#n4lhKM3oOr" opacity="1" fill="#7b54ba" fill-opacity="1"></use><g><use xlink:href="#n4lhKM3oOr" opacity="1" fill-opacity="0" stroke="#000000" stroke-width="1" stroke-opacity="0"></use></g></g><g><use xlink:href="#fvi7F1J7T" opacity="1" fill="#9266cc" fill-opacity="1"></use><g><use xlink:href="#fvi7F1J7T" opacity="1" fill-opacity="0" stroke="#000000" stroke-width="1" stroke-opacity="0"></use></g></g><g><use xlink:href="#clV9oGfg5" opacity="1" fill="#7b54ba" fill-opacity="1"></use><g><use xlink:href="#clV9oGfg5" opacity="1" fill-opacity="0" stroke="#000000" stroke-width="1" stroke-opacity="0"></use></g></g><g><use xlink:href="#buxFPk4Y8" opacity="1" fill="#7b54ba" fill-opacity="1"></use><g><use xlink:href="#buxFPk4Y8" opacity="1" fill-opacity="0" stroke="#000000" stroke-width="1" stroke-opacity="0"></use></g></g><g><use xlink:href="#bae24DpvbG" opacity="1" fill="#9266cc" fill-opacity="1"></use><g><use xlink:href="#bae24DpvbG" opacity="1" fill-opacity="0" stroke="#000000" stroke-width="1" stroke-opacity="0"></use></g></g><g><use xlink:href="#aWFk8499p" opacity="1" fill="#aa8dd8" fill-opacity="1"></use><g><use xlink:href="#aWFk8499p" opacity="1" fill-opacity="0" stroke="#000000" stroke-width="1" stroke-opacity="0"></use></g></g><g><use xlink:href="#b3iUVgPJNv" opacity="1" fill="#987fc9" fill-opacity="1"></use><g><use xlink:href="#b3iUVgPJNv" opacity="1" fill-opacity="0" stroke="#000000" stroke-width="1" stroke-opacity="0"></use></g></g><g><use xlink:href="#b1TfHQbKPu" opacity="1" fill="#aa8dd8" fill-opacity="1"></use><g><use xlink:href="#b1TfHQbKPu" opacity="1" fill-opacity="0" stroke="#000000" stroke-width="1" stroke-opacity="0"></use></g></g><g><use xlink:href="#k13g4k4iR7" opacity="1" fill="#987fc9" fill-opacity="1"></use><g><use xlink:href="#k13g4k4iR7" opacity="1" fill-opacity="0" stroke="#000000" stroke-width="1" stroke-opacity="0"></use></g></g><g><use xlink:href="#e2Fw1GJii3" opacity="1" fill="#933d57" fill-opacity="1"></use><g><use xlink:href="#e2Fw1GJii3" opacity="1" fill-opacity="0" stroke="#000000" stroke-width="1" stroke-opacity="0"></use></g></g><g><use xlink:href="#b5FTGvy76L" opacity="1" fill="#9f425f" fill-opacity="1"></use><g><use xlink:href="#b5FTGvy76L" opacity="1" fill-opacity="0" stroke="#000000" stroke-width="1" stroke-opacity="0"></use></g></g><g><use xlink:href="#c1fEz5S89P" opacity="1" fill="#9f425f" fill-opacity="1"></use><g><use xlink:href="#c1fEz5S89P" opacity="1" fill-opacity="0" stroke="#000000" stroke-width="1" stroke-opacity="0"></use></g></g><g><use xlink:href="#a9VABoF12" opacity="1" fill="#9f425f" fill-opacity="1"></use><g><use xlink:href="#a9VABoF12" opacity="1" fill-opacity="0" stroke="#000000" stroke-width="1" stroke-opacity="0"></use></g></g><g><use xlink:href="#a4teZYl0pC" opacity="1" fill="#ac4767" fill-opacity="1"></use><g><use xlink:href="#a4teZYl0pC" opacity="1" fill-opacity="0" stroke="#000000" stroke-width="1" stroke-opacity="0"></use></g></g><g><use xlink:href="#g1gRfQ6pB" opacity="1" fill="#9f425f" fill-opacity="1"></use><g><use xlink:href="#g1gRfQ6pB" opacity="1" fill-opacity="0" stroke="#000000" stroke-width="1" stroke-opacity="0"></use></g></g><g><use xlink:href="#c98VA5bFh" opacity="1" fill="#ac4767" fill-opacity="1"></use><g><use xlink:href="#c98VA5bFh" opacity="1" fill-opacity="0" stroke="#000000" stroke-width="1" stroke-opacity="0"></use></g></g><g><use xlink:href="#as96PXoc" opacity="1" fill="#ac4767" fill-opacity="1"></use><g><use xlink:href="#as96PXoc" opacity="1" fill-opacity="0" stroke="#000000" stroke-width="1" stroke-opacity="0"></use></g></g><g><use xlink:href="#a2GAuspmQW" opacity="1" fill="#9f425f" fill-opacity="1"></use><g><use xlink:href="#a2GAuspmQW" opacity="1" fill-opacity="0" stroke="#000000" stroke-width="1" stroke-opacity="0"></use></g></g><g><use xlink:href="#alSpGC5q5" opacity="1" fill="#ac4767" fill-opacity="1"></use><g><use xlink:href="#alSpGC5q5" opacity="1" fill-opacity="0" stroke="#000000" stroke-width="1" stroke-opacity="0"></use></g></g><g><use xlink:href="#c4nqX68OZ" opacity="1" fill="#b64b6d" fill-opacity="1"></use><g><use xlink:href="#c4nqX68OZ" opacity="1" fill-opacity="0" stroke="#000000" stroke-width="1" stroke-opacity="0"></use></g></g><g><use xlink:href="#b1c9ltunW5" opacity="1" fill="#b64b6d" fill-opacity="1"></use><g><use xlink:href="#b1c9ltunW5" opacity="1" fill-opacity="0" stroke="#000000" stroke-width="1" stroke-opacity="0"></use></g></g><g><use xlink:href="#kaoPiVyBk" opacity="1" fill="#ac4767" fill-opacity="1"></use><g><use xlink:href="#kaoPiVyBk" opacity="1" fill-opacity="0" stroke="#000000" stroke-width="1" stroke-opacity="0"></use></g></g><g><use xlink:href="#b3HUN8DvjM" opacity="1" fill="#ac4767" fill-opacity="1"></use><g><use xlink:href="#b3HUN8DvjM" opacity="1" fill-opacity="0" stroke="#000000" stroke-width="1" stroke-opacity="0"></use></g></g><g><use xlink:href="#d3j3jTeXS" opacity="1" fill="#b64b6d" fill-opacity="1"></use><g><use xlink:href="#d3j3jTeXS" opacity="1" fill-opacity="0" stroke="#000000" stroke-width="1" stroke-opacity="0"></use></g></g><g><use xlink:href="#g1ARuQ2089" opacity="1" fill="#bf4f73" fill-opacity="1"></use><g><use xlink:href="#g1ARuQ2089" opacity="1" fill-opacity="0" stroke="#000000" stroke-width="1" stroke-opacity="0"></use></g></g><g><use xlink:href="#d30DUMmcdk" opacity="1" fill="#bf4f73" fill-opacity="1"></use><g><use xlink:href="#d30DUMmcdk" opacity="1" fill-opacity="0" stroke="#000000" stroke-width="1" stroke-opacity="0"></use></g></g><g><use xlink:href="#d13wEvpFFc" opacity="1" fill="#93603e" fill-opacity="1"></use><g><use xlink:href="#d13wEvpFFc" opacity="1" fill-opacity="0" stroke="#000000" stroke-width="1" stroke-opacity="0"></use></g></g><g><use xlink:href="#b1SVqw5Yfz" opacity="1" fill="#7f573c" fill-opacity="1"></use><g><use xlink:href="#b1SVqw5Yfz" opacity="1" fill-opacity="0" stroke="#000000" stroke-width="1" stroke-opacity="0"></use></g></g><g><use xlink:href="#b1bCS1ww2m" opacity="1" fill="#3bbc56" fill-opacity="1"></use><g><use xlink:href="#b1bCS1ww2m" opacity="1" fill-opacity="0" stroke="#000000" stroke-width="1" stroke-opacity="0"></use></g></g><g><use xlink:href="#a3iLKlvz5e" opacity="1" fill="#30aa44" fill-opacity="1"></use><g><use xlink:href="#a3iLKlvz5e" opacity="1" fill-opacity="0" stroke="#000000" stroke-width="1" stroke-opacity="0"></use></g></g><g><use xlink:href="#agDWQ5kZd" opacity="1" fill="#ffe100" fill-opacity="1"></use><g><use xlink:href="#agDWQ5kZd" opacity="1" fill-opacity="0" stroke="#000000" stroke-width="1" stroke-opacity="0"></use></g></g><g><use xlink:href="#aAwlvHDor" opacity="1" fill="#ecb402" fill-opacity="1"></use><g><use xlink:href="#aAwlvHDor" opacity="1" fill-opacity="0" stroke="#000000" stroke-width="1" stroke-opacity="0"></use></g></g><g><use xlink:href="#a1tLZuiahP" opacity="1" fill="#ecb402" fill-opacity="1"></use><g><use xlink:href="#a1tLZuiahP" opacity="1" fill-opacity="0" stroke="#000000" stroke-width="1" stroke-opacity="0"></use></g></g><g><use xlink:href="#bL0fjTOk7" opacity="1" fill="#ecb402" fill-opacity="1"></use><g><use xlink:href="#bL0fjTOk7" opacity="1" fill-opacity="0" stroke="#000000" stroke-width="1" stroke-opacity="0"></use></g></g><g><use xlink:href="#d1nQapWg6E" opacity="1" fill="#ecb402" fill-opacity="1"></use><g><use xlink:href="#d1nQapWg6E" opacity="1" fill-opacity="0" stroke="#000000" stroke-width="1" stroke-opacity="0"></use></g></g><g><use xlink:href="#d15XRk5OF5" opacity="1" fill="#bb8901" fill-opacity="1"></use><g><use xlink:href="#d15XRk5OF5" opacity="1" fill-opacity="0" stroke="#000000" stroke-width="1" stroke-opacity="0"></use></g></g><g><use xlink:href="#c13KEaORB5" opacity="1" fill="#bb8901" fill-opacity="1"></use><g><use xlink:href="#c13KEaORB5" opacity="1" fill-opacity="0" stroke="#000000" stroke-width="1" stroke-opacity="0"></use></g></g><g><use xlink:href="#a8yQUogbT" opacity="1" fill="#bb8901" fill-opacity="1"></use><g><use xlink:href="#a8yQUogbT" opacity="1" fill-opacity="0" stroke="#000000" stroke-width="1" stroke-opacity="0"></use></g></g></g></g></svg>