<?xml version="1.0" encoding="UTF-8" standalone="no"?>
<!DOCTYPE svg PUBLIC "-//W3C//DTD SVG 1.1//EN" "http://www.w3.org/Graphics/SVG/1.1/DTD/svg11.dtd">
<svg version="1.1" xmlns="http://www.w3.org/2000/svg" xmlns:xlink="http://www.w3.org/1999/xlink" preserveAspectRatio="xMidYMid meet" viewBox="0 0 640 640" width="640" height="640"><defs><path d="M547.67 254.58L421.62 254.58L421.62 482.48C545.54 482.48 614.38 482.48 628.15 482.48C628.15 420.93 628.15 386.74 628.15 379.9C613.7 330.08 605.67 302.4 604.07 296.86C596.8 271.82 573.81 254.58 547.67 254.58" id="c2ybkiUt6p"></path><path d="M547.67 254.58L421.62 254.58L421.62 482.48C545.54 482.48 614.38 482.48 628.15 482.48C628.15 420.93 628.15 386.74 628.15 379.9C613.7 330.08 605.67 302.4 604.07 296.86C596.8 271.82 573.81 254.58 547.67 254.58" id="ervpCQOd3"></path><path d="M547.67 254.58L421.62 254.58L421.62 482.48C545.54 482.48 614.38 482.48 628.15 482.48C628.15 420.93 628.15 386.74 628.15 379.9C613.7 330.08 605.67 302.4 604.07 296.86C596.8 271.82 573.81 254.58 547.67 254.58" id="d3JFoAkzWR"></path><path d="M547.67 254.58L421.62 254.58L421.62 482.48C545.54 482.48 614.38 482.48 628.15 482.48C628.15 420.93 628.15 386.74 628.15 379.9C613.7 330.08 605.67 302.4 604.07 296.86C596.8 271.82 573.81 254.58 547.67 254.58" id="cTXwGWlxs"></path><path d="M450.31 283.2C450.31 289.58 450.31 321.46 450.31 378.85C538.92 378.85 588.15 378.85 598 378.85C585.11 334.44 577.96 309.76 576.53 304.83C572.83 292.1 560.96 283.2 547.67 283.2C541.19 283.2 508.73 283.2 450.31 283.2Z" id="f5f3rH5WsG"></path><path d="M450.31 283.2C450.31 289.58 450.31 321.46 450.31 378.85C538.92 378.85 588.15 378.85 598 378.85C585.11 334.44 577.96 309.76 576.53 304.83C572.83 292.1 560.96 283.2 547.67 283.2C541.19 283.2 508.73 283.2 450.31 283.2Z" id="b8Nh62PcP"></path><path d="M450.31 283.2C450.31 289.58 450.31 321.46 450.31 378.85C538.92 378.85 588.15 378.85 598 378.85C585.11 334.44 577.96 309.76 576.53 304.83C572.83 292.1 560.96 283.2 547.67 283.2C541.19 283.2 508.73 283.2 450.31 283.2Z" id="e6O6C9aWH"></path><path d="M450.31 283.2C450.31 289.58 450.31 321.46 450.31 378.85C538.92 378.85 588.15 378.85 598 378.85C585.11 334.44 577.96 309.76 576.53 304.83C572.83 292.1 560.96 283.2 547.67 283.2C541.19 283.2 508.73 283.2 450.31 283.2Z" id="a3bJ36Kkr"></path><path d="M598.02 378.81L450.26 378.81L450.26 283.16L598.02 378.81Z" id="aRTpEu0zr"></path><path d="M598.02 378.81L450.26 378.81L450.26 283.16L598.02 378.81Z" id="e32PQsjXtV"></path><path d="M598.02 378.81L450.26 378.81L450.26 283.16L598.02 378.81Z" id="da020Dhb2"></path><path d="M598.02 378.81L450.26 378.81L450.26 283.16L598.02 378.81Z" id="a6GnDY6hT"></path><path d="M450.31 283.2C465.08 292.76 583.23 369.29 598 378.85C585.11 334.44 577.96 309.76 576.53 304.83C572.83 292.1 560.96 283.2 547.67 283.2C541.19 283.2 508.73 283.2 450.31 283.2Z" id="a33M2KmsHH"></path><path d="M450.31 283.2C465.08 292.76 583.23 369.29 598 378.85C585.11 334.44 577.96 309.76 576.53 304.83C572.83 292.1 560.96 283.2 547.67 283.2C541.19 283.2 508.73 283.2 450.31 283.2Z" id="c7TLYWMaED"></path><path d="M450.31 283.2C465.08 292.76 583.23 369.29 598 378.85C585.11 334.44 577.96 309.76 576.53 304.83C572.83 292.1 560.96 283.2 547.67 283.2C541.19 283.2 508.73 283.2 450.31 283.2Z" id="f6GuUTGUR"></path><path d="M450.31 283.2C465.08 292.76 583.23 369.29 598 378.85C585.11 334.44 577.96 309.76 576.53 304.83C572.83 292.1 560.96 283.2 547.67 283.2C541.19 283.2 508.73 283.2 450.31 283.2Z" id="a3XT3u1Cbl"></path><path d="M65.49 140.17C256.27 140.17 362.27 140.17 383.46 140.17C404.52 140.17 421.62 157.2 421.62 178.23C421.62 198.51 421.62 299.92 421.62 482.46C382.19 482.46 66.76 482.46 27.33 482.46C27.33 299.92 27.33 198.51 27.33 178.23C27.33 157.21 44.41 140.17 65.49 140.17" id="e2jYmqouBx"></path><path d="M65.49 140.17C256.27 140.17 362.27 140.17 383.46 140.17C404.52 140.17 421.62 157.2 421.62 178.23C421.62 198.51 421.62 299.92 421.62 482.46C382.19 482.46 66.76 482.46 27.33 482.46C27.33 299.92 27.33 198.51 27.33 178.23C27.33 157.21 44.41 140.17 65.49 140.17" id="a5UOCpFcN"></path><path d="M65.49 140.17C256.27 140.17 362.27 140.17 383.46 140.17C404.52 140.17 421.62 157.2 421.62 178.23C421.62 198.51 421.62 299.92 421.62 482.46C382.19 482.46 66.76 482.46 27.33 482.46C27.33 299.92 27.33 198.51 27.33 178.23C27.33 157.21 44.41 140.17 65.49 140.17" id="a4IseFWuwc"></path><path d="M65.49 140.17C256.27 140.17 362.27 140.17 383.46 140.17C404.52 140.17 421.62 157.2 421.62 178.23C421.62 198.51 421.62 299.92 421.62 482.46C382.19 482.46 66.76 482.46 27.33 482.46C27.33 299.92 27.33 198.51 27.33 178.23C27.33 157.21 44.41 140.17 65.49 140.17" id="d4weCU3xkV"></path><path d="M27.38 482.45C65.61 482.45 86.85 482.45 91.1 482.45C105.98 455.81 134.59 437.8 167.4 437.8C200.08 437.8 228.69 455.81 243.7 482.45C264.21 482.45 428.21 482.45 448.71 482.45C463.59 455.81 492.06 437.8 524.87 437.8C557.68 437.8 586.17 455.81 601.18 482.45C603.62 482.45 615.83 482.45 637.81 482.45C637.81 485.32 637.81 499.65 637.81 525.46C597.11 525.46 393.64 525.46 27.38 525.46C27.38 498.7 27.38 484.36 27.38 482.45Z" id="cX16kFY3j"></path><path d="M27.38 482.45C65.61 482.45 86.85 482.45 91.1 482.45C105.98 455.81 134.59 437.8 167.4 437.8C200.08 437.8 228.69 455.81 243.7 482.45C264.21 482.45 428.21 482.45 448.71 482.45C463.59 455.81 492.06 437.8 524.87 437.8C557.68 437.8 586.17 455.81 601.18 482.45C603.62 482.45 615.83 482.45 637.81 482.45C637.81 485.32 637.81 499.65 637.81 525.46C597.11 525.46 393.64 525.46 27.38 525.46C27.38 498.7 27.38 484.36 27.38 482.45Z" id="b7hAoq6kXM"></path><path d="M27.38 482.45C65.61 482.45 86.85 482.45 91.1 482.45C105.98 455.81 134.59 437.8 167.4 437.8C200.08 437.8 228.69 455.81 243.7 482.45C264.21 482.45 428.21 482.45 448.71 482.45C463.59 455.81 492.06 437.8 524.87 437.8C557.68 437.8 586.17 455.81 601.18 482.45C603.62 482.45 615.83 482.45 637.81 482.45C637.81 485.32 637.81 499.65 637.81 525.46C597.11 525.46 393.64 525.46 27.38 525.46C27.38 498.7 27.38 484.36 27.38 482.45Z" id="b1aigDFlls"></path><path d="M27.38 482.45C65.61 482.45 86.85 482.45 91.1 482.45C105.98 455.81 134.59 437.8 167.4 437.8C200.08 437.8 228.69 455.81 243.7 482.45C264.21 482.45 428.21 482.45 448.71 482.45C463.59 455.81 492.06 437.8 524.87 437.8C557.68 437.8 586.17 455.81 601.18 482.45C603.62 482.45 615.83 482.45 637.81 482.45C637.81 485.32 637.81 499.65 637.81 525.46C597.11 525.46 393.64 525.46 27.38 525.46C27.38 498.7 27.38 484.36 27.38 482.45Z" id="d1oDXb4Ds"></path><path d="M585.8 525.19C585.8 558.75 558.52 585.96 524.87 585.96C491.22 585.96 463.97 558.75 463.97 525.19C463.97 491.62 491.23 464.41 524.87 464.41C558.54 464.41 585.8 491.62 585.8 525.19" id="b2y9QRhYRg"></path><path d="M585.8 525.19C585.8 558.75 558.52 585.96 524.87 585.96C491.22 585.96 463.97 558.75 463.97 525.19C463.97 491.62 491.23 464.41 524.87 464.41C558.54 464.41 585.8 491.62 585.8 525.19" id="aOqrvxGkJ"></path><path d="M585.8 525.19C585.8 558.75 558.52 585.96 524.87 585.96C491.22 585.96 463.97 558.75 463.97 525.19C463.97 491.62 491.23 464.41 524.87 464.41C558.54 464.41 585.8 491.62 585.8 525.19" id="b1n7UGKJeR"></path><path d="M585.8 525.19C585.8 558.75 558.52 585.96 524.87 585.96C491.22 585.96 463.97 558.75 463.97 525.19C463.97 491.62 491.23 464.41 524.87 464.41C558.54 464.41 585.8 491.62 585.8 525.19" id="b4zOpC7dT0"></path><path d="M549.36 525.19C549.36 538.67 538.4 549.6 524.89 549.6C511.38 549.6 500.4 538.67 500.4 525.19C500.4 511.7 511.37 500.78 524.89 500.78C538.4 500.77 549.36 511.7 549.36 525.19" id="a2U8NVdS76"></path><path d="M549.36 525.19C549.36 538.67 538.4 549.6 524.89 549.6C511.38 549.6 500.4 538.67 500.4 525.19C500.4 511.7 511.37 500.78 524.89 500.78C538.4 500.77 549.36 511.7 549.36 525.19" id="b5YJScCuJk"></path><path d="M549.36 525.19C549.36 538.67 538.4 549.6 524.89 549.6C511.38 549.6 500.4 538.67 500.4 525.19C500.4 511.7 511.37 500.78 524.89 500.78C538.4 500.77 549.36 511.7 549.36 525.19" id="b1oWbhW5Zj"></path><path d="M549.36 525.19C549.36 538.67 538.4 549.6 524.89 549.6C511.38 549.6 500.4 538.67 500.4 525.19C500.4 511.7 511.37 500.78 524.89 500.78C538.4 500.77 549.36 511.7 549.36 525.19" id="bxbcM4pom"></path><path d="M228.28 525.19C228.28 558.75 200.98 585.96 167.35 585.96C133.7 585.96 106.42 558.75 106.42 525.19C106.42 491.62 133.7 464.41 167.35 464.41C200.98 464.41 228.28 491.62 228.28 525.19" id="b5qFvLQ0Yw"></path><path d="M228.28 525.19C228.28 558.75 200.98 585.96 167.35 585.96C133.7 585.96 106.42 558.75 106.42 525.19C106.42 491.62 133.7 464.41 167.35 464.41C200.98 464.41 228.28 491.62 228.28 525.19" id="b6VQZ6wPC"></path><path d="M228.28 525.19C228.28 558.75 200.98 585.96 167.35 585.96C133.7 585.96 106.42 558.75 106.42 525.19C106.42 491.62 133.7 464.41 167.35 464.41C200.98 464.41 228.28 491.62 228.28 525.19" id="adkJd5yDy"></path><path d="M228.28 525.19C228.28 558.75 200.98 585.96 167.35 585.96C133.7 585.96 106.42 558.75 106.42 525.19C106.42 491.62 133.7 464.41 167.35 464.41C200.98 464.41 228.28 491.62 228.28 525.19" id="a8JFs4m0R"></path><path d="M192.86 525.19C192.86 538.67 181.91 549.6 168.39 549.6C154.87 549.6 143.91 538.67 143.91 525.19C143.91 511.7 154.87 500.78 168.39 500.78C181.91 500.78 192.86 511.7 192.86 525.19" id="aIYVRpRWN"></path><path d="M192.86 525.19C192.86 538.67 181.91 549.6 168.39 549.6C154.87 549.6 143.91 538.67 143.91 525.19C143.91 511.7 154.87 500.78 168.39 500.78C181.91 500.78 192.86 511.7 192.86 525.19" id="bmi8llKdN"></path><path d="M192.86 525.19C192.86 538.67 181.91 549.6 168.39 549.6C154.87 549.6 143.91 538.67 143.91 525.19C143.91 511.7 154.87 500.78 168.39 500.78C181.91 500.78 192.86 511.7 192.86 525.19" id="d14MZ3TDK6"></path><path d="M192.86 525.19C192.86 538.67 181.91 549.6 168.39 549.6C154.87 549.6 143.91 538.67 143.91 525.19C143.91 511.7 154.87 500.78 168.39 500.78C181.91 500.78 192.86 511.7 192.86 525.19" id="a80XkTPKI"></path><path d="M154.92 185.53L154.92 171.26L-62.64 171.26L-62.64 185.53L154.92 185.53Z" id="gi2DV4XSo"></path><path d="M154.92 185.53L154.92 171.26L-62.64 171.26L-62.64 185.53L154.92 185.53Z" id="b34NozmBcT"></path><path d="M167.27 214.92L167.27 235.05L-19.68 235.05L-19.68 214.92L167.27 214.92Z" id="ccWl7mPqm"></path><path d="M191.73 271.45L191.73 294.41L-25.83 294.41L-25.83 271.45L191.73 271.45Z" id="a59jgpdmp"></path><path d="M394.89 223.79L307.3 169.58L307.3 203.95L214.41 203.95L214.41 243.73L307.3 243.73L307.3 278.01L394.89 223.79Z" id="hB9wcU69V"></path></defs><g><g><g><use xlink:href="#c2ybkiUt6p" opacity="1" fill="#3894bd" fill-opacity="1"></use><g><use xlink:href="#c2ybkiUt6p" opacity="1" fill-opacity="0" stroke="#000000" stroke-width="1" stroke-opacity="0"></use></g></g><g><use xlink:href="#ervpCQOd3" opacity="1" fill="#000000" fill-opacity="0"></use><g><use xlink:href="#ervpCQOd3" opacity="1" fill-opacity="0" stroke="#000000" stroke-width="1" stroke-opacity="0"></use></g></g><g><use xlink:href="#d3JFoAkzWR" opacity="1" fill="#000000" fill-opacity="0"></use><g><use xlink:href="#d3JFoAkzWR" opacity="1" fill-opacity="0" stroke="#000000" stroke-width="1" stroke-opacity="0"></use></g></g><g><use xlink:href="#cTXwGWlxs" opacity="1" fill="#000000" fill-opacity="0"></use><g><use xlink:href="#cTXwGWlxs" opacity="1" fill-opacity="0" stroke="#000000" stroke-width="1" stroke-opacity="0"></use></g></g><g><use xlink:href="#f5f3rH5WsG" opacity="1" fill="#84dbff" fill-opacity="1"></use><g><use xlink:href="#f5f3rH5WsG" opacity="1" fill-opacity="0" stroke="#000000" stroke-width="1" stroke-opacity="0"></use></g></g><g><use xlink:href="#b8Nh62PcP" opacity="1" fill="#000000" fill-opacity="0"></use><g><use xlink:href="#b8Nh62PcP" opacity="1" fill-opacity="0" stroke="#000000" stroke-width="1" stroke-opacity="0"></use></g></g><g><use xlink:href="#e6O6C9aWH" opacity="1" fill="#000000" fill-opacity="0"></use><g><use xlink:href="#e6O6C9aWH" opacity="1" fill-opacity="0" stroke="#000000" stroke-width="1" stroke-opacity="0"></use></g></g><g><use xlink:href="#a3bJ36Kkr" opacity="1" fill="#000000" fill-opacity="0"></use><g><use xlink:href="#a3bJ36Kkr" opacity="1" fill-opacity="0" stroke="#000000" stroke-width="1" stroke-opacity="0"></use></g></g><g><use xlink:href="#aRTpEu0zr" opacity="1" fill="#cdd6e0" fill-opacity="1"></use><g><use xlink:href="#aRTpEu0zr" opacity="1" fill-opacity="0" stroke="#000000" stroke-width="1" stroke-opacity="0"></use></g></g><g><use xlink:href="#e32PQsjXtV" opacity="1" fill="#000000" fill-opacity="0"></use><g><use xlink:href="#e32PQsjXtV" opacity="1" fill-opacity="0" stroke="#000000" stroke-width="1" stroke-opacity="0"></use></g></g><g><use xlink:href="#da020Dhb2" opacity="1" fill="#000000" fill-opacity="0"></use><g><use xlink:href="#da020Dhb2" opacity="1" fill-opacity="0" stroke="#000000" stroke-width="1" stroke-opacity="0"></use></g></g><g><use xlink:href="#a6GnDY6hT" opacity="1" fill="#000000" fill-opacity="0"></use><g><use xlink:href="#a6GnDY6hT" opacity="1" fill-opacity="0" stroke="#000000" stroke-width="1" stroke-opacity="0"></use></g></g><g><use xlink:href="#a33M2KmsHH" opacity="1" fill="#f2f2f2" fill-opacity="1"></use><g><use xlink:href="#a33M2KmsHH" opacity="1" fill-opacity="0" stroke="#000000" stroke-width="1" stroke-opacity="0"></use></g></g><g><use xlink:href="#c7TLYWMaED" opacity="1" fill="#000000" fill-opacity="0"></use><g><use xlink:href="#c7TLYWMaED" opacity="1" fill-opacity="0" stroke="#000000" stroke-width="1" stroke-opacity="0"></use></g></g><g><use xlink:href="#f6GuUTGUR" opacity="1" fill="#000000" fill-opacity="0"></use><g><use xlink:href="#f6GuUTGUR" opacity="1" fill-opacity="0" stroke="#000000" stroke-width="1" stroke-opacity="0"></use></g></g><g><use xlink:href="#a3XT3u1Cbl" opacity="1" fill="#000000" fill-opacity="0"></use><g><use xlink:href="#a3XT3u1Cbl" opacity="1" fill-opacity="0" stroke="#000000" stroke-width="1" stroke-opacity="0"></use></g></g><g><use xlink:href="#e2jYmqouBx" opacity="1" fill="#186f8a" fill-opacity="1"></use><g><use xlink:href="#e2jYmqouBx" opacity="1" fill-opacity="0" stroke="#000000" stroke-width="1" stroke-opacity="0"></use></g></g><g><use xlink:href="#a5UOCpFcN" opacity="1" fill="#000000" fill-opacity="0"></use><g><use xlink:href="#a5UOCpFcN" opacity="1" fill-opacity="0" stroke="#000000" stroke-width="1" stroke-opacity="0"></use></g></g><g><use xlink:href="#a4IseFWuwc" opacity="1" fill="#000000" fill-opacity="0"></use><g><use xlink:href="#a4IseFWuwc" opacity="1" fill-opacity="0" stroke="#000000" stroke-width="1" stroke-opacity="0"></use></g></g><g><use xlink:href="#d4weCU3xkV" opacity="1" fill="#000000" fill-opacity="0"></use><g><use xlink:href="#d4weCU3xkV" opacity="1" fill-opacity="0" stroke="#000000" stroke-width="1" stroke-opacity="0"></use></g></g><g><use xlink:href="#cX16kFY3j" opacity="1" fill="#334a5e" fill-opacity="1"></use><g><use xlink:href="#cX16kFY3j" opacity="1" fill-opacity="0" stroke="#000000" stroke-width="1" stroke-opacity="0"></use></g></g><g><use xlink:href="#b7hAoq6kXM" opacity="1" fill="#000000" fill-opacity="0"></use><g><use xlink:href="#b7hAoq6kXM" opacity="1" fill-opacity="0" stroke="#000000" stroke-width="1" stroke-opacity="0"></use></g></g><g><use xlink:href="#b1aigDFlls" opacity="1" fill="#000000" fill-opacity="0"></use><g><use xlink:href="#b1aigDFlls" opacity="1" fill-opacity="0" stroke="#000000" stroke-width="1" stroke-opacity="0"></use></g></g><g><use xlink:href="#d1oDXb4Ds" opacity="1" fill="#000000" fill-opacity="0"></use><g><use xlink:href="#d1oDXb4Ds" opacity="1" fill-opacity="0" stroke="#000000" stroke-width="1" stroke-opacity="0"></use></g></g><g><use xlink:href="#b2y9QRhYRg" opacity="1" fill="#40596b" fill-opacity="1"></use><g><use xlink:href="#b2y9QRhYRg" opacity="1" fill-opacity="0" stroke="#000000" stroke-width="1" stroke-opacity="0"></use></g></g><g><use xlink:href="#aOqrvxGkJ" opacity="1" fill="#000000" fill-opacity="0"></use><g><use xlink:href="#aOqrvxGkJ" opacity="1" fill-opacity="0" stroke="#000000" stroke-width="1" stroke-opacity="0"></use></g></g><g><use xlink:href="#b1n7UGKJeR" opacity="1" fill="#000000" fill-opacity="0"></use><g><use xlink:href="#b1n7UGKJeR" opacity="1" fill-opacity="0" stroke="#000000" stroke-width="1" stroke-opacity="0"></use></g></g><g><use xlink:href="#b4zOpC7dT0" opacity="1" fill="#000000" fill-opacity="0"></use><g><use xlink:href="#b4zOpC7dT0" opacity="1" fill-opacity="0" stroke="#000000" stroke-width="1" stroke-opacity="0"></use></g></g><g><use xlink:href="#a2U8NVdS76" opacity="1" fill="#acb3ba" fill-opacity="1"></use><g><use xlink:href="#a2U8NVdS76" opacity="1" fill-opacity="0" stroke="#000000" stroke-width="1" stroke-opacity="0"></use></g></g><g><use xlink:href="#b5YJScCuJk" opacity="1" fill="#000000" fill-opacity="0"></use><g><use xlink:href="#b5YJScCuJk" opacity="1" fill-opacity="0" stroke="#000000" stroke-width="1" stroke-opacity="0"></use></g></g><g><use xlink:href="#b1oWbhW5Zj" opacity="1" fill="#000000" fill-opacity="0"></use><g><use xlink:href="#b1oWbhW5Zj" opacity="1" fill-opacity="0" stroke="#000000" stroke-width="1" stroke-opacity="0"></use></g></g><g><use xlink:href="#bxbcM4pom" opacity="1" fill="#000000" fill-opacity="0"></use><g><use xlink:href="#bxbcM4pom" opacity="1" fill-opacity="0" stroke="#000000" stroke-width="1" stroke-opacity="0"></use></g></g><g><use xlink:href="#b5qFvLQ0Yw" opacity="1" fill="#40596b" fill-opacity="1"></use><g><use xlink:href="#b5qFvLQ0Yw" opacity="1" fill-opacity="0" stroke="#000000" stroke-width="1" stroke-opacity="0"></use></g></g><g><use xlink:href="#b6VQZ6wPC" opacity="1" fill="#000000" fill-opacity="0"></use><g><use xlink:href="#b6VQZ6wPC" opacity="1" fill-opacity="0" stroke="#000000" stroke-width="1" stroke-opacity="0"></use></g></g><g><use xlink:href="#adkJd5yDy" opacity="1" fill="#000000" fill-opacity="0"></use><g><use xlink:href="#adkJd5yDy" opacity="1" fill-opacity="0" stroke="#000000" stroke-width="1" stroke-opacity="0"></use></g></g><g><use xlink:href="#a8JFs4m0R" opacity="1" fill="#000000" fill-opacity="0"></use><g><use xlink:href="#a8JFs4m0R" opacity="1" fill-opacity="0" stroke="#000000" stroke-width="1" stroke-opacity="0"></use></g></g><g><use xlink:href="#aIYVRpRWN" opacity="1" fill="#acb3ba" fill-opacity="1"></use><g><use xlink:href="#aIYVRpRWN" opacity="1" fill-opacity="0" stroke="#000000" stroke-width="1" stroke-opacity="0"></use></g></g><g><use xlink:href="#bmi8llKdN" opacity="1" fill="#000000" fill-opacity="0"></use><g><use xlink:href="#bmi8llKdN" opacity="1" fill-opacity="0" stroke="#000000" stroke-width="1" stroke-opacity="0"></use></g></g><g><use xlink:href="#d14MZ3TDK6" opacity="1" fill="#000000" fill-opacity="0"></use><g><use xlink:href="#d14MZ3TDK6" opacity="1" fill-opacity="0" stroke="#000000" stroke-width="1" stroke-opacity="0"></use></g></g><g><use xlink:href="#a80XkTPKI" opacity="1" fill="#000000" fill-opacity="0"></use><g><use xlink:href="#a80XkTPKI" opacity="1" fill-opacity="0" stroke="#000000" stroke-width="1" stroke-opacity="0"></use></g></g><g><use xlink:href="#gi2DV4XSo" opacity="1" fill="#dcce48" fill-opacity="1"></use><g><use xlink:href="#gi2DV4XSo" opacity="1" fill-opacity="0" stroke="#000000" stroke-width="1" stroke-opacity="0"></use></g></g><g><use xlink:href="#b34NozmBcT" opacity="1" fill="#000000" fill-opacity="0"></use><g><use xlink:href="#b34NozmBcT" opacity="1" fill-opacity="0" stroke="#dcce48" stroke-width="4" stroke-opacity="1"></use></g></g><g><use xlink:href="#ccWl7mPqm" opacity="1" fill="#dcce48" fill-opacity="1"></use><g><use xlink:href="#ccWl7mPqm" opacity="1" fill-opacity="0" stroke="#000000" stroke-width="1" stroke-opacity="0"></use></g></g><g><use xlink:href="#a59jgpdmp" opacity="1" fill="#dcce48" fill-opacity="1"></use><g><use xlink:href="#a59jgpdmp" opacity="1" fill-opacity="0" stroke="#000000" stroke-width="1" stroke-opacity="0"></use></g></g><g><use xlink:href="#hB9wcU69V" opacity="1" fill="#dcce48" fill-opacity="1"></use><g><use xlink:href="#hB9wcU69V" opacity="1" fill-opacity="0" stroke="#000000" stroke-width="1" stroke-opacity="0"></use></g></g></g></g></svg>