<?xml version="1.0" encoding="UTF-8" standalone="no"?>
<!DOCTYPE svg PUBLIC "-//W3C//DTD SVG 1.1//EN" "http://www.w3.org/Graphics/SVG/1.1/DTD/svg11.dtd">
<svg version="1.1" xmlns="http://www.w3.org/2000/svg" xmlns:xlink="http://www.w3.org/1999/xlink" preserveAspectRatio="xMidYMid meet" viewBox="0 0 640 640" width="640" height="640"><defs><path d="M545.5 205.98L413.35 205.98L413.35 445.5L629.87 445.5C629.87 380.81 629.87 344.88 629.87 337.69C614.72 285.33 606.3 256.24 604.62 250.42C597 224.1 572.9 205.98 545.5 205.98" id="g1yG23aHHK"></path><path d="M545.5 205.98L413.35 205.98L413.35 445.5L629.87 445.5C629.87 380.81 629.87 344.88 629.87 337.69C614.72 285.33 606.3 256.24 604.62 250.42C597 224.1 572.9 205.98 545.5 205.98" id="cbSY5dFfV"></path><path d="M545.5 236.06C538.7 236.06 504.67 236.06 443.43 236.06C443.43 242.76 443.43 276.27 443.43 336.59C536.33 336.59 587.94 336.59 598.26 336.59C584.75 289.91 577.25 263.98 575.75 258.79C571.87 245.42 559.43 236.06 545.5 236.06Z" id="a2gHWoHehz"></path><path d="M545.5 236.06C538.7 236.06 504.67 236.06 443.43 236.06C443.43 242.76 443.43 276.27 443.43 336.59C536.33 336.59 587.94 336.59 598.26 336.59C584.75 289.91 577.25 263.98 575.75 258.79C571.87 245.42 559.43 236.06 545.5 236.06Z" id="f4YD4LHVJJ"></path><path d="M443.38 236.02L598.28 336.55L443.38 336.55L443.38 236.02Z" id="a3YmFYf4BL"></path><path d="M443.38 236.02L598.28 336.55L443.38 336.55L443.38 236.02Z" id="igWaoV8bG"></path><path d="M545.5 236.06C538.7 236.06 504.67 236.06 443.43 236.06C458.91 246.11 582.78 326.54 598.26 336.59C584.75 289.91 577.25 263.98 575.75 258.79C571.87 245.42 559.43 236.06 545.5 236.06Z" id="e3mRin8BAX"></path><path d="M545.5 236.06C538.7 236.06 504.67 236.06 443.43 236.06C458.91 246.11 582.78 326.54 598.26 336.59C584.75 289.91 577.25 263.98 575.75 258.79C571.87 245.42 559.43 236.06 545.5 236.06Z" id="bXLJs5E9e"></path><path d="M40 85.74C240.01 85.74 351.13 85.74 373.35 85.74C395.43 85.74 413.35 103.64 413.35 125.74C413.35 147.05 413.35 253.63 413.35 445.48C372.02 445.48 41.34 445.48 0 445.48C0 253.63 0 147.05 0 125.74C0 103.65 17.9 85.74 40 85.74" id="a32JhVDmRR"></path><path d="M40 85.74C240.01 85.74 351.13 85.74 373.35 85.74C395.43 85.74 413.35 103.64 413.35 125.74C413.35 147.05 413.35 253.63 413.35 445.48C372.02 445.48 41.34 445.48 0 445.48C0 253.63 0 147.05 0 125.74C0 103.65 17.9 85.74 40 85.74" id="arQ2iZHqF"></path><path d="M0.05 490.67C0.05 463.55 0.05 448.48 0.05 445.47C40.13 445.47 62.4 445.47 66.85 445.47C82.45 417.47 112.44 398.54 146.84 398.54C181.1 398.54 211.1 417.47 226.83 445.47C248.33 445.47 420.26 445.47 441.75 445.47C457.35 417.47 487.2 398.54 521.6 398.54C555.99 398.54 585.86 417.47 601.59 445.47C604.15 445.47 616.95 445.47 640 445.47C640 448.48 640 463.55 640 490.67L0.05 490.67Z" id="cbH90AoLU"></path><path d="M0.05 490.67C0.05 463.55 0.05 448.48 0.05 445.47C40.13 445.47 62.4 445.47 66.85 445.47C82.45 417.47 112.44 398.54 146.84 398.54C181.1 398.54 211.1 417.47 226.83 445.47C248.33 445.47 420.26 445.47 441.75 445.47C457.35 417.47 487.2 398.54 521.6 398.54C555.99 398.54 585.86 417.47 601.59 445.47C604.15 445.47 616.95 445.47 640 445.47C640 448.48 640 463.55 640 490.67L0.05 490.67Z" id="b9aubEVN8"></path><path d="M585.47 490.39C585.47 525.66 556.87 554.26 521.6 554.26C486.32 554.26 457.75 525.66 457.75 490.39C457.75 455.11 486.33 426.51 521.6 426.51C556.89 426.51 585.47 455.11 585.47 490.39" id="depagbsvg"></path><path d="M585.47 490.39C585.47 525.66 556.87 554.26 521.6 554.26C486.32 554.26 457.75 525.66 457.75 490.39C457.75 455.11 486.33 426.51 521.6 426.51C556.89 426.51 585.47 455.11 585.47 490.39" id="b1s9ExnIWD"></path><path d="M547.27 490.39C547.27 504.56 535.78 516.04 521.62 516.04C507.45 516.04 495.94 504.56 495.94 490.39C495.94 476.21 507.44 464.73 521.62 464.73C535.78 464.72 547.27 476.21 547.27 490.39" id="aFpVA2Uwb"></path><path d="M547.27 490.39C547.27 504.56 535.78 516.04 521.62 516.04C507.45 516.04 495.94 504.56 495.94 490.39C495.94 476.21 507.44 464.73 521.62 464.73C535.78 464.72 547.27 476.21 547.27 490.39" id="e2n81P4bZa"></path><path d="M210.66 490.39C210.66 525.66 182.05 554.26 146.79 554.26C111.51 554.26 82.91 525.66 82.91 490.39C82.91 455.11 111.51 426.51 146.79 426.51C182.05 426.51 210.66 455.11 210.66 490.39" id="a1i07y8Er"></path><path d="M210.66 490.39C210.66 525.66 182.05 554.26 146.79 554.26C111.51 554.26 82.91 525.66 82.91 490.39C82.91 455.11 111.51 426.51 146.79 426.51C182.05 426.51 210.66 455.11 210.66 490.39" id="c3BnUaEUqR"></path><path d="M173.53 490.39C173.53 504.56 162.05 516.04 147.88 516.04C133.71 516.04 122.22 504.56 122.22 490.39C122.22 476.21 133.71 464.73 147.88 464.73C162.05 464.73 173.53 476.21 173.53 490.39" id="g1luFKUrFv"></path><path d="M173.53 490.39C173.53 504.56 162.05 516.04 147.88 516.04C133.71 516.04 122.22 504.56 122.22 490.39C122.22 476.21 133.71 464.73 147.88 464.73C162.05 464.73 173.53 476.21 173.53 490.39" id="a1CMogYJWv"></path><path d="M332.16 239.02L242.62 328.88L116.87 328.88L27.33 239.02L27.33 112.82L116.87 22.96L242.62 22.96L332.16 112.82L332.16 239.02Z" id="b1h9ZnzTXu"></path><path d="M332.16 239.02L242.62 328.88L179.75 328.88L179.75 22.96L242.62 22.96L332.16 112.82L332.16 239.02Z" id="a1n6VM83Qn"></path><path d="M295.84 224.14L227.79 292.43L131.7 292.43L63.65 224.14L63.65 127.7L131.7 59.41L227.79 59.41L295.84 127.7L295.84 224.14ZM81.51 135.05L81.51 216.79L139.02 274.51L220.47 274.51L277.98 216.79L277.98 135.05L220.47 77.33L139.02 77.33L81.51 135.05Z" id="e19Xj4iZsF"></path><path d="M295.84 224.14L227.79 292.43L179.75 292.43L179.75 274.51L220.47 274.51L277.98 216.79L277.98 135.05L220.47 77.33L179.75 77.33L179.75 59.41L227.79 59.41L295.84 127.7L295.84 224.14Z" id="a1cB8dH3B"></path><path d="M180.43 88.46L180.75 88.48L181.06 88.5L181.38 88.54L181.69 88.58L182.01 88.63L182.32 88.68L182.63 88.74L182.94 88.81L183.24 88.89L183.55 88.97L183.85 89.06L184.16 89.16L184.46 89.26L184.75 89.38L185.05 89.49L185.34 89.62L185.63 89.75L185.92 89.89L186.21 90.03L186.49 90.18L186.77 90.34L187.05 90.51L187.33 90.68L187.6 90.85L187.87 91.04L188.14 91.23L188.4 91.42L188.66 91.63L188.92 91.83L189.17 92.05L189.42 92.27L189.66 92.5L189.91 92.73L190.14 92.97L190.38 93.21L190.61 93.46L190.83 93.72L191.06 93.98L191.27 94.25L191.48 94.52L191.69 94.8L191.89 95.08L192.09 95.36L192.28 95.65L192.46 95.94L192.64 96.24L192.81 96.54L192.98 96.84L193.14 97.15L193.3 97.46L193.45 97.78L193.6 98.09L193.74 98.41L193.87 98.74L194 99.06L194.12 99.39L194.24 99.73L194.35 100.06L194.45 100.4L194.55 100.74L194.64 101.08L194.73 101.42L194.81 101.77L194.89 102.11L194.95 102.46L195.02 102.82L195.07 103.17L195.12 103.52L195.16 103.88L195.2 104.24L195.23 104.59L195.26 104.95L195.27 105.32L195.29 105.68L195.29 106.04L195.29 106.4L195.28 106.77L195.27 107.13L191.27 190.59L191.23 191.08L191.18 191.56L191.12 192.04L191.04 192.51L190.94 192.98L190.83 193.44L190.7 193.89L190.56 194.33L190.41 194.77L190.24 195.19L190.06 195.61L189.86 196.02L189.65 196.42L189.43 196.81L189.2 197.19L188.96 197.55L188.7 197.91L188.44 198.26L188.16 198.59L187.87 198.91L187.57 199.23L187.26 199.52L186.95 199.81L186.62 200.08L186.28 200.34L185.94 200.58L185.59 200.81L185.23 201.02L184.86 201.22L184.48 201.41L184.1 201.57L183.71 201.73L183.32 201.86L182.91 201.98L182.51 202.08L182.09 202.17L181.68 202.23L181.25 202.28L180.83 202.31L180.4 202.32L179.23 202.32L178.8 202.31L178.37 202.28L177.95 202.24L177.53 202.17L177.11 202.09L176.7 201.99L176.3 201.87L175.9 201.73L175.51 201.58L175.13 201.41L174.75 201.23L174.38 201.03L174.02 200.82L173.66 200.59L173.31 200.34L172.98 200.08L172.65 199.81L172.33 199.53L172.02 199.23L171.72 198.92L171.43 198.59L171.15 198.26L170.88 197.91L170.63 197.55L170.38 197.18L170.15 196.8L169.93 196.41L169.72 196L169.53 195.59L169.34 195.17L169.18 194.75L169.02 194.31L168.88 193.86L168.75 193.41L168.64 192.95L168.55 192.48L168.47 192.01L168.4 191.52L168.35 191.04L168.32 190.54L164.32 107.13L164.3 106.77L164.29 106.4L164.29 106.04L164.3 105.68L164.31 105.32L164.33 104.95L164.35 104.59L164.38 104.24L164.42 103.88L164.46 103.52L164.51 103.17L164.57 102.82L164.63 102.46L164.7 102.11L164.77 101.77L164.85 101.42L164.94 101.08L165.03 100.74L165.13 100.4L165.23 100.06L165.34 99.73L165.46 99.39L165.58 99.06L165.71 98.74L165.84 98.41L165.98 98.09L166.13 97.78L166.28 97.46L166.44 97.15L166.6 96.84L166.77 96.54L166.94 96.24L167.12 95.94L167.3 95.65L167.49 95.36L167.69 95.08L167.89 94.8L168.1 94.52L168.31 94.25L168.53 93.98L168.75 93.72L168.97 93.46L169.2 93.21L169.44 92.97L169.68 92.73L169.92 92.5L170.16 92.27L170.41 92.05L170.67 91.83L170.92 91.63L171.18 91.42L171.45 91.23L171.71 91.04L171.98 90.85L172.25 90.68L172.53 90.51L172.81 90.34L173.09 90.18L173.37 90.03L173.66 89.89L173.95 89.75L174.24 89.62L174.53 89.49L174.83 89.38L175.13 89.26L175.43 89.16L175.73 89.06L176.03 88.97L176.34 88.89L176.64 88.81L176.95 88.74L177.26 88.68L177.58 88.63L177.89 88.58L178.2 88.54L178.52 88.5L178.84 88.48L179.15 88.46L179.47 88.45L179.79 88.44L180.11 88.45L180.43 88.46Z" id="a5AbdiAgoH"></path><path d="M183.74 216.71L185.06 216.95L186.34 217.29L187.58 217.71L188.77 218.21L189.91 218.8L190.99 219.46L192.01 220.19L192.97 220.99L193.85 221.85L194.66 222.77L195.39 223.74L196.03 224.77L196.59 225.85L197.06 226.97L197.43 228.12L197.7 229.32L197.87 230.55L197.92 231.8L197.87 233.06L197.7 234.28L197.43 235.48L197.06 236.63L196.59 237.75L196.03 238.83L195.39 239.86L194.66 240.83L193.85 241.75L192.97 242.61L192.01 243.41L190.99 244.14L189.91 244.8L188.77 245.39L187.58 245.89L186.34 246.31L185.06 246.65L183.74 246.89L182.38 247.04L180.99 247.09L179.6 247.04L178.25 246.89L176.92 246.65L175.64 246.31L174.4 245.89L173.21 245.39L172.07 244.8L170.99 244.14L169.97 243.41L169.02 242.61L168.14 241.75L167.33 240.83L166.6 239.86L165.95 238.83L165.39 237.75L164.92 236.63L164.55 235.48L164.28 234.28L164.12 233.06L164.06 231.8L164.12 230.55L164.28 229.32L164.55 228.12L164.92 226.97L165.39 225.85L165.95 224.77L166.6 223.74L167.33 222.77L168.14 221.85L169.02 220.99L169.97 220.19L170.99 219.46L172.07 218.8L173.21 218.21L174.4 217.71L175.64 217.29L176.92 216.95L178.25 216.71L179.6 216.56L180.99 216.51L182.38 216.56L183.74 216.71Z" id="g2PeV7Npyo"></path></defs><g><g><g><use xlink:href="#g1yG23aHHK" opacity="1" fill="#3894bd" fill-opacity="1"></use><g><use xlink:href="#g1yG23aHHK" opacity="1" fill-opacity="0" stroke="#000000" stroke-width="1" stroke-opacity="0"></use></g></g><g><use xlink:href="#cbSY5dFfV" opacity="1" fill="#000000" fill-opacity="0"></use><g><use xlink:href="#cbSY5dFfV" opacity="1" fill-opacity="0" stroke="#000000" stroke-width="1" stroke-opacity="0"></use></g></g><g><use xlink:href="#a2gHWoHehz" opacity="1" fill="#84dbff" fill-opacity="1"></use><g><use xlink:href="#a2gHWoHehz" opacity="1" fill-opacity="0" stroke="#000000" stroke-width="1" stroke-opacity="0"></use></g></g><g><use xlink:href="#f4YD4LHVJJ" opacity="1" fill="#000000" fill-opacity="0"></use><g><use xlink:href="#f4YD4LHVJJ" opacity="1" fill-opacity="0" stroke="#000000" stroke-width="1" stroke-opacity="0"></use></g></g><g><use xlink:href="#a3YmFYf4BL" opacity="1" fill="#cdd6e0" fill-opacity="1"></use><g><use xlink:href="#a3YmFYf4BL" opacity="1" fill-opacity="0" stroke="#000000" stroke-width="1" stroke-opacity="0"></use></g></g><g><use xlink:href="#igWaoV8bG" opacity="1" fill="#000000" fill-opacity="0"></use><g><use xlink:href="#igWaoV8bG" opacity="1" fill-opacity="0" stroke="#000000" stroke-width="1" stroke-opacity="0"></use></g></g><g><use xlink:href="#e3mRin8BAX" opacity="1" fill="#f2f2f2" fill-opacity="1"></use><g><use xlink:href="#e3mRin8BAX" opacity="1" fill-opacity="0" stroke="#000000" stroke-width="1" stroke-opacity="0"></use></g></g><g><use xlink:href="#bXLJs5E9e" opacity="1" fill="#000000" fill-opacity="0"></use><g><use xlink:href="#bXLJs5E9e" opacity="1" fill-opacity="0" stroke="#000000" stroke-width="1" stroke-opacity="0"></use></g></g><g><use xlink:href="#a32JhVDmRR" opacity="1" fill="#186f8a" fill-opacity="1"></use><g><use xlink:href="#a32JhVDmRR" opacity="1" fill-opacity="0" stroke="#000000" stroke-width="1" stroke-opacity="0"></use></g></g><g><use xlink:href="#arQ2iZHqF" opacity="1" fill="#000000" fill-opacity="0"></use><g><use xlink:href="#arQ2iZHqF" opacity="1" fill-opacity="0" stroke="#000000" stroke-width="1" stroke-opacity="0"></use></g></g><g><use xlink:href="#cbH90AoLU" opacity="1" fill="#334a5e" fill-opacity="1"></use><g><use xlink:href="#cbH90AoLU" opacity="1" fill-opacity="0" stroke="#000000" stroke-width="1" stroke-opacity="0"></use></g></g><g><use xlink:href="#b9aubEVN8" opacity="1" fill="#000000" fill-opacity="0"></use><g><use xlink:href="#b9aubEVN8" opacity="1" fill-opacity="0" stroke="#000000" stroke-width="1" stroke-opacity="0"></use></g></g><g><use xlink:href="#depagbsvg" opacity="1" fill="#40596b" fill-opacity="1"></use><g><use xlink:href="#depagbsvg" opacity="1" fill-opacity="0" stroke="#000000" stroke-width="1" stroke-opacity="0"></use></g></g><g><use xlink:href="#b1s9ExnIWD" opacity="1" fill="#000000" fill-opacity="0"></use><g><use xlink:href="#b1s9ExnIWD" opacity="1" fill-opacity="0" stroke="#000000" stroke-width="1" stroke-opacity="0"></use></g></g><g><use xlink:href="#aFpVA2Uwb" opacity="1" fill="#acb3ba" fill-opacity="1"></use><g><use xlink:href="#aFpVA2Uwb" opacity="1" fill-opacity="0" stroke="#000000" stroke-width="1" stroke-opacity="0"></use></g></g><g><use xlink:href="#e2n81P4bZa" opacity="1" fill="#000000" fill-opacity="0"></use><g><use xlink:href="#e2n81P4bZa" opacity="1" fill-opacity="0" stroke="#000000" stroke-width="1" stroke-opacity="0"></use></g></g><g><use xlink:href="#a1i07y8Er" opacity="1" fill="#40596b" fill-opacity="1"></use><g><use xlink:href="#a1i07y8Er" opacity="1" fill-opacity="0" stroke="#000000" stroke-width="1" stroke-opacity="0"></use></g></g><g><use xlink:href="#c3BnUaEUqR" opacity="1" fill="#000000" fill-opacity="0"></use><g><use xlink:href="#c3BnUaEUqR" opacity="1" fill-opacity="0" stroke="#000000" stroke-width="1" stroke-opacity="0"></use></g></g><g><use xlink:href="#g1luFKUrFv" opacity="1" fill="#acb3ba" fill-opacity="1"></use><g><use xlink:href="#g1luFKUrFv" opacity="1" fill-opacity="0" stroke="#000000" stroke-width="1" stroke-opacity="0"></use></g></g><g><use xlink:href="#a1CMogYJWv" opacity="1" fill="#000000" fill-opacity="0"></use><g><use xlink:href="#a1CMogYJWv" opacity="1" fill-opacity="0" stroke="#000000" stroke-width="1" stroke-opacity="0"></use></g></g><g><use xlink:href="#b1h9ZnzTXu" opacity="1" fill="#ff6c6c" fill-opacity="1"></use><g><use xlink:href="#b1h9ZnzTXu" opacity="1" fill-opacity="0" stroke="#000000" stroke-width="1" stroke-opacity="0"></use></g></g><g><use xlink:href="#a1n6VM83Qn" opacity="1" fill="#ff4949" fill-opacity="1"></use><g><use xlink:href="#a1n6VM83Qn" opacity="1" fill-opacity="0" stroke="#000000" stroke-width="1" stroke-opacity="0"></use></g></g><g><use xlink:href="#e19Xj4iZsF" opacity="1" fill="#deecf1" fill-opacity="1"></use><g><use xlink:href="#e19Xj4iZsF" opacity="1" fill-opacity="0" stroke="#000000" stroke-width="1" stroke-opacity="0"></use></g></g><g><use xlink:href="#a1cB8dH3B" opacity="1" fill="#c6e2e7" fill-opacity="1"></use><g><use xlink:href="#a1cB8dH3B" opacity="1" fill-opacity="0" stroke="#000000" stroke-width="1" stroke-opacity="0"></use></g></g><g><use xlink:href="#a5AbdiAgoH" opacity="1" fill="#ffffff" fill-opacity="1"></use><g><use xlink:href="#a5AbdiAgoH" opacity="1" fill-opacity="0" stroke="#000000" stroke-width="1" stroke-opacity="0"></use></g></g><g><use xlink:href="#g2PeV7Npyo" opacity="1" fill="#ffffff" fill-opacity="1"></use><g><use xlink:href="#g2PeV7Npyo" opacity="1" fill-opacity="0" stroke="#000000" stroke-width="1" stroke-opacity="0"></use></g></g></g></g></svg>