<?xml version="1.0" encoding="UTF-8" standalone="no"?>
<!DOCTYPE svg PUBLIC "-//W3C//DTD SVG 1.1//EN" "http://www.w3.org/Graphics/SVG/1.1/DTD/svg11.dtd">
<svg version="1.1" xmlns="http://www.w3.org/2000/svg" xmlns:xlink="http://www.w3.org/1999/xlink" preserveAspectRatio="xMidYMid meet" viewBox="0 0 640 640" width="640" height="640"><defs><path d="M489.2 14.75L490.74 14.91L492.25 15.14L493.75 15.43L495.22 15.78L496.68 16.19L498.11 16.66L499.51 17.19L500.89 17.77L502.24 18.41L503.57 19.1L504.86 19.84L506.12 20.63L507.35 21.48L508.55 22.37L509.71 23.3L510.84 24.29L511.93 25.31L512.98 26.38L514 27.49L514.97 28.64L515.9 29.83L516.79 31.06L517.63 32.33L518.43 33.62L519.18 34.96L519.88 36.32L520.54 37.72L521.14 39.15L521.69 40.6L522.19 42.09L522.63 43.6L523.02 45.13L523.36 46.69L523.63 48.27L523.85 49.87L524 51.49L524.1 53.13L524.13 54.78L524.13 597.01L524.1 598.67L524 600.31L523.85 601.93L523.63 603.53L523.36 605.11L523.02 606.66L522.63 608.2L522.19 609.71L521.69 611.19L521.14 612.65L520.54 614.07L519.88 615.47L519.18 616.84L518.43 618.17L517.63 619.47L516.79 620.73L515.9 621.96L514.97 623.15L514 624.3L512.98 625.41L511.93 626.48L510.84 627.51L509.71 628.49L508.55 629.43L507.35 630.32L506.12 631.16L504.86 631.95L503.57 632.69L502.24 633.38L500.89 634.02L499.51 634.6L498.11 635.13L496.68 635.6L495.22 636.01L493.75 636.36L492.25 636.65L490.74 636.88L489.2 637.04L487.65 637.14L486.08 637.18L67.56 637.18L66 637.14L64.44 637.04L62.91 636.88L61.39 636.65L59.9 636.36L58.42 636.01L56.97 635.6L55.54 635.13L54.13 634.6L52.76 634.02L51.4 633.38L50.08 632.69L48.79 631.95L47.52 631.16L46.29 630.32L45.1 629.43L43.93 628.49L42.8 627.51L41.71 626.48L40.66 625.41L39.65 624.3L38.68 623.15L37.75 621.96L36.86 620.73L36.02 619.47L35.22 618.17L34.47 616.84L33.76 615.47L33.11 614.07L32.51 612.65L31.96 611.19L31.46 609.71L31.01 608.2L30.62 606.66L30.29 605.11L30.02 603.53L29.8 601.93L29.64 600.31L29.55 598.67L29.52 597.01L29.52 54.78L29.55 53.13L29.64 51.49L29.8 49.87L30.02 48.27L30.29 46.69L30.62 45.13L31.01 43.6L31.46 42.09L31.96 40.6L32.51 39.15L33.11 37.72L33.76 36.32L34.47 34.96L35.22 33.62L36.02 32.33L36.86 31.06L37.75 29.83L38.68 28.64L39.65 27.49L40.66 26.38L41.71 25.31L42.8 24.29L43.93 23.3L45.1 22.37L46.29 21.48L47.52 20.63L48.79 19.84L50.08 19.1L51.4 18.41L52.76 17.77L54.13 17.19L55.54 16.66L56.97 16.19L58.42 15.78L59.9 15.43L61.39 15.14L62.91 14.91L64.44 14.75L66 14.65L67.56 14.62L486.08 14.62L487.65 14.65L489.2 14.75Z" id="a5HDlXJSJ"></path><path d="M192.85 597.01L67.56 464.75L67.56 54.78L486.08 54.78L486.08 597.01L192.85 597.01Z" id="a3iNjoBtGX"></path><path d="M67.56 464.75L192.85 464.75L192.85 597.01L67.56 464.75Z" id="dqzMOyZWP"></path><path d="M371.91 76.52L371.81 78.16L371.66 79.78L371.44 81.38L371.17 82.96L370.84 84.52L370.45 86.05L370 87.56L369.5 89.04L368.95 90.5L368.35 91.92L367.69 93.32L366.99 94.69L366.24 96.02L365.44 97.32L364.6 98.58L363.71 99.81L362.78 101L361.81 102.15L360.8 103.26L359.74 104.33L358.65 105.36L357.53 106.34L356.36 107.28L355.17 108.17L353.93 109.01L352.67 109.8L351.38 110.55L350.05 111.24L348.7 111.87L347.32 112.46L345.92 112.98L344.49 113.45L343.04 113.86L341.56 114.21L340.06 114.5L338.55 114.73L337.01 114.9L335.46 115L333.89 115.03L219.75 115.03L218.18 115L216.63 114.9L215.1 114.73L213.58 114.5L212.09 114.21L210.61 113.86L209.16 113.45L207.73 112.98L206.32 112.46L204.94 111.87L203.59 111.24L202.27 110.55L200.97 109.8L199.71 109.01L198.48 108.17L197.28 107.28L196.12 106.34L194.99 105.36L193.9 104.33L192.85 103.26L191.84 102.15L190.86 101L189.93 99.81L189.05 98.58L188.2 97.32L187.41 96.02L186.66 94.69L185.95 93.32L185.3 91.92L184.7 90.5L184.14 89.04L183.65 87.56L183.2 86.05L182.81 84.52L182.48 82.96L182.2 81.38L181.99 79.78L181.83 78.16L181.74 76.52L181.71 74.86L181.71 -5.47L371.94 -5.47L371.94 74.86L371.91 76.52Z" id="bmno8p3j"></path><path d="M481.1 276.29L488.01 277.03L494.83 278.06L501.56 279.36L508.2 280.94L514.74 282.79L521.17 284.9L527.5 287.27L533.7 289.89L539.78 292.76L545.74 295.86L551.56 299.2L557.24 302.77L562.78 306.56L568.17 310.56L573.41 314.78L578.48 319.2L583.39 323.82L588.12 328.63L592.68 333.63L597.06 338.81L601.24 344.16L605.24 349.69L609.03 355.38L612.62 361.23L616 367.23L619.16 373.37L622.1 379.66L624.82 386.08L627.3 392.63L629.54 399.31L631.54 406.1L633.29 413L634.79 420.01L636.03 427.12L637 434.32L637.7 441.61L638.13 448.98L638.27 456.43L638.13 463.88L637.7 471.26L637 478.55L636.03 485.75L634.79 492.86L633.29 499.87L631.54 506.77L629.54 513.56L627.3 520.24L624.82 526.79L622.1 533.21L619.16 539.49L616 545.64L612.62 551.64L609.03 557.49L605.24 563.18L601.24 568.7L597.06 574.06L592.68 579.24L588.12 584.24L583.39 589.05L578.48 593.67L573.41 598.09L568.17 602.3L562.78 606.31L557.24 610.1L551.56 613.66L545.74 617L539.78 620.11L533.7 622.97L527.5 625.59L521.17 627.96L514.74 630.07L508.2 631.92L501.56 633.5L494.83 634.81L488.01 635.84L481.1 636.58L474.12 637.03L467.06 637.18L460 637.03L453.02 636.58L446.11 635.84L439.29 634.81L432.55 633.5L425.91 631.92L419.38 630.07L412.94 627.96L406.62 625.59L400.42 622.97L394.33 620.11L388.38 617L382.56 613.66L376.87 610.1L371.33 606.31L365.94 602.3L360.71 598.09L355.64 593.67L350.73 589.05L345.99 584.24L341.44 579.24L337.06 574.06L332.87 568.7L328.88 563.18L325.09 557.49L321.5 551.64L318.12 545.64L314.96 539.49L312.02 533.21L309.3 526.79L306.82 520.24L304.58 513.56L302.57 506.77L300.82 499.87L299.33 492.86L298.09 485.75L297.12 478.55L296.41 471.26L295.99 463.88L295.85 456.43L295.99 448.98L296.41 441.61L297.12 434.32L298.09 427.12L299.33 420.01L300.82 413L302.57 406.1L304.58 399.31L306.82 392.63L309.3 386.08L312.02 379.66L314.96 373.37L318.12 367.23L321.5 361.23L325.09 355.38L328.88 349.69L332.87 344.16L337.06 338.81L341.44 333.63L345.99 328.63L350.73 323.82L355.64 319.2L360.71 314.78L365.94 310.56L371.33 306.56L376.87 302.77L382.56 299.2L388.38 295.86L394.33 292.76L400.42 289.89L406.62 287.27L412.94 284.9L419.38 282.79L425.91 280.94L432.55 279.36L439.29 278.06L446.11 277.03L453.02 276.29L460 275.84L467.06 275.69L474.12 275.84L481.1 276.29Z" id="b35YsHEq7H"></path><path d="M530.26 399.08L530.98 399.16L531.71 399.28L532.42 399.42L533.14 399.59L533.84 399.79L534.55 400.02L535.24 400.28L535.92 400.57L536.6 400.88L537.26 401.23L537.92 401.6L538.56 402L539.19 402.43L539.8 402.89L540.4 403.38L540.99 403.89L541.55 404.43L542.11 405L542.64 405.6L543.15 406.23L543.64 406.87L544.1 407.54L544.54 408.21L544.94 408.9L545.31 409.6L545.66 410.31L545.97 411.03L546.26 411.76L546.52 412.5L546.75 413.24L546.95 414L547.12 414.75L547.27 415.52L547.38 416.28L547.47 417.05L547.53 417.82L547.56 418.6L547.57 419.37L547.54 420.14L547.49 420.91L547.41 421.67L547.3 422.44L547.17 423.2L547 423.95L546.81 424.7L546.6 425.44L546.35 426.17L546.08 426.89L545.78 427.6L545.45 428.3L545.1 428.99L544.72 429.67L544.31 430.33L543.88 430.98L543.42 431.62L542.93 432.23L542.42 432.83L541.88 433.42L541.31 433.98L540.72 434.52L427.83 533.81L390.96 494.87L390.42 494.28L389.91 493.66L389.42 493.03L388.96 492.38L388.53 491.72L388.12 491.05L387.75 490.36L387.4 489.66L387.08 488.95L386.79 488.23L386.52 487.5L386.29 486.76L386.08 486.02L385.9 485.26L385.74 484.51L385.62 483.75L385.52 482.98L385.45 482.21L385.41 481.44L385.39 480.67L385.41 479.9L385.45 479.13L385.52 478.36L385.62 477.6L385.74 476.84L385.9 476.08L386.08 475.33L386.29 474.58L386.52 473.85L386.79 473.12L387.08 472.4L387.4 471.69L387.75 470.99L388.12 470.3L388.53 469.62L388.96 468.96L389.42 468.32L389.91 467.69L390.42 467.07L390.96 466.47L391.53 465.9L392.11 465.36L392.71 464.84L393.32 464.36L393.95 463.9L394.59 463.48L395.24 463.08L395.9 462.71L396.57 462.37L397.26 462.06L397.95 461.79L398.65 461.54L399.35 461.32L400.06 461.12L400.78 460.96L401.5 460.83L402.23 460.73L402.95 460.65L403.68 460.61L404.41 460.59L405.14 460.61L405.87 460.65L406.6 460.73L407.32 460.83L408.05 460.96L408.76 461.12L409.47 461.32L410.18 461.54L410.88 461.79L411.57 462.06L412.25 462.37L412.93 462.71L413.59 463.08L414.24 463.48L414.88 463.9L415.51 464.36L416.12 464.84L416.72 465.36L417.3 465.9L417.86 466.47L430.19 479.47L516.35 403.66L516.96 403.14L517.59 402.65L518.23 402.2L518.88 401.77L519.54 401.38L520.22 401.01L520.9 400.68L521.59 400.38L522.29 400.1L523 399.86L523.71 399.65L524.43 399.47L525.15 399.31L525.88 399.19L526.6 399.1L527.33 399.04L528.07 399L528.8 399L529.53 399.02L530.26 399.08Z" id="a1RYpi2tAL"></path><path d="M392.52 155.26L393.29 155.34L394.05 155.46L394.8 155.6L395.54 155.78L396.26 155.98L396.98 156.22L397.68 156.48L398.37 156.77L399.04 157.09L399.71 157.44L400.35 157.81L400.98 158.2L401.6 158.62L402.2 159.07L402.78 159.54L403.34 160.03L403.89 160.54L404.42 161.08L404.92 161.63L405.41 162.21L405.87 162.8L406.32 163.42L406.74 164.05L407.14 164.7L407.51 165.37L407.86 166.05L408.19 166.75L408.49 167.46L408.77 168.19L409.02 168.93L409.24 169.68L409.44 170.45L409.6 171.23L409.74 172.02L409.85 172.82L409.92 173.63L409.97 174.45L409.99 175.28L409.97 176.1L409.92 176.92L409.85 177.73L409.74 178.53L409.6 179.32L409.44 180.1L409.24 180.87L409.02 181.62L408.77 182.37L408.49 183.09L408.19 183.81L407.86 184.51L407.51 185.19L407.14 185.86L406.74 186.51L406.32 187.14L405.87 187.75L405.41 188.35L404.92 188.92L404.42 189.48L403.89 190.01L403.34 190.53L402.78 191.02L402.2 191.48L401.6 191.93L400.98 192.35L400.35 192.75L399.71 193.12L399.04 193.46L398.37 193.78L397.68 194.07L396.98 194.34L396.26 194.57L395.54 194.78L394.8 194.95L394.05 195.1L393.29 195.21L392.52 195.29L391.75 195.34L390.96 195.36L238.78 195.36L237.99 195.34L237.22 195.29L236.45 195.21L235.69 195.1L234.94 194.95L234.2 194.78L233.48 194.57L232.76 194.34L232.06 194.07L231.37 193.78L230.7 193.46L230.03 193.12L229.39 192.75L228.76 192.35L228.14 191.93L227.54 191.48L226.96 191.02L226.4 190.53L225.85 190.01L225.32 189.48L224.82 188.92L224.33 188.35L223.87 187.75L223.42 187.14L223 186.51L222.6 185.86L222.23 185.19L221.88 184.51L221.55 183.81L221.25 183.09L220.97 182.37L220.72 181.62L220.5 180.87L220.31 180.1L220.14 179.32L220 178.53L219.89 177.73L219.82 176.92L219.77 176.1L219.75 175.28L219.77 174.45L219.82 173.63L219.89 172.82L220 172.02L220.14 171.23L220.31 170.45L220.5 169.68L220.72 168.93L220.97 168.19L221.25 167.46L221.55 166.75L221.88 166.05L222.23 165.37L222.6 164.7L223 164.05L223.42 163.42L223.87 162.8L224.33 162.21L224.82 161.63L225.32 161.08L225.85 160.54L226.4 160.03L226.96 159.54L227.54 159.07L228.14 158.62L228.76 158.2L229.39 157.81L230.03 157.44L230.7 157.09L231.37 156.77L232.06 156.48L232.76 156.22L233.48 155.98L234.2 155.78L234.94 155.6L235.69 155.46L236.45 155.34L237.22 155.26L237.99 155.21L238.78 155.19L390.96 155.19L391.75 155.21L392.52 155.26Z" id="a15bxxmlSD"></path><path d="M143.66 195.36L143.66 155.19L181.71 155.19L181.71 195.36L143.66 195.36Z" id="a4BtgZjYZt"></path><path d="M143.66 275.69L143.66 235.52L181.71 235.52L181.71 275.69L143.66 275.69Z" id="a1EwarQLVn"></path><path d="M143.66 356.02L143.66 315.86L181.71 315.86L181.71 356.02L143.66 356.02Z" id="c1Lx5BO2B3"></path><path d="M143.66 436.35L143.66 396.19L181.71 396.19L181.71 436.35L143.66 436.35Z" id="a1Jf3w9GNF"></path><path d="M354.48 235.59L355.24 235.67L356 235.79L356.75 235.93L357.49 236.11L358.22 236.31L358.93 236.55L359.63 236.81L360.32 237.1L361 237.42L361.66 237.77L362.31 238.14L362.94 238.53L363.55 238.95L364.15 239.4L364.73 239.87L365.3 240.36L365.84 240.87L366.37 241.41L366.88 241.96L367.36 242.54L367.83 243.13L368.27 243.75L368.69 244.38L369.09 245.03L369.47 245.7L369.82 246.38L370.14 247.08L370.45 247.79L370.72 248.52L370.97 249.26L371.19 250.01L371.39 250.78L371.55 251.56L371.69 252.35L371.8 253.15L371.88 253.96L371.93 254.78L371.94 255.61L371.93 256.44L371.88 257.25L371.8 258.06L371.69 258.86L371.55 259.65L371.39 260.43L371.19 261.2L370.97 261.95L370.72 262.7L370.45 263.42L370.14 264.14L369.82 264.84L369.47 265.52L369.09 266.19L368.69 266.84L368.27 267.47L367.83 268.08L367.36 268.68L366.88 269.25L366.37 269.81L365.84 270.34L365.3 270.86L364.73 271.35L364.15 271.82L363.55 272.26L362.94 272.68L362.31 273.08L361.66 273.45L361 273.79L360.32 274.11L359.63 274.4L358.93 274.67L358.22 274.9L357.49 275.11L356.75 275.28L356 275.43L355.24 275.54L354.48 275.62L353.7 275.67L352.92 275.69L238.78 275.69L237.99 275.67L237.22 275.62L236.45 275.54L235.69 275.43L234.94 275.28L234.2 275.11L233.48 274.9L232.76 274.67L232.06 274.4L231.37 274.11L230.7 273.79L230.03 273.45L229.39 273.08L228.76 272.68L228.14 272.26L227.54 271.82L226.96 271.35L226.4 270.86L225.85 270.34L225.32 269.81L224.82 269.25L224.33 268.68L223.87 268.08L223.42 267.47L223 266.84L222.6 266.19L222.23 265.52L221.88 264.84L221.55 264.14L221.25 263.42L220.97 262.7L220.72 261.95L220.5 261.2L220.31 260.43L220.14 259.65L220 258.86L219.89 258.06L219.82 257.25L219.77 256.44L219.75 255.61L219.77 254.78L219.82 253.96L219.89 253.15L220 252.35L220.14 251.56L220.31 250.78L220.5 250.01L220.72 249.26L220.97 248.52L221.25 247.79L221.55 247.08L221.88 246.38L222.23 245.7L222.6 245.03L223 244.38L223.42 243.75L223.87 243.13L224.33 242.54L224.82 241.96L225.32 241.41L225.85 240.87L226.4 240.36L226.96 239.87L227.54 239.4L228.14 238.95L228.76 238.53L229.39 238.14L230.03 237.77L230.7 237.42L231.37 237.1L232.06 236.81L232.76 236.55L233.48 236.31L234.2 236.11L234.94 235.93L235.69 235.79L236.45 235.67L237.22 235.59L237.99 235.54L238.78 235.52L352.92 235.52L353.7 235.54L354.48 235.59Z" id="a1DlQWaMHf"></path><path d="M278.42 315.93L279.21 316.01L279.99 316.13L280.75 316.28L281.51 316.47L282.25 316.68L282.98 316.93L283.7 317.21L284.4 317.51L285.09 317.85L285.77 318.21L286.42 318.6L287.07 319.01L287.69 319.45L288.3 319.92L288.89 320.41L289.46 320.92L290.01 321.46L290.54 322.02L291.05 322.6L291.53 323.2L292 323.82L292.44 324.46L292.86 325.12L293.25 325.8L293.62 326.5L293.96 327.21L294.28 327.94L294.57 328.68L294.83 329.44L295.06 330.21L295.27 330.99L295.44 331.79L295.59 332.6L295.7 333.42L295.78 334.25L295.83 335.09L295.85 335.94L295.83 336.79L295.78 337.63L295.7 338.46L295.59 339.28L295.44 340.09L295.27 340.88L295.06 341.67L294.83 342.44L294.57 343.2L294.28 343.94L293.96 344.67L293.62 345.38L293.25 346.07L292.86 346.75L292.44 347.41L292 348.05L291.53 348.67L291.05 349.28L290.54 349.86L290.01 350.41L289.46 350.95L288.89 351.47L288.3 351.96L287.69 352.42L287.07 352.86L286.42 353.28L285.77 353.67L285.09 354.03L284.4 354.36L283.7 354.67L282.98 354.94L282.25 355.19L281.51 355.41L280.75 355.59L279.99 355.74L279.21 355.86L278.42 355.95L277.63 356L276.82 356.02L238.78 356.02L237.97 356L237.18 355.95L236.39 355.86L235.61 355.74L234.85 355.59L234.09 355.41L233.35 355.19L232.62 354.94L231.9 354.67L231.2 354.36L230.51 354.03L229.83 353.67L229.18 353.28L228.53 352.86L227.91 352.42L227.3 351.96L226.71 351.47L226.14 350.95L225.59 350.41L225.06 349.86L224.55 349.28L224.07 348.67L223.6 348.05L223.16 347.41L222.74 346.75L222.35 346.07L221.98 345.38L221.64 344.67L221.32 343.94L221.03 343.2L220.77 342.44L220.54 341.67L220.33 340.88L220.16 340.09L220.01 339.28L219.9 338.46L219.82 337.63L219.77 336.79L219.75 335.94L219.77 335.09L219.82 334.25L219.9 333.42L220.01 332.6L220.16 331.79L220.33 330.99L220.54 330.21L220.77 329.44L221.03 328.68L221.32 327.94L221.64 327.21L221.98 326.5L222.35 325.8L222.74 325.12L223.16 324.46L223.6 323.82L224.07 323.2L224.55 322.6L225.06 322.02L225.59 321.46L226.14 320.92L226.71 320.41L227.3 319.92L227.91 319.45L228.53 319.01L229.18 318.6L229.83 318.21L230.51 317.85L231.2 317.51L231.9 317.21L232.62 316.93L233.35 316.68L234.09 316.47L234.85 316.28L235.61 316.13L236.39 316.01L237.18 315.93L237.97 315.87L238.78 315.86L276.82 315.86L277.63 315.87L278.42 315.93Z" id="dIz9G8klc"></path><path d="M468.74 640.32C414.75 640.32 367.11 614.35 336.41 572.57C364.99 597.41 402.05 612.09 442.28 612.09C535.44 612.09 611.67 530.79 611.67 431.42C611.67 388.52 597.9 348.99 574.61 318.51C613.79 351.25 638.14 402.07 638.14 459.65C638.14 559.02 561.91 640.32 468.74 640.32Z" id="b5jBX7gViY"></path></defs><g><g><g><use xlink:href="#a5HDlXJSJ" opacity="1" fill="#ecce93" fill-opacity="1"></use><g><use xlink:href="#a5HDlXJSJ" opacity="1" fill-opacity="0" stroke="#000000" stroke-width="1" stroke-opacity="0"></use></g></g><g><use xlink:href="#a3iNjoBtGX" opacity="1" fill="#efefef" fill-opacity="1"></use><g><use xlink:href="#a3iNjoBtGX" opacity="1" fill-opacity="0" stroke="#000000" stroke-width="1" stroke-opacity="0"></use></g></g><g><use xlink:href="#dqzMOyZWP" opacity="1" fill="#e76e54" fill-opacity="1"></use><g><use xlink:href="#dqzMOyZWP" opacity="1" fill-opacity="0" stroke="#000000" stroke-width="1" stroke-opacity="0"></use></g></g><g><use xlink:href="#bmno8p3j" opacity="1" fill="#e76e54" fill-opacity="1"></use><g><use xlink:href="#bmno8p3j" opacity="1" fill-opacity="0" stroke="#000000" stroke-width="1" stroke-opacity="0"></use></g></g><g><use xlink:href="#b35YsHEq7H" opacity="1" fill="#74e640" fill-opacity="1"></use><g><use xlink:href="#b35YsHEq7H" opacity="1" fill-opacity="0" stroke="#000000" stroke-width="1" stroke-opacity="0"></use></g></g><g><use xlink:href="#a1RYpi2tAL" opacity="1" fill="#ffffff" fill-opacity="1"></use><g><use xlink:href="#a1RYpi2tAL" opacity="1" fill-opacity="0" stroke="#000000" stroke-width="1" stroke-opacity="0"></use></g></g><g><use xlink:href="#a15bxxmlSD" opacity="1" fill="#77959e" fill-opacity="1"></use><g><use xlink:href="#a15bxxmlSD" opacity="1" fill-opacity="0" stroke="#000000" stroke-width="1" stroke-opacity="0"></use></g></g><g><use xlink:href="#a4BtgZjYZt" opacity="1" fill="#77959e" fill-opacity="1"></use><g><use xlink:href="#a4BtgZjYZt" opacity="1" fill-opacity="0" stroke="#000000" stroke-width="1" stroke-opacity="0"></use></g></g><g><use xlink:href="#a1EwarQLVn" opacity="1" fill="#77959e" fill-opacity="1"></use><g><use xlink:href="#a1EwarQLVn" opacity="1" fill-opacity="0" stroke="#000000" stroke-width="1" stroke-opacity="0"></use></g></g><g><use xlink:href="#c1Lx5BO2B3" opacity="1" fill="#77959e" fill-opacity="1"></use><g><use xlink:href="#c1Lx5BO2B3" opacity="1" fill-opacity="0" stroke="#000000" stroke-width="1" stroke-opacity="0"></use></g></g><g><use xlink:href="#a1Jf3w9GNF" opacity="1" fill="#77959e" fill-opacity="1"></use><g><use xlink:href="#a1Jf3w9GNF" opacity="1" fill-opacity="0" stroke="#000000" stroke-width="1" stroke-opacity="0"></use></g></g><g><use xlink:href="#a1DlQWaMHf" opacity="1" fill="#77959e" fill-opacity="1"></use><g><use xlink:href="#a1DlQWaMHf" opacity="1" fill-opacity="0" stroke="#000000" stroke-width="1" stroke-opacity="0"></use></g></g><g><use xlink:href="#dIz9G8klc" opacity="1" fill="#77959e" fill-opacity="1"></use><g><use xlink:href="#dIz9G8klc" opacity="1" fill-opacity="0" stroke="#000000" stroke-width="1" stroke-opacity="0"></use></g></g><g><use xlink:href="#b5jBX7gViY" opacity="1" fill="#5fcb2d" fill-opacity="1"></use><g><use xlink:href="#b5jBX7gViY" opacity="1" fill-opacity="0" stroke="#000000" stroke-width="1" stroke-opacity="0"></use></g></g></g></g></svg>