<?xml version="1.0" encoding="UTF-8" standalone="no"?>
<!DOCTYPE svg PUBLIC "-//W3C//DTD SVG 1.1//EN" "http://www.w3.org/Graphics/SVG/1.1/DTD/svg11.dtd">
<svg version="1.1" xmlns="http://www.w3.org/2000/svg" xmlns:xlink="http://www.w3.org/1999/xlink" preserveAspectRatio="xMidYMid meet" viewBox="0 0 640 640" width="640" height="640"><defs><path d="M545.5 205.98L413.35 205.98L413.35 445.5L629.87 445.5C629.87 380.81 629.87 344.88 629.87 337.69C614.72 285.33 606.3 256.24 604.62 250.42C597 224.1 572.9 205.98 545.5 205.98" id="dHlO01AbX"></path><path d="M545.5 205.98L413.35 205.98L413.35 445.5L629.87 445.5C629.87 380.81 629.87 344.88 629.87 337.69C614.72 285.33 606.3 256.24 604.62 250.42C597 224.1 572.9 205.98 545.5 205.98" id="c2yhYTCR08"></path><path d="M545.5 236.06C538.7 236.06 504.67 236.06 443.43 236.06C443.43 242.76 443.43 276.27 443.43 336.59C536.33 336.59 587.94 336.59 598.26 336.59C584.75 289.91 577.25 263.98 575.75 258.79C571.87 245.42 559.43 236.06 545.5 236.06Z" id="a3puDl7ykL"></path><path d="M545.5 236.06C538.7 236.06 504.67 236.06 443.43 236.06C443.43 242.76 443.43 276.27 443.43 336.59C536.33 336.59 587.94 336.59 598.26 336.59C584.75 289.91 577.25 263.98 575.75 258.79C571.87 245.42 559.43 236.06 545.5 236.06Z" id="g1nIHp8j1"></path><path d="M443.38 236.02L598.28 336.55L443.38 336.55L443.38 236.02Z" id="e1vpYN0OLx"></path><path d="M443.38 236.02L598.28 336.55L443.38 336.55L443.38 236.02Z" id="b3efJ6bBPN"></path><path d="M545.5 236.06C538.7 236.06 504.67 236.06 443.43 236.06C458.91 246.11 582.78 326.54 598.26 336.59C584.75 289.91 577.25 263.98 575.75 258.79C571.87 245.42 559.43 236.06 545.5 236.06Z" id="fBOjNTOMK"></path><path d="M545.5 236.06C538.7 236.06 504.67 236.06 443.43 236.06C458.91 246.11 582.78 326.54 598.26 336.59C584.75 289.91 577.25 263.98 575.75 258.79C571.87 245.42 559.43 236.06 545.5 236.06Z" id="dbT0nkhtb"></path><path d="M40 85.74C240.01 85.74 351.13 85.74 373.35 85.74C395.43 85.74 413.35 103.64 413.35 125.74C413.35 147.05 413.35 253.63 413.35 445.48C372.02 445.48 41.34 445.48 0 445.48C0 253.63 0 147.05 0 125.74C0 103.65 17.9 85.74 40 85.74" id="bEFZbBEob"></path><path d="M40 85.74C240.01 85.74 351.13 85.74 373.35 85.74C395.43 85.74 413.35 103.64 413.35 125.74C413.35 147.05 413.35 253.63 413.35 445.48C372.02 445.48 41.34 445.48 0 445.48C0 253.63 0 147.05 0 125.74C0 103.65 17.9 85.74 40 85.74" id="c3mQ1Khtp"></path><path d="M0.05 490.67C0.05 463.55 0.05 448.48 0.05 445.47C40.13 445.47 62.4 445.47 66.85 445.47C82.45 417.47 112.44 398.54 146.84 398.54C181.1 398.54 211.1 417.47 226.83 445.47C248.33 445.47 420.26 445.47 441.75 445.47C457.35 417.47 487.2 398.54 521.6 398.54C555.99 398.54 585.86 417.47 601.59 445.47C604.15 445.47 616.95 445.47 640 445.47C640 448.48 640 463.55 640 490.67L0.05 490.67Z" id="g1HWg7qBpD"></path><path d="M0.05 490.67C0.05 463.55 0.05 448.48 0.05 445.47C40.13 445.47 62.4 445.47 66.85 445.47C82.45 417.47 112.44 398.54 146.84 398.54C181.1 398.54 211.1 417.47 226.83 445.47C248.33 445.47 420.26 445.47 441.75 445.47C457.35 417.47 487.2 398.54 521.6 398.54C555.99 398.54 585.86 417.47 601.59 445.47C604.15 445.47 616.95 445.47 640 445.47C640 448.48 640 463.55 640 490.67L0.05 490.67Z" id="alobi3Z2K"></path><path d="M585.47 490.39C585.47 525.66 556.87 554.26 521.6 554.26C486.32 554.26 457.75 525.66 457.75 490.39C457.75 455.11 486.33 426.51 521.6 426.51C556.89 426.51 585.47 455.11 585.47 490.39" id="d6fcSJ9LQ"></path><path d="M585.47 490.39C585.47 525.66 556.87 554.26 521.6 554.26C486.32 554.26 457.75 525.66 457.75 490.39C457.75 455.11 486.33 426.51 521.6 426.51C556.89 426.51 585.47 455.11 585.47 490.39" id="b27a12I7xe"></path><path d="M547.27 490.39C547.27 504.56 535.78 516.04 521.62 516.04C507.45 516.04 495.94 504.56 495.94 490.39C495.94 476.21 507.44 464.73 521.62 464.73C535.78 464.72 547.27 476.21 547.27 490.39" id="abO1OFlDA"></path><path d="M547.27 490.39C547.27 504.56 535.78 516.04 521.62 516.04C507.45 516.04 495.94 504.56 495.94 490.39C495.94 476.21 507.44 464.73 521.62 464.73C535.78 464.72 547.27 476.21 547.27 490.39" id="a19xY1t5fP"></path><path d="M210.66 490.39C210.66 525.66 182.05 554.26 146.79 554.26C111.51 554.26 82.91 525.66 82.91 490.39C82.91 455.11 111.51 426.51 146.79 426.51C182.05 426.51 210.66 455.11 210.66 490.39" id="e7G3dkNOV"></path><path d="M210.66 490.39C210.66 525.66 182.05 554.26 146.79 554.26C111.51 554.26 82.91 525.66 82.91 490.39C82.91 455.11 111.51 426.51 146.79 426.51C182.05 426.51 210.66 455.11 210.66 490.39" id="a5mQjjILv"></path><path d="M173.53 490.39C173.53 504.56 162.05 516.04 147.88 516.04C133.71 516.04 122.22 504.56 122.22 490.39C122.22 476.21 133.71 464.73 147.88 464.73C162.05 464.73 173.53 476.21 173.53 490.39" id="d6qqu7526"></path><path d="M173.53 490.39C173.53 504.56 162.05 516.04 147.88 516.04C133.71 516.04 122.22 504.56 122.22 490.39C122.22 476.21 133.71 464.73 147.88 464.73C162.05 464.73 173.53 476.21 173.53 490.39" id="aoes75JBU"></path></defs><g><g><g><use xlink:href="#dHlO01AbX" opacity="1" fill="#3894bd" fill-opacity="1"></use><g><use xlink:href="#dHlO01AbX" opacity="1" fill-opacity="0" stroke="#000000" stroke-width="1" stroke-opacity="0"></use></g></g><g><use xlink:href="#c2yhYTCR08" opacity="1" fill="#000000" fill-opacity="0"></use><g><use xlink:href="#c2yhYTCR08" opacity="1" fill-opacity="0" stroke="#000000" stroke-width="1" stroke-opacity="0"></use></g></g><g><use xlink:href="#a3puDl7ykL" opacity="1" fill="#84dbff" fill-opacity="1"></use><g><use xlink:href="#a3puDl7ykL" opacity="1" fill-opacity="0" stroke="#000000" stroke-width="1" stroke-opacity="0"></use></g></g><g><use xlink:href="#g1nIHp8j1" opacity="1" fill="#000000" fill-opacity="0"></use><g><use xlink:href="#g1nIHp8j1" opacity="1" fill-opacity="0" stroke="#000000" stroke-width="1" stroke-opacity="0"></use></g></g><g><use xlink:href="#e1vpYN0OLx" opacity="1" fill="#cdd6e0" fill-opacity="1"></use><g><use xlink:href="#e1vpYN0OLx" opacity="1" fill-opacity="0" stroke="#000000" stroke-width="1" stroke-opacity="0"></use></g></g><g><use xlink:href="#b3efJ6bBPN" opacity="1" fill="#000000" fill-opacity="0"></use><g><use xlink:href="#b3efJ6bBPN" opacity="1" fill-opacity="0" stroke="#000000" stroke-width="1" stroke-opacity="0"></use></g></g><g><use xlink:href="#fBOjNTOMK" opacity="1" fill="#f2f2f2" fill-opacity="1"></use><g><use xlink:href="#fBOjNTOMK" opacity="1" fill-opacity="0" stroke="#000000" stroke-width="1" stroke-opacity="0"></use></g></g><g><use xlink:href="#dbT0nkhtb" opacity="1" fill="#000000" fill-opacity="0"></use><g><use xlink:href="#dbT0nkhtb" opacity="1" fill-opacity="0" stroke="#000000" stroke-width="1" stroke-opacity="0"></use></g></g><g><use xlink:href="#bEFZbBEob" opacity="1" fill="#186f8a" fill-opacity="1"></use><g><use xlink:href="#bEFZbBEob" opacity="1" fill-opacity="0" stroke="#000000" stroke-width="1" stroke-opacity="0"></use></g></g><g><use xlink:href="#c3mQ1Khtp" opacity="1" fill="#000000" fill-opacity="0"></use><g><use xlink:href="#c3mQ1Khtp" opacity="1" fill-opacity="0" stroke="#000000" stroke-width="1" stroke-opacity="0"></use></g></g><g><use xlink:href="#g1HWg7qBpD" opacity="1" fill="#334a5e" fill-opacity="1"></use><g><use xlink:href="#g1HWg7qBpD" opacity="1" fill-opacity="0" stroke="#000000" stroke-width="1" stroke-opacity="0"></use></g></g><g><use xlink:href="#alobi3Z2K" opacity="1" fill="#000000" fill-opacity="0"></use><g><use xlink:href="#alobi3Z2K" opacity="1" fill-opacity="0" stroke="#000000" stroke-width="1" stroke-opacity="0"></use></g></g><g><use xlink:href="#d6fcSJ9LQ" opacity="1" fill="#40596b" fill-opacity="1"></use><g><use xlink:href="#d6fcSJ9LQ" opacity="1" fill-opacity="0" stroke="#000000" stroke-width="1" stroke-opacity="0"></use></g></g><g><use xlink:href="#b27a12I7xe" opacity="1" fill="#000000" fill-opacity="0"></use><g><use xlink:href="#b27a12I7xe" opacity="1" fill-opacity="0" stroke="#000000" stroke-width="1" stroke-opacity="0"></use></g></g><g><use xlink:href="#abO1OFlDA" opacity="1" fill="#acb3ba" fill-opacity="1"></use><g><use xlink:href="#abO1OFlDA" opacity="1" fill-opacity="0" stroke="#000000" stroke-width="1" stroke-opacity="0"></use></g></g><g><use xlink:href="#a19xY1t5fP" opacity="1" fill="#000000" fill-opacity="0"></use><g><use xlink:href="#a19xY1t5fP" opacity="1" fill-opacity="0" stroke="#000000" stroke-width="1" stroke-opacity="0"></use></g></g><g><use xlink:href="#e7G3dkNOV" opacity="1" fill="#40596b" fill-opacity="1"></use><g><use xlink:href="#e7G3dkNOV" opacity="1" fill-opacity="0" stroke="#000000" stroke-width="1" stroke-opacity="0"></use></g></g><g><use xlink:href="#a5mQjjILv" opacity="1" fill="#000000" fill-opacity="0"></use><g><use xlink:href="#a5mQjjILv" opacity="1" fill-opacity="0" stroke="#000000" stroke-width="1" stroke-opacity="0"></use></g></g><g><use xlink:href="#d6qqu7526" opacity="1" fill="#acb3ba" fill-opacity="1"></use><g><use xlink:href="#d6qqu7526" opacity="1" fill-opacity="0" stroke="#000000" stroke-width="1" stroke-opacity="0"></use></g></g><g><use xlink:href="#aoes75JBU" opacity="1" fill="#000000" fill-opacity="0"></use><g><use xlink:href="#aoes75JBU" opacity="1" fill-opacity="0" stroke="#000000" stroke-width="1" stroke-opacity="0"></use></g></g></g></g></svg>